<?xml version="1.0" encoding="UTF-8" standalone="no"?>
<svg
   viewBox="0 0 550.82 435.12"
   version="1.1"
   id="svg7"
   sodipodi:docname="PushManifestoLogo.svg"
   inkscape:version="1.2-dev (03e16dd8, 2021-09-24)"
   xmlns:inkscape="http://www.inkscape.org/namespaces/inkscape"
   xmlns:sodipodi="http://sodipodi.sourceforge.net/DTD/sodipodi-0.dtd"
   xmlns="http://www.w3.org/2000/svg"
   xmlns:svg="http://www.w3.org/2000/svg">
  <defs
     id="defs11" />
  <sodipodi:namedview
     id="namedview9"
     pagecolor="#ffffff"
     bordercolor="#000000"
     borderopacity="0.25"
     inkscape:pageshadow="2"
     inkscape:pageopacity="0.0"
     inkscape:pagecheckerboard="0"
     inkscape:blackoutopacity="0.0"
     showgrid="false"
     inkscape:zoom="0.96295276"
     inkscape:cx="303.75322"
     inkscape:cy="251.82959"
     inkscape:window-width="1920"
     inkscape:window-height="1017"
     inkscape:window-x="1912"
     inkscape:window-y="-8"
     inkscape:window-maximized="1"
     inkscape:current-layer="svg7" />
  <title
     id="title2">22</title>
  <path
     d="m 550.76,393.67 c -0.58,-8.17 -4.11,-15.6 -7.54,-22.81 -0.86,-1.79 -1.7,-3.58 -2.48,-5.33 -2.98,-6.66 -5.98,-13.33 -8.98,-19.94 l -1.63,-3.64 c -0.22,-0.48 -0.45,-1 -0.7,-1.48 l -0.15,-0.31 a 21.61,21.61 0 0 1 -1.29,-2.92 9.87,9.87 0 0 0 -9.2,-6.75 13.83,13.83 0 0 0 -6,1.54 c -1.05,0.51 -2.22,1 -3.5,1.47 l -0.24,0.1 a 42.79,42.79 0 0 0 -4.25,1.85 25.05,25.05 0 0 0 -4.59,3.26 17.24,17.24 0 0 1 -4.09,2.8 c -1.67,0.69 -3.43,1.32 -5.22,2 l -0.81,0.29 c -0.62,0.21 -1.23,0.44 -1.84,0.67 l -0.6,0.23 c 0,-0.14 0,-0.27 0,-0.43 0,-1 -0.35,-10.31 -4.36,-17.66 a 9.94,9.94 0 0 1 -1.21,-4.45 c 0,0 0,-1.88 -0.33,-5.08 2.11,-1 4.47,-1.91 7.4,-3 0.83,-0.3 1.67,-0.57 2.59,-0.89 a 39.45,39.45 0 0 0 9.41,-4 l 0.6,-0.39 a 19.85,19.85 0 0 0 3.74,-2.77 22.61,22.61 0 0 1 6.57,-4.51 36.82,36.82 0 0 0 8.4,-5.43 20.14,20.14 0 0 0 3.7,-4.9 64.1,64.1 0 0 0 4.32,-9.32 20.77,20.77 0 0 1 4.63,-7.58 34.72,34.72 0 0 0 6.09,-9.26 38,38 0 0 0 3.91,-11.62 c 0.66,-5.55 -0.61,-12.06 -3.72,-18.82 -0.75,-1.6 -1.47,-3 -2.19,-4.37 -0.36,-0.65 -0.78,-1.26 -1.18,-1.85 a 7.59,7.59 0 0 1 -1,-1.72 l -0.13,-0.44 a 30.31,30.31 0 0 0 -2.48,-6.08 67.41,67.41 0 0 0 -3.77,-5.84 88.57,88.57 0 0 0 -7.39,-8.95 l -1.13,-1.19 a 29.56,29.56 0 0 1 -4.89,-6.16 c -0.78,-1.49 -1.48,-3.16 -2.23,-4.89 a 64.87,64.87 0 0 0 -2.78,-6 78.75,78.75 0 0 0 -10.86,-15.08 l -0.84,-1 a 45.17,45.17 0 0 0 -4,-4.21 c -0.31,-0.26 -0.61,-0.53 -0.93,-0.79 a 10.78,10.78 0 0 1 -2.12,-2.09 12.06,12.06 0 0 1 -1.31,-3.55 24.69,24.69 0 0 0 -3.13,-7.15 20.34,20.34 0 0 1 -1.91,-4.62 c -0.37,-1.14 -0.78,-2.35 -1.26,-3.5 -1,-2.22 -1.72,-3.89 -2.43,-5.37 l -0.07,-0.15 a 8.55,8.55 0 0 0 -0.44,-1 c 10.76,-13.44 14.56,-24 11.62,-31.91 a 13.69,13.69 0 0 0 -3,-4.71 c -4.31,-7.72 -14.77,-8.41 -15.33,-8.43 -0.28,0 -0.57,0 -0.88,0 -6.35,0 -12.6,2.17 -18.69,5.92 a 45,45 0 0 0 -3.77,-3.4 32.14,32.14 0 0 0 -8.11,-4.78 c -2.84,-1.09 -7.7,-3.27 -9.52,-4.75 -0.31,-0.25 -7.45,-6 -15.62,-7.06 1.26,4.13 1.28,9.85 -0.32,15.9 -2.8,10.71 -9.44,18.24 -14.82,16.82 -5.38,-1.42 -7.47,-11.23 -4.67,-21.93 2.8,-10.7 9.45,-18.24 14.84,-16.82 a 5.82,5.82 0 0 1 2.91,2 95.5,95.5 0 0 0 -3.8,-32.24 C 406.41,26.07 393.05,4.78 359.84,0.62 a 50.07,50.07 0 0 0 -8.29,-0.61 c -12.58,0 -41.88,4 -58.49,38.42 l -0.48,1.09 c -10.57,-3.34 -19.89,-3 -29,3.72 -8.32,6.11 -12.16,15.74 -11.49,28 -0.24,0.06 -0.48,0.11 -0.71,0.18 a 20.94,20.94 0 0 1 -4.41,0.63 c -2.73,0.22 -5.82,0.47 -8.9,2.22 -0.56,0.32 -1.12,0.66 -1.66,1 -2,1.21 -3.64,2.1 -5,2 -0.5,-0.05 -1,-0.15 -1.62,-0.28 -0.81,-0.15 -1.61,-0.31 -2.43,-0.38 a 38.79,38.79 0 0 0 -14,1.09 38.18,38.18 0 0 0 -4.65,1.76 c -2.76,1.19 -5.24,2.24 -7.42,1.48 l -0.73,-0.25 a 25.74,25.74 0 0 0 -6.22,-1.54 27.54,27.54 0 0 0 -7.86,0.83 34.48,34.48 0 0 1 -3.56,0.61 c -5,0.47 -12.53,2.68 -17.19,7.35 -1.17,1.18 -3.88,1.22 -6.53,1.25 a 31.56,31.56 0 0 0 -4.4,0.25 20.71,20.71 0 0 0 -6,2.13 19.31,19.31 0 0 1 -3.85,1.52 17.89,17.89 0 0 1 -5.27,0 27.4,27.4 0 0 0 -5.81,-0.14 64.18,64.18 0 0 0 -11.82,2.89 l -0.6,0.19 -2.7,0.82 c -6.8,2 -14.52,4.32 -20.11,9.14 -1.17,0.68 -11.72,6.75 -19,7.94 a 31.59,31.59 0 0 0 -5,1.37 27,27 0 0 1 -4.13,1.14 c -2.69,0.41 -5.49,0.61 -8.21,0.8 -2.72,0.19 -6,0.43 -9.16,0.93 a 62.12,62.12 0 0 0 -7.85,2 c -3.45,1 -6.69,2 -9.94,2 a 13.92,13.92 0 0 1 -1.68,-0.09 c -2.72,-0.23 -5.51,-0.49 -8.39,-0.49 a 34,34 0 0 0 -8.29,0.92 15.49,15.49 0 0 0 -7.17,3.46 8.63,8.63 0 0 0 -1.61,2 7.73,7.73 0 0 0 -0.79,5.53 11.4,11.4 0 0 0 -4.64,4.45 l -0.16,0.32 a 10.26,10.26 0 0 0 -0.69,1.76 8.39,8.39 0 0 0 0,4.25 7.76,7.76 0 0 0 1.57,2.89 4.79,4.79 0 0 0 -0.56,0.54 10.51,10.51 0 0 0 -2.71,9.34 12.27,12.27 0 0 0 2,4.8 12.56,12.56 0 0 0 8.36,5.22 30,30 0 0 0 4.07,0.43 l -0.28,0.37 -0.24,0.35 a 11.24,11.24 0 0 0 0.61,12.52 12.72,12.72 0 0 0 10.48,4.83 23.85,23.85 0 0 0 9.24,-2.12 c 1.34,-0.57 2.71,-1.1 4.07,-1.63 l 0.47,-0.17 a 68.24,68.24 0 0 0 9.35,-4.12 21.25,21.25 0 0 1 9.38,-3 22.93,22.93 0 0 0 5,-1.11 c 0.92,-0.28 1.86,-0.55 2.71,-0.73 -0.54,0.64 -1.15,1.25 -1.78,1.89 -0.63,0.64 -1.26,1.26 -1.83,1.92 a 19.81,19.81 0 0 0 -3.29,5.35 c -1.29,3.13 -2.46,6.55 -2.1,10.32 a 10.25,10.25 0 0 0 2.79,6.22 14.12,14.12 0 0 0 10,4.28 q 5.83,0 11.14,-4.89 c 0.88,-0.65 1.73,-1.34 2.59,-2 2,-1.63 4,-3.35 6.17,-5.27 2.9,-2.58 5.76,-5.26 8.51,-8 3.64,-3.58 6.83,-7 9.75,-10.44 2.14,-2.51 4.15,-5.16 6.07,-7.72 1.18,-1.55 2.33,-3.1 3.54,-4.62 0.1,-0.14 0.29,-0.28 0.76,-0.28 a 8,8 0 0 1 2.2,0.52 10,10 0 0 0 1,0.31 q 2.4,0.63 4.86,1.16 c 2,0.43 3.88,0.76 5.73,1 a 36.51,36.51 0 0 0 8,0.39 29.43,29.43 0 0 0 4.7,-0.83 c 0.83,-0.2 1.68,-0.44 2.52,-0.68 a 45.7,45.7 0 0 1 5.29,-1.26 15.3,15.3 0 0 1 3.79,-0.19 19.79,19.79 0 0 1 2.16,0.34 c 0.59,0.11 1.18,0.23 1.79,0.3 1.21,0.16 2.44,0.32 3.66,0.46 4.63,0.57 8.71,1 12.47,1.24 2.63,0.19 5.88,0.11 9,0 a 82.86,82.86 0 0 1 9.82,-0.01 c 1.37,0.13 2.75,0.26 4.12,0.34 1.37,0.08 3,0.07 4.41,0.18 a 19.05,19.05 0 0 0 2.93,0.09 c 4.24,-0.24 8.09,0.53 12.22,1.36 1.3,0.27 2.64,0.53 4,0.77 a 56.69,56.69 0 0 0 11.12,0.82 h 2 a 17.82,17.82 0 0 1 5.77,0.74 14.14,14.14 0 0 1 4.48,3 29.06,29.06 0 0 0 2.51,2 35.64,35.64 0 0 0 4,2.25 c 2.45,1.23 5,2.51 6.44,4.49 2,2.68 3,6.06 4,9.33 l 0.25,0.78 a 26.11,26.11 0 0 1 1.25,6.22 25.75,25.75 0 0 0 0.65,4.15 40.21,40.21 0 0 0 4,10.44 111.61,111.61 0 0 0 6.13,9.72 c 1.45,2.14 2.95,4.35 4.32,6.59 3.49,5.73 6.62,11.82 3.34,17.53 a 37.1,37.1 0 0 1 -3.66,5 36.39,36.39 0 0 0 -3.84,5.2 52.67,52.67 0 0 0 -3.94,9.5 45.09,45.09 0 0 1 -4.5,10.16 c -0.77,1.18 -1.67,2.32 -2.61,3.51 a 35.53,35.53 0 0 0 -4,5.8 c -0.69,1.4 -1.39,2.94 -2.23,5 -6.58,16.09 -7.37,32.2 -2.19,45.36 5.64,14.37 19.56,25.15 35.48,27.49 a 42.36,42.36 0 0 0 23.15,-2.52 c 1.66,-0.69 3.31,-1.53 4.88,-2.36 a 36.59,36.59 0 0 1 8.35,-3.46 115.19,115.19 0 0 0 12.1,-3.42 c 2.17,-0.74 4.26,-1.63 6.33,-2.54 a 98,98 0 0 1 10.5,-3.62 c 2.27,-0.7 4.63,-1.42 6.93,-2.24 a 31.11,31.11 0 0 0 6.51,-3 c 0.4,-0.27 0.81,-0.6 1.22,-0.93 a 4.9,4.9 0 0 1 2.51,-1.4 2.29,2.29 0 0 1 2.11,1.16 c 3.64,5.43 6.86,9.87 10.18,13.93 a 40.18,40.18 0 0 1 8.4,16.48 c 2.83,11.57 8.49,21.32 16.34,28.16 0.7,0.61 1.4,1.21 2.12,1.8 a 51.06,51.06 0 0 1 7.16,6.94 65.77,65.77 0 0 1 4.19,6.27 c 1.18,1.92 2.43,3.93 3.83,5.79 5.2,7 10.11,11.72 15.48,15.05 a 41.29,41.29 0 0 0 4.1,2.26 30.28,30.28 0 0 0 12.85,2.82 h 0.13 a 31.5,31.5 0 0 0 3.49,-0.18 45.39,45.39 0 0 0 18.69,-6.41 42.76,42.76 0 0 0 9.35,-7.26 c 0.79,-0.83 1.57,-1.75 2.35,-2.68 3,-3.57 6.15,-7.28 10.8,-7.28 a 2.92,2.92 0 0 1 2,0.65 c 0.1,0.09 11.14,9.22 22.52,9.22 a 16.58,16.58 0 0 0 11.48,-4.44 c 6.81,-6.3 10.1,-14.31 9.5,-23.14 z M 521.58,221.8 a 20.32,20.32 0 0 1 4.8,0.4 2,2 0 0 1 1.28,0.6 1.74,1.74 0 0 1 0.22,1.06 3.64,3.64 0 0 0 0.19,0.79 c 0.5,2 2.25,3.69 2.33,5.85 a 2,2 0 0 1 -0.8,1.68 c -0.86,0.59 -2.17,-0.16 -2.94,-0.54 a 12.94,12.94 0 0 1 -4.3,-3.28 c -0.5,-0.63 -0.57,-1.47 -1,-2.14 a 13.79,13.79 0 0 0 -4.68,-4.13 c 1.62,-0.15 3.25,-0.24 4.9,-0.29 z m -9,-18.33 a 3.6,3.6 0 0 1 0.78,1 7.5,7.5 0 0 0 1.2,1.19 45,45 0 0 1 3.28,3.2 c 1.48,1.27 1.6,2.42 0,2.53 -1.6,0.11 -2.64,-0.68 -2.76,-2.06 a 2.44,2.44 0 0 0 -0.5,-1.52 c -0.4,-0.44 -1,-0.63 -1.44,-1.05 a 3.22,3.22 0 0 1 -0.68,-1.1 5.54,5.54 0 0 1 -0.46,-1.6 c 0.04,-0.34 0.16,-0.86 0.56,-0.59 z m 1.09,47.7 a 30.74,30.74 0 0 1 9.61,-3.41 c 0.27,-0.05 4.89,-0.52 4.89,-0.45 0.63,-8 -7.24,-13.14 -8.17,-13.71 a 6.69,6.69 0 0 0 1.48,0.09 l 1.56,0.15 c 1,0.11 1.89,0.24 2.83,0.42 a 22.87,22.87 0 0 1 4.44,1.31 c 3,1.26 5.82,3.53 6.45,6.9 a 7.61,7.61 0 0 1 0,3.08 15.88,15.88 0 0 0 -0.53,6 11.54,11.54 0 0 1 -1.11,6.79 c -0.88,1.8 -2.62,2.81 -3.57,4.52 -0.75,1.32 -1,2.79 -2,4 a 20.64,20.64 0 0 1 -8.3,5.2 c 9.92,3.05 -6.88,13.92 -6.88,13.92 a 3.14,3.14 0 0 0 0.59,0.1 c 0.9,0.21 2.2,0.63 1.95,1.83 -0.25,1.2 -1.55,2.14 -2.4,2.8 a 39.2,39.2 0 0 1 -4.28,2.9 28.11,28.11 0 0 1 -6.55,3.23 4.87,4.87 0 0 0 -2.62,1.6 c -0.43,0.6 -0.91,1.18 -1.36,1.75 a 13.52,13.52 0 0 1 -1.42,1.69 c -0.68,0.6 -1.36,0.54 -2.18,0.77 a 7.8,7.8 0 0 0 -3.14,1.81 19.16,19.16 0 0 1 -2.53,1.84 38.93,38.93 0 0 1 -5.17,2.58 c -1.94,0.82 -3.94,1.4 -5.91,2.07 a 26.46,26.46 0 0 0 -4.24,1.83 c -1.4,0.82 -2.58,2 -3.88,2.9 -1.3,0.9 -2.33,1.72 -3.51,2.52 a 121,121 0 0 1 -12.92,7.34 c -2.3,1.17 -4.61,2.34 -6.94,3.4 -8.88,3.65 -21.77,8.94 -40,4.09 a 13.1,13.1 0 0 1 -3.32,-1.67 c -0.72,-0.54 -0.89,-1.34 -0.15,-1.9 a 5.84,5.84 0 0 1 2.73,-0.75 30.38,30.38 0 0 1 3,-0.47 8.8,8.8 0 0 0 2.4,-0.27 c 2.47,-0.91 1,-1.24 1,-1.24 -1.85,-0.53 -8.64,0 -8.64,0 -0.92,0 -1.84,0 -2.77,-0.07 -0.68,0 -0.93,-0.06 -1.34,-0.61 -0.41,-0.55 -1.4,-0.57 -2.11,-0.7 a 7.08,7.08 0 0 1 -2.25,-1 7.17,7.17 0 0 1 -3.2,-4.58 7.73,7.73 0 0 0 3.18,1.06 13.78,13.78 0 0 0 5,0 21.29,21.29 0 0 1 5.09,-0.5 40.86,40.86 0 0 0 4.1,0.12 c 5.27,-0.62 6.19,-1.83 6.19,-1.83 a 35.19,35.19 0 0 1 -4.91,-0.48 c -0.46,-0.09 -0.91,-0.18 -1.37,-0.31 a 20.74,20.74 0 0 0 -2.38,-0.9 c -1.36,-0.25 -2.72,0 -4.1,-0.31 -3,-0.67 -6,-0.93 -8.95,-1.82 l -0.25,-0.09 c 0,-0.11 -0.14,-0.17 -0.28,-0.26 -0.14,-0.09 -5.54,-2.3 -5.09,-8.15 a 7.42,7.42 0 0 1 0.3,-1.59 5.53,5.53 0 0 1 1.66,2.26 6.07,6.07 0 0 0 2.37,2.64 5.32,5.32 0 0 0 3.34,0.46 11.94,11.94 0 0 1 3.53,0.34 c 3.1,0.65 6.25,1.61 9.45,0.7 a 16,16 0 0 1 5.26,-0.1 c 0.61,0.06 1.19,0.21 1.8,0.23 1.2,0.07 3.44,0 3.79,-1.49 a 1.69,1.69 0 0 0 -1.11,-1.73 9.22,9.22 0 0 0 -4,-0.24 6.78,6.78 0 0 1 -2,-0.21 c -1.18,-0.3 -2.28,-0.84 -3.46,-1.12 -1.18,-0.28 -2.42,-0.33 -3.59,-0.51 -0.58,-0.08 -1.17,-0.15 -1.74,-0.26 -2.76,-0.43 -5.49,-1 -8.21,-1.66 a 65.88,65.88 0 0 1 -6.47,-1.82 c -2.66,-1 -5.21,-2.6 -6.1,-5.46 a 8,8 0 0 1 1,-6.51 2.66,2.66 0 0 1 0.55,-0.56 c 0,0 -1.44,4.89 1.24,7.44 a 7.5,7.5 0 0 0 1.35,1.09 17.53,17.53 0 0 0 6.27,1.88 c 4.59,0.71 10.64,2 15.12,0.28 4.19,-1.57 8.8,-1 13.16,-1.13 9,-0.32 19.44,-3.54 19.44,-3.54 2.34,-0.73 4.67,-1.59 7,-2.36 a 54.79,54.79 0 0 1 6.42,-2 54.37,54.37 0 0 1 5.72,-0.32 27.79,27.79 0 0 0 7.88,-1.74 c 1.8,-0.71 2.82,-2.85 4.28,-4 a 10.37,10.37 0 0 1 4.43,-2.22 c 1.42,-0.24 2.76,0.48 4.18,0.48 2.77,0 4.85,-2.37 7.58,-2.61 a 6.06,6.06 0 0 1 2.32,0.22 3.53,3.53 0 0 0 0.75,0.38 c -2.13,0.67 -3.8,5.87 -3.8,5.87 0,0 3.09,0 3.42,0 a 8.35,8.35 0 0 0 2.14,-0.49 c 1.56,-0.64 1.55,-2.05 1.09,-3.52 a 10.78,10.78 0 0 1 -0.77,-2.58 5.62,5.62 0 0 1 0.69,-3.17 6.15,6.15 0 0 1 4.75,-2.87 c 2.1,-0.24 4.39,-0.07 6,-1.68 1.31,-1.29 1,-2.8 1.1,-4.46 a 6.57,6.57 0 0 1 1.56,-4.4 c 1.8,-1.81 4.91,-2.34 7.32,-2.36 0.32,0 4.25,0.06 4.3,0.43 -0.63,-4.08 -5.34,-5.58 -8.73,-6.37 -0.78,-0.19 -2,-0.51 -2,-1.54 0.11,-1.63 2.49,-2.61 3.63,-3.18 z m -90.81,34.57 a 18.46,18.46 0 0 1 -4.29,-1 11.72,11.72 0 0 1 -5.11,-3.17 l -0.26,-0.27 a 13.49,13.49 0 0 0 -4.6,-2.84 c -0.45,-0.19 -0.9,-0.41 -1.37,-0.65 a 7,7 0 0 1 -3.77,-4.5 c 0,-0.16 -0.06,-0.35 -0.08,-0.52 1.83,-2.12 12.09,4.31 13.9,4.75 1.09,0.25 2.21,0.48 3.31,0.76 a 38.4,38.4 0 0 1 7.07,2.37 10.4,10.4 0 0 1 2.69,1.9 3.32,3.32 0 0 1 1.23,3.11 2.84,2.84 0 0 1 -0.82,1.43 12.19,12.19 0 0 1 -4,2.61 22.9,22.9 0 0 1 -8.28,1.5 c 0.4,0 0.81,-0.09 1.19,-0.16 a 5.43,5.43 0 0 0 2.75,-1.64 c 0.7,-0.63 1.51,-1.09 2.16,-1.78 a 1,1 0 0 0 0.28,-0.44 c 0,0 0,0 0,-0.07 0.03,-0.41 -0.28,-0.93 -2,-1.39 z m 33.57,-57.07 c 0,0 0,-15.74 8.14,-19.58 0,0 -12,25.65 4.13,43.49 0,0 -0.32,-0.2 -0.8,-0.56 v 0 c -1.33,1.29 -7,6.9 -7.7,7.87 -5.36,-9.61 -4.68,-12.75 -4.62,-12.81 a 43.63,43.63 0 0 0 4.82,-3.35 26.69,26.69 0 0 1 -3.97,-15.06 z m 17.58,49.6 11.62,-9.17 c 0,0 -4.43,6.74 -11.62,9.17 z m 21.75,-97.85 c 1.6,-8.23 7.83,9.9 7.83,9.9 0.71,3.39 4.09,5.37 5.77,8.22 1.27,2.15 0,2.33 -1.82,1.76 a 22.58,22.58 0 0 1 -8.06,-4.93 c -2.08,-1.88 -3.79,-4.15 -6.42,-5.31 -2.63,-1.16 -5.67,-1.59 -8.3,-2.91 -0.94,-0.47 -2.46,-1 -1.12,-2 3.33,-2.22 11.12,0.47 12.12,-4.73 z M 481.24,158.9 c 0,2.48 1.68,4.62 3.54,6.11 0.67,0.54 1.49,0.95 2.11,1.53 1,0.94 1.34,2.38 2.14,3.48 1.5,2 4.73,2.61 5.74,4.94 1.01,2.33 -4.86,0 -5.69,-0.39 -2.27,-1.06 -4.45,-2.43 -6.93,-2.94 -3.89,-0.8 -0.8,-0.69 -1.95,-3.44 -1.15,-2.75 -7.1,-6 -7.1,-6 -1.89,-0.56 -1.59,-1.44 -0.16,-2.33 a 31.41,31.41 0 0 0 4.74,-3.64 c 0.66,-0.59 1.4,-1 2.22,-0.52 0.82,0.48 1.22,2.25 1.34,3.2 z m 9.52,-53.7 a 12.61,12.61 0 0 1 0.89,1.89 c 2.82,7.51 -0.92,17.53 -11.23,30.5 l -0.49,-1.08 c -0.21,-0.54 -0.46,-1.14 -0.75,-1.75 9.82,-12.36 13.63,-22.13 11.58,-29.56 z m -15.52,24.11 c -0.38,-0.37 -0.73,-0.73 -1.2,-1.15 a 10.53,10.53 0 0 1 -1.38,-1.4 27.75,27.75 0 0 1 -2.29,-3.82 c -0.37,-0.74 -0.76,-1.47 -1.22,-2.31 l -0.13,-0.22 c -0.19,-0.35 -0.4,-0.7 -0.62,-1.05 -0.11,-0.18 -0.22,-0.35 -0.32,-0.54 -0.43,-0.71 -0.8,-1.44 -1.23,-2.28 -0.43,-0.84 -0.74,-1.41 -1.14,-2.11 -1.12,-2 -2.22,-3.8 -3.38,-5.52 -0.26,-0.4 -0.54,-0.77 -0.81,-1.16 a 28.54,28.54 0 0 1 13.39,-3.7 h 0.68 c 0.08,0 6.41,0.07 9.19,3.76 0.46,3.65 -1.08,10.09 -9.51,21.47 z m -2,-29.29 h 0.73 c 0.08,0 8.19,0.05 10.37,5.95 -3.33,-3 -8.62,-3.39 -8.71,-3.39 h -0.72 a 29.34,29.34 0 0 0 -14.15,4.03 c -0.61,-0.83 -1.22,-1.63 -1.85,-2.41 a 29.27,29.27 0 0 1 14.34,-4.21 z m -19.67,7.71 c 0.65,0.75 1.29,1.52 1.9,2.3 -24.53,18.03 -46.71,65.11 -59.71,97.17 h -2.39 c 12.67,-31.82 35.25,-80.74 60.21,-99.5 z M 408.26,71.1 c 0,0 -12.54,1.64 -15.74,22 0,0 -3.22,20.52 7.1,21.78 a 49.81,49.81 0 0 1 -6.32,7.18 c -3.81,4.44 -15,11.08 -19.27,13.18 a 57.22,57.22 0 0 1 -13.49,4.5 c -1.27,0.26 -2.53,0.46 -3.81,0.63 a 39.34,39.34 0 0 1 0,4.34 c -0.07,1.61 -0.23,3.22 -0.45,4.81 a 48.53,48.53 0 0 1 -2.24,9.34 48.58,48.58 0 0 0 1.32,-9.42 c 0.07,-1.57 0.06,-3.16 0,-4.73 a 39.83,39.83 0 0 0 -0.41,-4.13 c -1.36,0.15 -2.7,0.26 -4.08,0.32 a 28.61,28.61 0 0 1 -1.71,11.19 c 0.36,-2.72 1.18,-8.47 0,-11.14 a 72.74,72.74 0 0 1 -16.55,-1.63 67.76,67.76 0 0 0 27.48,-1.5 55.78,55.78 0 0 0 12.59,-5.2 c 1.42,-0.81 2.84,-1.6 4.18,-2.52 0.28,-0.19 3.71,-2.62 3.64,-2.66 -1.23,-0.72 -2.43,-1.72 -3.8,-0.67 a 42.87,42.87 0 0 1 -11.4,6.64 53.85,53.85 0 0 1 -12.79,3.41 63.59,63.59 0 0 1 -25.88,-2 62.6,62.6 0 0 0 25.57,0.19 c 1.46,-0.32 2.89,-0.69 4.31,-1.12 a 31.81,31.81 0 0 0 9.92,-4.94 c 4,-3 6.83,-7.61 9.26,-11.91 a 68.22,68.22 0 0 0 4.59,-10.2 60.27,60.27 0 0 0 2.91,-14.08 c 1.65,-19.46 -12.93,-22.25 -11.38,-22.53 0,0 17.57,-3.91 19.94,14.94 a 148.25,148.25 0 0 0 -0.93,-34.28 c -5.55,-38 -34.31,-44.26 -34.31,-44.26 0,0 49.92,-2.5 51.75,64.47 z m -66.1,2.15 c 1.77,0.13 3.51,0.28 5.24,0.39 1.73,0.11 3.45,0.24 5.16,0.2 a 46.73,46.73 0 0 0 5.16,-0.06 c 1.72,-0.1 3.43,-0.3 5.19,-0.53 v 0.1 a 32.36,32.36 0 0 1 -10.39,1.41 46.69,46.69 0 0 1 -10.41,-1.41 z m -41.73,-9 v 0 0.05 a 20.54,20.54 0 0 1 2.23,1.9 48.2,48.2 0 0 0 13,9.43 c 7.15,3.46 14.79,5.13 22.67,6 a 113.72,113.72 0 0 0 26.91,0.19 c 0,0 17.21,-2.2 13.74,13.17 a 70.41,70.41 0 0 1 -4.81,14.49 c -6.86,14.52 -21.95,22.91 -38.14,21.87 a 52.92,52.92 0 0 1 -30,-10.59 v 0 0 l -0.06,-0.1 a 42.1,42.1 0 0 1 -6.65,-6.09 44.42,44.42 0 0 1 -6.22,-9.26 c -5.36,-10.6 -8.6,-26.94 -3.43,-38.11 a 16.05,16.05 0 0 1 1.83,-3 c 2.65,-3.31 6.11,-2.08 8.93,0.05 z M 267.38,48.41 c 6.8,-5 14.09,-5.79 22.66,-2.95 -0.3,0.78 -0.61,1.56 -0.91,2.37 -0.19,0.59 -0.4,0.79 -1.93,1.75 l -0.79,0.51 c -3.94,2.59 -6.43,7.34 -7.59,14.54 a 9.06,9.06 0 0 1 -0.28,1.24 2.79,2.79 0 0 1 -0.63,1.24 c 0,0 -0.08,0.09 -0.4,0.1 a 120.36,120.36 0 0 0 -15.26,1.67 c 0.21,7.6 2.52,15.66 5.25,22.62 1.79,4.57 3.87,9.11 5.66,12.94 2.3,4.91 4.82,9.8 7.52,14.53 3.94,6.94 8.36,13.81 12.63,20.45 4.12,6.38 8.35,13 12.2,19.69 8.17,14.16 15.06,27.16 20.92,39.44 0.7,-0.34 1.4,-0.66 2.09,-1 a 48.13,48.13 0 0 1 11,-4.82 46,46 0 0 1 12.2,-1.38 30.37,30.37 0 0 1 8.82,1.05 c 2,0.67 3.41,-0.7 4.46,-2.28 a 32.36,32.36 0 0 0 3.24,-6.37 c 1.55,-4 2.64,-8.14 4.34,-12.07 1.15,-2.65 2.26,-5.26 3.49,-7.87 a 130,130 0 0 1 9,-16.33 64.61,64.61 0 0 1 9.84,-11.56 c 1.05,-1 2.13,-2 3.2,-3 2.23,-2.13 4.4,-4.34 6.44,-6.68 a 92.72,92.72 0 0 0 7.92,-10.11 54.9,54.9 0 0 0 6.29,-12.14 41.48,41.48 0 0 0 2.69,-12.7 17.59,17.59 0 0 0 0,-1.87 4.87,4.87 0 0 1 2.13,-0.15 c 2.8,0.31 4.57,2.23 6.71,3.8 a 10.84,10.84 0 0 0 5.07,1.72 19.43,19.43 0 0 1 5.62,2.52 44.41,44.41 0 0 1 5,3.3 c 1.11,0.82 2.17,1.7 3.19,2.62 -27.14,21.13 -50.39,72.11 -62.95,104 h -58.2 a 9.24,9.24 0 0 0 -1.67,0.22 c -6.63,-14.71 -14.69,-30.33 -24.7,-47.71 -3.87,-6.72 -8.11,-13.32 -12.21,-19.7 -4.28,-6.64 -8.68,-13.51 -12.68,-20.44 -2.69,-4.74 -5.22,-9.62 -7.52,-14.54 -1.79,-3.83 -3.87,-8.37 -5.66,-12.94 -5.66,-14.5 -9.63,-33.85 3.8,-43.71 z m 92.17,168.9 a 5.91,5.91 0 0 1 -5.9,5.85 5.84,5.84 0 0 1 -5.76,-5.84 5.24,5.24 0 0 1 0.15,-1.37 h 11.34 a 5.17,5.17 0 0 1 0.17,1.36 z M 11.15,132.04 a 4.17,4.17 0 0 1 0.28,-0.45 v 0 c -0.3,0.52 2.54,1.07 4.6,1.38 2.06,0.31 9.89,-0.55 9.89,-0.55 a 9.31,9.31 0 0 1 3.44,0 c 3.26,0.82 -1.94,1.16 -1.94,1.16 -9.24,1.43 -11.41,1.21 -11.54,1.2 a 21.54,21.54 0 0 1 -3.12,-0.58 2.8,2.8 0 0 1 -1.56,-1.14 1.29,1.29 0 0 1 -0.05,-1.02 z m -5.67,8.77 a 5.69,5.69 0 0 1 0.4,-1 v 0 c -0.43,1.19 3.59,2.46 6.54,3.17 2.95,0.71 14,-1.27 14,-1.27 3.56,-0.68 4.87,0 4.87,0 4.65,1.89 -2.74,2.65 -2.74,2.65 -13.14,3.26 -16.21,2.77 -16.4,2.75 a 18.94,18.94 0 0 1 -4.52,-1.34 4.23,4.23 0 0 1 -2.22,-4.94 z m 6.07,20.15 a 12.05,12.05 0 0 1 -4.63,-0.44 5.1,5.1 0 0 1 -3,-4.24 5.83,5.83 0 0 0 2.83,1.64 7.59,7.59 0 0 0 4.54,-1 18.07,18.07 0 0 1 6.37,-1.87 c 0.72,-0.05 1.43,-0.11 2.16,-0.1 a 33.13,33.13 0 0 0 3.59,0.12 12.54,12.54 0 0 0 3.45,-0.95 c 1.35,-0.59 2.8,-0.79 4.16,-1.27 a 11.55,11.55 0 0 0 3.51,-2.24 c 3.51,-2.53 4.8,0 4.8,0 1.62,2.13 -5.49,5.73 -5.49,5.73 a 32.18,32.18 0 0 1 -5.34,2.05 c -1.24,0.38 -2.5,0.88 -3.78,1.24 a 10.92,10.92 0 0 1 -2.72,0.47 45.54,45.54 0 0 0 -5.09,0.08 c -1.82,0.25 -3.56,0.66 -5.36,0.78 z M 65,164.63 c -2.21,0.37 -4.29,1.07 -6.53,1.24 a 31,31 0 0 0 -11.39,2.92 c -3,1.41 -6,3 -9,4.52 -0.69,0.35 -1.36,0.73 -2.06,1.08 -0.7,0.35 -1.23,0.85 -1.85,1.26 -0.62,0.41 -1.25,0.83 -1.89,1.22 a 32.62,32.62 0 0 1 -4,2.2 c -2.44,1.09 -5.32,1.78 -7.94,0.91 a 6.47,6.47 0 0 1 -4.13,-4.83 6.74,6.74 0 0 1 0.28,-3.67 6.57,6.57 0 0 1 0.68,-1.35 3.06,3.06 0 0 0 0.19,-0.29 c -0.23,2.68 2.57,4.53 4.8,5.26 a 8.3,8.3 0 0 0 7.54,-1.17 c 1.82,-1.32 3,-3.08 4.57,-4.6 3.63,-3.47 9,-4.08 12.94,-7 2.91,-2.16 6.89,-4.5 10.58,-4.88 4,-0.42 17.94,-6.48 17.94,-6.48 2.7,-1.25 3.27,-0.91 1.89,1.39 -1.38,2.3 -3.77,12.26 -3.77,12.26 -0.47,2.09 -7.33,-0.25 -8.85,0.01 z m 45.25,-11.74 a 7.29,7.29 0 0 1 -1.47,3.07 c -0.84,1.12 -2,2 -2.81,3.15 -0.5,0.69 -1,1.33 -1.57,2 l -2.16,2.72 c -0.88,1.11 -1.76,2.21 -2.66,3.31 l -3,3.67 c -1.06,1.29 -2.14,2.57 -3.22,3.84 -1.08,1.27 -2.17,2.54 -3.29,3.8 -1.12,1.26 -2.13,2.39 -3.22,3.56 -1.09,1.17 -2,2.11 -3,3.13 -0.85,0.84 -1.72,1.68 -2.64,2.46 -0.2,0.16 -0.38,0.33 -0.59,0.49 0,0 -9.32,10.39 -16.36,5.5 0,0 -4.45,-3.35 -1.21,-3.36 0,0 11.69,2.75 25.92,-18.35 l 14,-19 a 20.27,20.27 0 0 1 1.56,-2.15 c 0.87,-0.92 2.3,-1.92 3.64,-1.46 a 3.82,3.82 0 0 1 2.14,2.16 3,3 0 0 1 -0.06,1.46 z m 173.58,53.17 a 51.36,51.36 0 0 1 -3.72,-6.09 24.36,24.36 0 0 1 -2.72,-6.53 c -0.61,-2.85 -1,-6.08 -2.8,-8.48 -2,-2.63 -4.72,-5.93 -4.85,-9.43 -0.18,-3.87 -3.76,-5.73 -6.43,-7.91 a 47.84,47.84 0 0 1 -7.73,-7.72 13.83,13.83 0 0 1 -2.67,-5.16 c 0,0 -6,3.21 -11.94,0.46 0,0 4,-2.61 5.06,-6.89 0,0 -9.47,7 -20.48,6 0,0 7.48,-4.59 8.41,-8.85 0.19,-1 -0.57,-1.22 -1.4,-1.37 -3.11,-0.51 -13.71,8.19 -17.95,7.73 0.94,-0.16 3.79,-2.94 2.74,-3.53 a 5.5,5.5 0 0 0 -2.85,-0.18 21,21 0 0 0 -3.2,0.53 c -1.09,0.28 -2.36,0.57 -3,1.57 0,0 -3.34,5.51 -12.63,4.36 a 14.59,14.59 0 0 0 3,-1.8 c 1,-0.78 3.74,-3 2.77,-4.53 -0.97,-1.53 -2.77,-0.35 -3.81,0.25 -1.04,0.6 -2,1.08 -3.06,1.54 a 31.24,31.24 0 0 1 -9.89,2.71 29.87,29.87 0 0 1 -3.41,0.09 c -0.59,-0.05 -1.17,-0.08 -1.74,-0.15 a 6.32,6.32 0 0 0 -1.74,-0.28 17.78,17.78 0 0 0 3.33,-1.17 11.41,11.41 0 0 0 3.62,-2.33 c 1,-1.12 1.31,-2.74 -0.5,-3.16 -1.32,-0.28 -2.4,0.64 -3.52,1.25 -1.12,0.61 -2.35,1.19 -3.56,1.75 a 28.24,28.24 0 0 1 -9,2.56 9.91,9.91 0 0 1 -4.7,-0.63 13.2,13.2 0 0 0 4.71,-3.17 2.74,2.74 0 0 0 0.87,-2.38 c -0.27,-0.9 -1.42,-1 -2.24,-1 -3,0 -5.38,1.87 -7.76,3.51 a 32.45,32.45 0 0 1 -4.58,2.57 47.37,47.37 0 0 1 -15,4.23 37.09,37.09 0 0 1 -11.52,-0.51 c 0,0 -7.68,-1.38 -11,-2.86 a 37.25,37.25 0 0 0 9.85,-0.74 c 0,0 -7.34,-0.51 -9.51,-4.64 a 24.28,24.28 0 0 0 1.7,-10.37 27.53,27.53 0 0 0 -1.8,-7.28 20,20 0 0 0 -4.42,-6.71 16.57,16.57 0 0 0 -7,-4.06 23.6,23.6 0 0 0 -8.21,-0.84 c 20.33,-4.05 31.89,12 33.76,18.47 2.18,0.12 4,0.06 4.73,-0.34 a 15.52,15.52 0 0 1 -14.28,3.37 c 0,0 11.21,4.82 18.32,1.94 0,0 -2.06,3.34 -4.24,3.34 a 34.73,34.73 0 0 0 11.37,0.42 c 0.76,-0.07 1.87,-0.09 2.41,-0.68 0.54,-0.59 0.22,-1.19 0.21,-1.82 a 3,3 0 0 1 0.43,-1.63 c 1.14,-2 3.27,-1 5,-1.63 1.73,-0.63 2,-1.91 2.51,-3.42 1.24,-3.34 3.58,-7.9 1.47,-11.38 0.59,0.8 10.82,14.69 19.71,12.56 a 12.26,12.26 0 0 0 6.12,-3.5 c 1.8,-2 1.78,-4.21 2.31,-6.68 a 6.06,6.06 0 0 1 2,-3.54 10.69,10.69 0 0 1 5.59,-2.27 13.18,13.18 0 0 1 3.32,-0.1 7.55,7.55 0 0 0 6,-2.2 11.75,11.75 0 0 0 3.11,-6.79 22.72,22.72 0 0 0 -0.07,-6.79 58.55,58.55 0 0 1 3.29,5.68 c 2.27,4.33 4.42,8.84 5.26,13.68 0.19,1 0.24,2.27 1.15,2.9 3.22,2.14 6.69,-4.64 8.83,-6.09 a 8.32,8.32 0 0 1 2.11,-1.05 8.53,8.53 0 0 1 2.37,-0.22 c 0,0 -1.83,9.49 2.75,11.93 0,0 2.6,-15 8.87,-16.52 0,0 -0.93,11.32 3.65,14.85 2.89,2.18 6,-0.17 7.8,-2.48 0.62,-0.79 2.57,-2.4 3.67,-2.4 2.8,0.05 2.88,3.81 2.89,5.78 a 40.7,40.7 0 0 1 -0.72,7 c 0,0 5,3.21 4,8.4 a 9.28,9.28 0 0 1 3.52,7.5 c 0,0 2.19,0.74 2.34,0.81 a 9,9 0 0 1 3.91,3 27.6,27.6 0 0 0 1.77,3.08 c 2.37,2.75 5.84,4.11 8.38,6.63 1.46,1.44 2.92,2.86 4.3,4.37 1.38,1.51 2.58,3 3.77,4.56 -4.25,-14.27 -8,-18 -15.74,-26 0,0 9.55,2.3 17.34,13.61 0,0 9.6,16.28 20.78,32.49 2.54,5.12 4.88,10.08 7.07,14.95 -0.21,0.19 -0.47,0.36 -0.65,0.56 -2.31,2.54 -4.12,5.38 -4.51,8.82 a 4.84,4.84 0 0 1 4.67,-3.69 h 1.7 a 11.29,11.29 0 0 0 -5.09,2.43 11.25,11.25 0 0 0 8.6,19.76 11.27,11.27 0 0 0 1,-22.19 h 19.34 a 7,7 0 0 0 -0.15,1.37 7.43,7.43 0 0 0 2.6,5.58 7.15,7.15 0 0 0 11.56,-5.53 6.44,6.44 0 0 0 -0.14,-1.37 h 3.54 c -0.3,6.77 -0.47,13.53 -0.61,20.29 l -0.09,3.35 a 3.93,3.93 0 0 1 -0.91,2.41 3.8,3.8 0 0 1 -2.21,1.29 31.22,31.22 0 0 1 -3.13,0 L 342.9,243.2 c -8.91,0.09 -17.81,0.09 -26.71,0.27 l -13.35,0.34 c -2,0.05 -4.16,0.22 -6.13,0.19 a 29.17,29.17 0 0 0 2.6,-5.44 c 1.71,-4.79 2.18,-10.28 -0.28,-14.91 -0.13,-0.24 -0.28,-0.47 -0.42,-0.71 a 5.37,5.37 0 0 0 1.06,0 5.68,5.68 0 0 0 0,-11.26 5.59,5.59 0 0 0 -6.27,5.27 c -0.72,-0.68 -1.44,-1.35 -2.15,-2 -0.89,-0.9 -1.81,-1.78 -2.72,-2.68 -1.7,-2 -3.2,-4.07 -4.7,-6.21 z m 41.49,11.5 a 9.44,9.44 0 0 1 9.49,9.39 9.51,9.51 0 0 1 -2.81,6.69 9.38,9.38 0 0 1 -16,-6.68 9.27,9.27 0 0 1 2.7,-6.62 9.38,9.38 0 0 1 6.62,-2.78 z m -30.35,-0.24 a 4.73,4.73 0 0 1 4.7,-4.76 4.75,4.75 0 1 1 0,9.5 4.34,4.34 0 0 1 -2,-0.43 24.76,24.76 0 0 0 -2.55,-2.95 4.19,4.19 0 0 1 -0.15,-1.36 z M 539.86,409.6 c -2.53,2.94 -5.4,6.34 -9.51,6.09 -9,-0.6 -19.44,-11.38 -20.18,-12 a 3.61,3.61 0 0 1 -0.22,-4.58 c 0,0 2,-4.12 3.67,-5.41 0,0 -1.9,0.28 -7.1,3.93 0,0 -2.78,1.92 -3.84,1.85 0.41,-0.91 1.83,-4 2.15,-5 a 16.21,16.21 0 0 0 0.9,-4.48 c -0.27,1.49 -8.94,17 -15.06,18.35 0.67,-1.81 2.56,-9.67 1.12,-13.79 a 23.84,23.84 0 0 1 -1.32,8.29 49.67,49.67 0 0 1 -3.27,7.67 c -1.72,2.37 -4.74,5.94 -7.15,6.19 a 13.46,13.46 0 0 0 0.84,-3.07 15.21,15.21 0 0 1 -1.92,3.33 16.29,16.29 0 0 1 -4.38,3.93 41,41 0 0 1 -5.07,2.8 25.36,25.36 0 0 1 -6.12,1.77 18.6,18.6 0 0 1 -13.81,-3.27 3.72,3.72 0 0 0 -0.81,-0.59 c 0,0 7.34,1.38 11.92,-3 0,0 5.51,-3.89 4.36,-10.09 a 6.58,6.58 0 0 1 0.63,-3 c 0.63,-1.59 1.63,-2.83 1.34,-4.61 -0.56,-3.27 -4.87,-2.39 -7.21,-2.39 -4.1,0 -8.54,-0.19 -12.42,-1.7 -3.61,-1.41 -7.16,-3.14 -11.12,-3.87 a 12,12 0 0 0 -2.86,-0.26 c 0.28,0 0.9,-0.61 1.14,-0.78 1,-0.63 2.1,-1.21 3.2,-1.74 a 30.14,30.14 0 0 1 5.47,-2 c -5.85,-6.43 -1.12,-13.08 -0.74,-13.59 -1.4,5.76 2.63,10.33 5.42,12.71 0.26,0 0.52,-0.1 0.78,-0.11 a 13.89,13.89 0 0 1 3.81,0.16 c 0.53,0.07 2.24,0.48 2.45,-0.33 a 1.34,1.34 0 0 0 -0.3,-1.26 c -0.68,-0.88 -1.87,-1.18 -2.51,-2.09 a 23.14,23.14 0 0 1 -1.75,-4 86.82,86.82 0 0 1 -3.76,-10.61 c -0.85,-3.11 -1,-6.34 -2.68,-9.18 -0.12,-0.2 -0.25,-0.39 -0.37,-0.58 -1.6,4 -2.87,8.42 -2.15,11.4 a 17.52,17.52 0 0 0 -1.12,-3.19 9.84,9.84 0 0 0 -4.36,-4.69 c -1.75,-0.8 -3.69,-0.51 -5.55,-0.59 -11.62,-0.48 -16.29,-3 -16.48,-3 0,0 14.34,1.09 20,-1.83 a 43,43 0 0 0 5.81,-2.71 18.33,18.33 0 0 0 -2.52,-1.91 35.15,35.15 0 0 0 -9.07,-3.44 120.2,120.2 0 0 1 -15.38,-5.22 116,116 0 0 1 -14.7,-7.38 81.08,81.08 0 0 1 -14.3,-10.78 57,57 0 0 1 -11.19,-14.7 9.08,9.08 0 0 1 -1,-2 c 0,0 -2.74,4.34 1.38,15.13 a 86.65,86.65 0 0 1 -13.85,7.43 43.32,43.32 0 0 1 -6.38,1.66 c -3.44,0.94 -5.92,3.85 -9.39,4.85 -3.19,0.92 -6.4,1.79 -9.67,2.49 -2.64,0.56 -5.26,0.95 -7.86,1.74 -2.6,0.79 -5,1.56 -7.46,2.54 a 44.28,44.28 0 0 0 -4.18,1.85 c 0,0 -25.24,14.68 -41.28,-8.57 0,0 13,4.76 23.69,0.32 0,0 11.22,-4.17 17.81,-3.34 a 22.11,22.11 0 0 0 3.47,0.44 12.14,12.14 0 0 0 3.41,-0.28 11.72,11.72 0 0 1 -3.3,-0.5 19.43,19.43 0 0 1 -3.08,-1.12 c -2.48,-1.17 -5.06,-1.9 -7.23,-3.55 a 19.08,19.08 0 0 1 -5.15,-6.22 36.79,36.79 0 0 0 -6.94,-9.16 38.49,38.49 0 0 0 -8.17,-5.89 41.61,41.61 0 0 0 -11.74,-4.15 56.37,56.37 0 0 0 -15.83,-0.64 c -0.19,0 -2.17,0.16 -2.17,0.18 0,0.02 7.73,-14 35.87,-2 0,0 16.81,8.26 22.62,19.58 4,-0.62 8.59,-0.82 12.48,0.37 1.48,0.45 2.9,1.58 4.5,1.64 2.7,0.09 5.59,-1.64 7.88,-2.88 1.69,-1 3.9,-2.49 4,-4.63 0.09,-1.44 -1.21,-2.62 -2.28,-3.38 -1.57,-1.12 -3.27,-3.47 -2.39,-5.48 a 2.43,2.43 0 0 0 -0.85,-3.16 24.1,24.1 0 0 0 -3.21,-2.57 46.66,46.66 0 0 0 -13.34,-5.75 c -4.7,-1.18 -11.67,-1.82 -14.06,-6.79 a 5.81,5.81 0 0 1 -0.14,-4.32 c 0,0.47 2.21,2.1 2.47,2.28 a 12.93,12.93 0 0 0 6.75,2.69 c 3.23,0.31 6.44,0.05 9.66,0.5 a 28.62,28.62 0 0 1 8.41,2.26 12,12 0 0 1 3.75,2.62 27.24,27.24 0 0 1 -1.41,-2.36 17,17 0 0 0 -5.32,-4.49 23.69,23.69 0 0 0 -4.68,-1.87 c -2.23,-0.59 -4.54,-0.47 -6.68,-1.42 a 9.76,9.76 0 0 1 -4.77,-4.46 c 0,0 6.46,1.27 15.49,-3.2 a 5.77,5.77 0 0 0 1.46,-0.66 8.78,8.78 0 0 0 1.24,-0.85 8.92,8.92 0 0 0 1.91,-2.23 10.17,10.17 0 0 1 -2.35,1.55 c -2.45,1.09 -7.59,0.28 -9.44,-0.2 a 47.41,47.41 0 0 1 -15,-6.24 39.92,39.92 0 0 1 -6.74,-6 c -1.69,-1.78 -3.74,-3.19 -5.45,-5 -2,-2.07 -4,-4.66 -4.15,-7.62 a 7,7 0 0 1 1.66,-4.69 c 0.25,-0.33 0.48,-0.69 0.71,-1 2.26,0.24 4.37,0.22 6.56,0.33 l 13.35,0.35 c 8.9,0.19 17.8,0.19 26.71,0.27 l 13.34,-0.11 a 24.83,24.83 0 0 0 3.54,-0.14 5.83,5.83 0 0 0 4.72,-5.78 l -0.08,-3.35 c -0.15,-6.76 -0.32,-13.52 -0.61,-20.29 h 27.57 a 4.84,4.84 0 0 1 4.82,4.82 v 34.84 a 4.81,4.81 0 0 1 -3.51,4.61 7.47,7.47 0 0 0 5.78,-4 l 1.22,-2.27 a 22.71,22.71 0 0 0 2.27,-9.08 v -32.84 c 0,-2.64 -1.36,-4.9 -4.83,-4.82 h -0.34 c 13,-32 35.22,-78.68 59.51,-96.21 0.44,0.6 0.9,1.19 1.32,1.8 1.11,1.64 2.13,3.33 3.08,5.07 0.28,0.49 3,5.63 2.82,5.8 -7.58,5.41 -15.62,10.93 -22.59,17.39 a 73.2,73.2 0 0 0 -9.31,10.31 c -5.68,7.82 -9.23,18.61 -7.34,28.24 a 33.75,33.75 0 0 0 3.95,10.13 c 1.86,3.28 3.82,7.21 6.43,9.95 2.93,3.09 3.92,5.49 3.62,9.7 a 49.44,49.44 0 0 1 -3.35,13.36 121.6,121.6 0 0 1 -5,11.47 c 0,0 17.11,-24.77 20.17,-43.42 0,0 -0.6,28.13 -6.09,43.42 0,0 -10.41,24.47 -9.82,28.14 0,0 8,-17.13 12.55,-20.49 -0.19,4.64 1.18,9 1.51,13.61 a 73.26,73.26 0 0 0 3.11,15.79 c -0.27,0 -0.53,0.11 -0.81,0.12 h -0.23 a 16.14,16.14 0 0 1 -4.87,-1 l -0.45,-0.12 a 10.42,10.42 0 0 0 -3.37,-0.5 22.48,22.48 0 0 0 -3.34,0.3 15.32,15.32 0 0 0 -1.64,0.32 8.11,8.11 0 0 1 -3,0.32 c -1.51,-0.19 -3,-0.44 -4.51,-0.69 -1.81,-0.3 -3.63,-0.6 -5.5,-0.83 a 23.25,23.25 0 0 1 -8.28,-2.57 12.82,12.82 0 0 0 -5.46,-1.59 7.89,7.89 0 0 0 -6.29,3.41 7.7,7.7 0 0 0 -1,4.32 l 0.06,0.42 a 3.26,3.26 0 0 0 0,0.33 7.75,7.75 0 0 0 4.24,5.1 15.74,15.74 0 0 0 1.43,0.7 l 0.36,0.16 a 11.58,11.58 0 0 1 3.95,2.48 l 0.22,0.23 a 12.6,12.6 0 0 0 5.5,3.43 17.77,17.77 0 0 0 4.38,1 4.51,4.51 0 0 1 1.24,0.45 9,9 0 0 1 -1.1,0.91 c -0.34,0.26 -0.67,0.51 -1,0.79 a 4.48,4.48 0 0 1 -2.3,1.41 c -0.37,0.07 -0.75,0.13 -1.1,0.16 -0.52,0 -1,0.05 -1.57,0.05 h -1.23 c -0.58,0 -1.15,0 -1.69,0.05 -1.4,0.11 -2.79,0.34 -4.15,0.55 a 34.75,34.75 0 0 1 -5,0.58 h -0.23 a 14.25,14.25 0 0 1 -5.67,-1.49 31.26,31.26 0 0 0 -7.37,-1.86 l -0.73,-0.12 a 16.84,16.84 0 0 0 -2.37,-0.25 4.62,4.62 0 0 0 -3.22,1.13 4.45,4.45 0 0 0 -0.69,0.73 9,9 0 0 0 -1.13,7.34 c 0.82,2.6 2.91,4.57 6.19,5.86 -0.07,0.1 -0.12,0.2 -0.18,0.3 a 9.38,9.38 0 0 0 -0.46,1.21 6.85,6.85 0 0 0 -0.34,1.78 c -0.41,5.35 3.7,8 5.08,8.78 l -0.16,0.12 a 3.06,3.06 0 0 0 -1,1.63 6.59,6.59 0 0 0 -0.12,3.15 8.19,8.19 0 0 0 3.63,5.2 7.56,7.56 0 0 0 2.56,1.12 c 0.17,0 0.36,0 0.55,0.09 0.37,0 0.84,0.1 1,0.26 0.16,0.16 0,0.09 0.11,0.3 0.11,0.21 0.08,0.25 0.13,0.38 a 3.85,3.85 0 0 0 0.26,0.68 11.63,11.63 0 0 0 4.34,4.61 7,7 0 0 0 1.06,0.54 c 1.73,0.68 3.14,1.17 4.42,1.56 a 58,58 0 0 0 16.55,2.67 h 0.73 a 64.81,64.81 0 0 0 29.29,-7.43 79,79 0 0 0 10,-6 c 1.33,-0.95 2.63,-2 3.87,-3.08 l 0.14,-0.11 a 40.52,40.52 0 0 1 2.08,4.3 17.14,17.14 0 0 1 1.32,6.21 5.25,5.25 0 0 0 1.54,3.3 c 2.14,2.55 1.44,7 1.44,7 -0.26,1.64 -0.62,3.26 -1,4.87 a 23.82,23.82 0 0 1 -1.55,4.66 8.32,8.32 0 0 0 3.15,-6.37 8,8 0 0 0 0.79,1.46 c 1.81,2.68 2.57,2.06 2.19,5.26 -0.13,1.34 -1,7.42 1.64,7.06 0.87,-0.14 1.43,-1.15 1.9,-1.77 a 6.51,6.51 0 0 1 2,-1.92 c 0.71,-0.38 1.56,-0.49 2.23,-0.84 0.94,-0.5 2,-2.22 5.87,-3 5.73,-1 11.15,4 11.62,4.24 -1.75,-5.65 -5.62,-6.67 -5.17,-7 1.38,-1 1.91,-1.77 3.52,-2.38 1.45,-0.56 3,-0.2 4.44,-0.74 1.44,-0.54 2.23,-1.66 3.32,-2.62 0.75,-0.63 6.64,-6.58 9.12,-1.64 l 21.08,46.43 c 0,0 7.17,11 -2.73,22.4 z"
     id="path4"
     style="fill:#0075b6;fill-opacity:1" />
</svg>
