<svg xmlns="http://www.w3.org/2000/svg" viewBox="0 0 550.82 435.12"><title>22</title><g id="_1" data-name="1"><path d="M664,612.47c-.58-8.17-4.11-15.6-7.54-22.81-.86-1.79-1.7-3.58-2.48-5.33C651,577.67,648,571,645,564.39l-1.63-3.64c-.22-.48-.45-1-.7-1.48l-.15-.31a21.61,21.61,0,0,1-1.29-2.92,9.87,9.87,0,0,0-9.2-6.75,13.83,13.83,0,0,0-6,1.54c-1.05.51-2.22,1-3.5,1.47l-.24.1a42.79,42.79,0,0,0-4.25,1.85,25.05,25.05,0,0,0-4.59,3.26,17.24,17.24,0,0,1-4.09,2.8c-1.67.69-3.43,1.32-5.22,2l-.81.29c-.62.21-1.23.44-1.84.67l-.6.23c0-.14,0-.27,0-.43,0-1-.35-10.31-4.36-17.66a9.94,9.94,0,0,1-1.21-4.45s0-1.88-.33-5.08c2.11-1,4.47-1.91,7.4-3,.83-.3,1.67-.57,2.59-.89a39.45,39.45,0,0,0,9.41-4l.6-.39a19.85,19.85,0,0,0,3.74-2.77,22.61,22.61,0,0,1,6.57-4.51,36.82,36.82,0,0,0,8.4-5.43,20.14,20.14,0,0,0,3.7-4.9,64.1,64.1,0,0,0,4.32-9.32,20.77,20.77,0,0,1,4.63-7.58,34.72,34.72,0,0,0,6.09-9.26,38,38,0,0,0,3.91-11.62c.66-5.55-.61-12.06-3.72-18.82-.75-1.6-1.47-3-2.19-4.37-.36-.65-.78-1.26-1.18-1.85a7.59,7.59,0,0,1-1-1.72l-.13-.44a30.31,30.31,0,0,0-2.48-6.08,67.41,67.41,0,0,0-3.77-5.84,88.57,88.57,0,0,0-7.39-8.95l-1.13-1.19a29.56,29.56,0,0,1-4.89-6.16c-.78-1.49-1.48-3.16-2.23-4.89a64.87,64.87,0,0,0-2.78-6,78.75,78.75,0,0,0-10.86-15.08l-.84-1a45.17,45.17,0,0,0-4-4.21c-.31-.26-.61-.53-.93-.79a10.78,10.78,0,0,1-2.12-2.09,12.06,12.06,0,0,1-1.31-3.55,24.69,24.69,0,0,0-3.13-7.15,20.34,20.34,0,0,1-1.91-4.62c-.37-1.14-.78-2.35-1.26-3.5-1-2.22-1.72-3.89-2.43-5.37l-.07-.15a8.55,8.55,0,0,0-.44-1c10.76-13.44,14.56-24,11.62-31.91a13.69,13.69,0,0,0-3-4.71c-4.31-7.72-14.77-8.41-15.33-8.43-.28,0-.57,0-.88,0-6.35,0-12.6,2.17-18.69,5.92a45,45,0,0,0-3.77-3.4,32.14,32.14,0,0,0-8.11-4.78c-2.84-1.09-7.7-3.27-9.52-4.75-.31-.25-7.45-6-15.62-7.06,1.26,4.13,1.28,9.85-.32,15.9-2.8,10.71-9.44,18.24-14.82,16.82s-7.47-11.23-4.67-21.93,9.45-18.24,14.84-16.82a5.82,5.82,0,0,1,2.91,2A95.5,95.5,0,0,0,525,262c-5.35-17.13-18.71-38.42-51.92-42.58a50.07,50.07,0,0,0-8.29-.61c-12.58,0-41.88,4-58.49,38.42l-.48,1.09c-10.57-3.34-19.89-3-29,3.72-8.32,6.11-12.16,15.74-11.49,28-.24.06-.48.11-.71.18a20.94,20.94,0,0,1-4.41.63c-2.73.22-5.82.47-8.9,2.22-.56.32-1.12.66-1.66,1-2,1.21-3.64,2.1-5,2-.5-.05-1-.15-1.62-.28-.81-.15-1.61-.31-2.43-.38a38.79,38.79,0,0,0-14,1.09,38.18,38.18,0,0,0-4.65,1.76c-2.76,1.19-5.24,2.24-7.42,1.48l-.73-.25a25.74,25.74,0,0,0-6.22-1.54,27.54,27.54,0,0,0-7.86.83,34.48,34.48,0,0,1-3.56.61c-5,.47-12.53,2.68-17.19,7.35-1.17,1.18-3.88,1.22-6.53,1.25a31.56,31.56,0,0,0-4.4.25,20.71,20.71,0,0,0-6,2.13,19.31,19.31,0,0,1-3.85,1.52,17.89,17.89,0,0,1-5.27,0,27.4,27.4,0,0,0-5.81-.14,64.18,64.18,0,0,0-11.82,2.89l-.6.19-2.7.82c-6.8,2-14.52,4.32-20.11,9.14-1.17.68-11.72,6.75-19,7.94a31.59,31.59,0,0,0-5,1.37,27,27,0,0,1-4.13,1.14c-2.69.41-5.49.61-8.21.8s-6,.43-9.16.93a62.12,62.12,0,0,0-7.85,2c-3.45,1-6.69,2-9.94,2a13.92,13.92,0,0,1-1.68-.09c-2.72-.23-5.51-.49-8.39-.49a34,34,0,0,0-8.29.92,15.49,15.49,0,0,0-7.17,3.46,8.63,8.63,0,0,0-1.61,2,7.73,7.73,0,0,0-.79,5.53,11.4,11.4,0,0,0-4.64,4.45l-.16.32a10.26,10.26,0,0,0-.69,1.76,8.39,8.39,0,0,0,0,4.25,7.76,7.76,0,0,0,1.57,2.89,4.79,4.79,0,0,0-.56.54,10.51,10.51,0,0,0-2.71,9.34,12.27,12.27,0,0,0,2,4.8,12.56,12.56,0,0,0,8.36,5.22,30,30,0,0,0,4.07.43l-.28.37-.24.35a11.24,11.24,0,0,0,.61,12.52,12.72,12.72,0,0,0,10.48,4.83,23.85,23.85,0,0,0,9.24-2.12c1.34-.57,2.71-1.1,4.07-1.63l.47-.17a68.24,68.24,0,0,0,9.35-4.12,21.25,21.25,0,0,1,9.38-3,22.93,22.93,0,0,0,5-1.11c.92-.28,1.86-.55,2.71-.73-.54.64-1.15,1.25-1.78,1.89s-1.26,1.26-1.83,1.92a19.81,19.81,0,0,0-3.29,5.35c-1.29,3.13-2.46,6.55-2.1,10.32a10.25,10.25,0,0,0,2.79,6.22,14.12,14.12,0,0,0,10,4.28q5.83,0,11.14-4.89c.88-.65,1.73-1.34,2.59-2,2-1.63,4-3.35,6.17-5.27,2.9-2.58,5.76-5.26,8.51-8,3.64-3.58,6.83-7,9.75-10.44,2.14-2.51,4.15-5.16,6.07-7.72,1.18-1.55,2.33-3.1,3.54-4.62.1-.14.29-.28.76-.28a8,8,0,0,1,2.2.52,10,10,0,0,0,1,.31q2.4.63,4.86,1.16c2,.43,3.88.76,5.73,1a36.51,36.51,0,0,0,8,.39,29.43,29.43,0,0,0,4.7-.83c.83-.2,1.68-.44,2.52-.68a45.7,45.7,0,0,1,5.29-1.26,15.3,15.3,0,0,1,3.79-.19,19.79,19.79,0,0,1,2.16.34c.59.11,1.18.23,1.79.3,1.21.16,2.44.32,3.66.46,4.63.57,8.71,1,12.47,1.24,2.63.19,5.88.11,9,0A82.86,82.86,0,0,1,308,381c1.37.13,2.75.26,4.12.34s3,.07,4.41.18a19.05,19.05,0,0,0,2.93.09c4.24-.24,8.09.53,12.22,1.36,1.3.27,2.64.53,4,.77a56.69,56.69,0,0,0,11.12.82l2,0a17.82,17.82,0,0,1,5.77.74,14.14,14.14,0,0,1,4.48,3,29.06,29.06,0,0,0,2.51,2,35.64,35.64,0,0,0,4,2.25c2.45,1.23,5,2.51,6.44,4.49,2,2.68,3,6.06,4,9.33l.25.78a26.11,26.11,0,0,1,1.25,6.22,25.75,25.75,0,0,0,.65,4.15,40.21,40.21,0,0,0,4,10.44,111.61,111.61,0,0,0,6.13,9.72c1.45,2.14,2.95,4.35,4.32,6.59,3.49,5.73,6.62,11.82,3.34,17.53a37.1,37.1,0,0,1-3.66,5,36.39,36.39,0,0,0-3.84,5.2,52.67,52.67,0,0,0-3.94,9.5A45.09,45.09,0,0,1,380,491.66c-.77,1.18-1.67,2.32-2.61,3.51a35.53,35.53,0,0,0-4,5.8c-.69,1.4-1.39,2.94-2.23,5-6.58,16.09-7.37,32.2-2.19,45.36,5.64,14.37,19.56,25.15,35.48,27.49a42.36,42.36,0,0,0,23.15-2.52c1.66-.69,3.31-1.53,4.88-2.36a36.59,36.59,0,0,1,8.35-3.46,115.19,115.19,0,0,0,12.1-3.42c2.17-.74,4.26-1.63,6.33-2.54a98,98,0,0,1,10.5-3.62c2.27-.7,4.63-1.42,6.93-2.24a31.11,31.11,0,0,0,6.51-3c.4-.27.81-.6,1.22-.93a4.9,4.9,0,0,1,2.51-1.4,2.29,2.29,0,0,1,2.11,1.16c3.64,5.43,6.86,9.87,10.18,13.93a40.18,40.18,0,0,1,8.4,16.48c2.83,11.57,8.49,21.32,16.34,28.16.7.61,1.4,1.21,2.12,1.8a51.06,51.06,0,0,1,7.16,6.94,65.77,65.77,0,0,1,4.19,6.27c1.18,1.92,2.43,3.93,3.83,5.79,5.2,7,10.11,11.72,15.48,15.05a41.29,41.29,0,0,0,4.1,2.26,30.28,30.28,0,0,0,12.85,2.82h.13a31.5,31.5,0,0,0,3.49-.18A45.39,45.39,0,0,0,596,647.4a42.76,42.76,0,0,0,9.35-7.26c.79-.83,1.57-1.75,2.35-2.68,3-3.57,6.15-7.28,10.8-7.28a2.92,2.92,0,0,1,2,.65c.1.09,11.14,9.22,22.52,9.22a16.58,16.58,0,0,0,11.48-4.44C661.31,629.31,664.6,621.3,664,612.47ZM634.82,440.6a20.32,20.32,0,0,1,4.8.4,2,2,0,0,1,1.28.6,1.74,1.74,0,0,1,.22,1.06,3.64,3.64,0,0,0,.19.79c.5,2,2.25,3.69,2.33,5.85a2,2,0,0,1-.8,1.68c-.86.59-2.17-.16-2.94-.54a12.94,12.94,0,0,1-4.3-3.28c-.5-.63-.57-1.47-1-2.14a13.79,13.79,0,0,0-4.68-4.13C631.54,440.74,633.17,440.65,634.82,440.6Zm-9-18.33a3.6,3.6,0,0,1,.78,1,7.5,7.5,0,0,0,1.2,1.19,45,45,0,0,1,3.28,3.2c1.48,1.27,1.6,2.42,0,2.53s-2.64-.68-2.76-2.06a2.44,2.44,0,0,0-.5-1.52c-.4-.44-1-.63-1.44-1.05a3.22,3.22,0,0,1-.68-1.1,5.54,5.54,0,0,1-.46-1.6C625.28,422.52,625.4,422,625.8,422.27Zm1.09,47.7a30.74,30.74,0,0,1,9.61-3.41c.27-.05,4.89-.52,4.89-.45.63-8-7.24-13.14-8.17-13.71a6.69,6.69,0,0,0,1.48.09l1.56.15c1,.11,1.89.24,2.83.42a22.87,22.87,0,0,1,4.44,1.31c3,1.26,5.82,3.53,6.45,6.9a7.61,7.61,0,0,1,0,3.08,15.88,15.88,0,0,0-.53,6,11.54,11.54,0,0,1-1.11,6.79c-.88,1.8-2.62,2.81-3.57,4.52-.75,1.32-1,2.79-2,4a20.64,20.64,0,0,1-8.3,5.2c9.92,3.05-6.88,13.92-6.88,13.92a3.14,3.14,0,0,0,.59.1c.9.21,2.2.63,1.95,1.83s-1.55,2.14-2.4,2.8a39.2,39.2,0,0,1-4.28,2.9,28.11,28.11,0,0,1-6.55,3.23,4.87,4.87,0,0,0-2.62,1.6c-.43.6-.91,1.18-1.36,1.75a13.52,13.52,0,0,1-1.42,1.69c-.68.6-1.36.54-2.18.77a7.8,7.8,0,0,0-3.14,1.81,19.16,19.16,0,0,1-2.53,1.84,38.93,38.93,0,0,1-5.17,2.58c-1.94.82-3.94,1.4-5.91,2.07a26.46,26.46,0,0,0-4.24,1.83c-1.4.82-2.58,2-3.88,2.9s-2.33,1.72-3.51,2.52a121,121,0,0,1-12.92,7.34c-2.3,1.17-4.61,2.34-6.94,3.4-8.88,3.65-21.77,8.94-40,4.09a13.1,13.1,0,0,1-3.32-1.67c-.72-.54-.89-1.34-.15-1.9a5.84,5.84,0,0,1,2.73-.75,30.38,30.38,0,0,1,3-.47,8.8,8.8,0,0,0,2.4-.27c2.47-.91,1-1.24,1-1.24-1.85-.53-8.64,0-8.64,0-.92,0-1.84,0-2.77-.07-.68,0-.93-.06-1.34-.61s-1.4-.57-2.11-.7a7.08,7.08,0,0,1-2.25-1,7.17,7.17,0,0,1-3.2-4.58,7.73,7.73,0,0,0,3.18,1.06,13.78,13.78,0,0,0,5,0,21.29,21.29,0,0,1,5.09-.5,40.86,40.86,0,0,0,4.1.12c5.27-.62,6.19-1.83,6.19-1.83a35.19,35.19,0,0,1-4.91-.48c-.46-.09-.91-.18-1.37-.31a20.74,20.74,0,0,0-2.38-.9c-1.36-.25-2.72,0-4.1-.31-3-.67-6-.93-8.95-1.82l-.25-.09c0-.11-.14-.17-.28-.26s-5.54-2.3-5.09-8.15a7.42,7.42,0,0,1,.3-1.59,5.53,5.53,0,0,1,1.66,2.26,6.07,6.07,0,0,0,2.37,2.64,5.32,5.32,0,0,0,3.34.46,11.94,11.94,0,0,1,3.53.34c3.1.65,6.25,1.61,9.45.7a16,16,0,0,1,5.26-.1c.61.06,1.19.21,1.8.23,1.2.07,3.44,0,3.79-1.49a1.69,1.69,0,0,0-1.11-1.73,9.22,9.22,0,0,0-4-.24,6.78,6.78,0,0,1-2-.21c-1.18-.3-2.28-.84-3.46-1.12s-2.42-.33-3.59-.51c-.58-.08-1.17-.15-1.74-.26-2.76-.43-5.49-1-8.21-1.66A65.88,65.88,0,0,1,503.6,521c-2.66-1-5.21-2.6-6.1-5.46a8,8,0,0,1,1-6.51,2.66,2.66,0,0,1,.55-.56s-1.44,4.89,1.24,7.44a7.5,7.5,0,0,0,1.35,1.09,17.53,17.53,0,0,0,6.27,1.88c4.59.71,10.64,2,15.12.28,4.19-1.57,8.8-1,13.16-1.13,9-.32,19.44-3.54,19.44-3.54,2.34-.73,4.67-1.59,7-2.36a54.79,54.79,0,0,1,6.42-2,54.37,54.37,0,0,1,5.72-.32,27.79,27.79,0,0,0,7.88-1.74c1.8-.71,2.82-2.85,4.28-4a10.37,10.37,0,0,1,4.43-2.22c1.42-.24,2.76.48,4.18.48,2.77,0,4.85-2.37,7.58-2.61a6.06,6.06,0,0,1,2.32.22,3.53,3.53,0,0,0,.75.38c-2.13.67-3.8,5.87-3.8,5.87s3.09,0,3.42,0a8.35,8.35,0,0,0,2.14-.49c1.56-.64,1.55-2.05,1.09-3.52a10.78,10.78,0,0,1-.77-2.58,5.62,5.62,0,0,1,.69-3.17,6.15,6.15,0,0,1,4.75-2.87c2.1-.24,4.39-.07,6-1.68,1.31-1.29,1-2.8,1.1-4.46a6.57,6.57,0,0,1,1.56-4.4c1.8-1.81,4.91-2.34,7.32-2.36.32,0,4.25.06,4.3.43-.63-4.08-5.34-5.58-8.73-6.37-.78-.19-2-.51-2-1.54C623.37,471.55,625.75,470.57,626.89,470ZM536.1,504.54a18.46,18.46,0,0,1-4.29-1,11.72,11.72,0,0,1-5.11-3.17l-.26-.27a13.49,13.49,0,0,0-4.6-2.84c-.45-.19-.9-.41-1.37-.65a7,7,0,0,1-3.77-4.5c0-.16-.06-.35-.08-.52,1.83-2.12,12.09,4.31,13.9,4.75,1.09.25,2.21.48,3.31.76a38.4,38.4,0,0,1,7.07,2.37,10.4,10.4,0,0,1,2.69,1.9,3.32,3.32,0,0,1,1.23,3.11,2.84,2.84,0,0,1-.82,1.43,12.19,12.19,0,0,1-4,2.61,22.9,22.9,0,0,1-8.28,1.5c.4,0,.81-.09,1.19-.16a5.43,5.43,0,0,0,2.75-1.64c.7-.63,1.51-1.09,2.16-1.78a1,1,0,0,0,.28-.44s0,0,0-.07C538.13,505.52,537.82,505,536.1,504.54Zm33.57-57.07s0-15.74,8.14-19.58c0,0-12,25.65,4.13,43.49,0,0-.32-.2-.8-.56h0c-1.33,1.29-7,6.9-7.7,7.87-5.36-9.61-4.68-12.75-4.62-12.81a43.63,43.63,0,0,0,4.82-3.35A26.69,26.69,0,0,1,569.67,447.47Zm17.58,49.6,11.62-9.17S594.44,494.64,587.25,497.07ZM609,399.22c1.6-8.23,7.83,9.9,7.83,9.9.71,3.39,4.09,5.37,5.77,8.22,1.27,2.15,0,2.33-1.82,1.76a22.58,22.58,0,0,1-8.06-4.93c-2.08-1.88-3.79-4.15-6.42-5.31s-5.67-1.59-8.3-2.91c-.94-.47-2.46-1-1.12-2C600.21,401.73,608,404.42,609,399.22ZM594.48,377.7c0,2.48,1.68,4.62,3.54,6.11.67.54,1.49.95,2.11,1.53,1,.94,1.34,2.38,2.14,3.48,1.5,2,4.73,2.61,5.74,4.94s-4.86,0-5.69-.39c-2.27-1.06-4.45-2.43-6.93-2.94-3.89-.8-.8-.69-1.95-3.44s-7.1-6-7.1-6c-1.89-.56-1.59-1.44-.16-2.33a31.41,31.41,0,0,0,4.74-3.64c.66-.59,1.4-1,2.22-.52S594.36,376.75,594.48,377.7ZM604,324a12.61,12.61,0,0,1,.89,1.89c2.82,7.51-.92,17.53-11.23,30.5l-.49-1.08c-.21-.54-.46-1.14-.75-1.75C602.24,341.2,606.05,331.43,604,324Zm-15.52,24.11c-.38-.37-.73-.73-1.2-1.15a10.53,10.53,0,0,1-1.38-1.4,27.75,27.75,0,0,1-2.29-3.82c-.37-.74-.76-1.47-1.22-2.31l-.13-.22c-.19-.35-.4-.7-.62-1.05-.11-.18-.22-.35-.32-.54-.43-.71-.8-1.44-1.23-2.28s-.74-1.41-1.14-2.11c-1.12-2-2.22-3.8-3.38-5.52-.26-.4-.54-.77-.81-1.16a28.54,28.54,0,0,1,13.39-3.7h.68c.08,0,6.41.07,9.19,3.76C598.48,330.26,596.94,336.7,588.51,348.08Zm-2-29.29.73,0c.08,0,8.19.05,10.37,5.95-3.33-3-8.62-3.39-8.71-3.39h-.72A29.34,29.34,0,0,0,574,325.41c-.61-.83-1.22-1.63-1.85-2.41A29.27,29.27,0,0,1,586.49,318.79Zm-19.67,7.71c.65.75,1.29,1.52,1.9,2.3C544.18,346.86,522,393.94,509,426h-2.39C519.28,394.18,541.86,345.26,566.82,326.5ZM521.5,289.9s-12.54,1.64-15.74,22c0,0-3.22,20.52,7.1,21.78a49.81,49.81,0,0,1-6.32,7.18c-3.81,4.44-15,11.08-19.27,13.18a57.22,57.22,0,0,1-13.49,4.5c-1.27.26-2.53.46-3.81.63a39.34,39.34,0,0,1,0,4.34c-.07,1.61-.23,3.22-.45,4.81a48.53,48.53,0,0,1-2.24,9.34,48.58,48.58,0,0,0,1.32-9.42c.07-1.57.06-3.16,0-4.73a39.83,39.83,0,0,0-.41-4.13c-1.36.15-2.7.26-4.08.32a28.61,28.61,0,0,1-1.71,11.19c.36-2.72,1.18-8.47,0-11.14a72.74,72.74,0,0,1-16.55-1.63,67.76,67.76,0,0,0,27.48-1.5,55.78,55.78,0,0,0,12.59-5.2c1.42-.81,2.84-1.6,4.18-2.52.28-.19,3.71-2.62,3.64-2.66-1.23-.72-2.43-1.72-3.8-.67a42.87,42.87,0,0,1-11.4,6.64,53.85,53.85,0,0,1-12.79,3.41,63.59,63.59,0,0,1-25.88-2,62.6,62.6,0,0,0,25.57.19c1.46-.32,2.89-.69,4.31-1.12a31.81,31.81,0,0,0,9.92-4.94c4-3,6.83-7.61,9.26-11.91a68.22,68.22,0,0,0,4.59-10.2,60.27,60.27,0,0,0,2.91-14.08c1.65-19.46-12.93-22.25-11.38-22.53,0,0,17.57-3.91,19.94,14.94a148.25,148.25,0,0,0-.93-34.28c-5.55-38-34.31-44.26-34.31-44.26S519.67,222.93,521.5,289.9Zm-66.1,2.15c1.77.13,3.51.28,5.24.39s3.45.24,5.16.2a46.73,46.73,0,0,0,5.16-.06c1.72-.1,3.43-.3,5.19-.53l0,.1a32.36,32.36,0,0,1-10.39,1.41,46.69,46.69,0,0,1-10.41-1.41Zm-41.73-9,0,0v.05A20.54,20.54,0,0,1,415.9,285a48.2,48.2,0,0,0,13,9.43c7.15,3.46,14.79,5.13,22.67,6a113.72,113.72,0,0,0,26.91.19s17.21-2.2,13.74,13.17a70.41,70.41,0,0,1-4.81,14.49c-6.86,14.52-21.95,22.91-38.14,21.87a52.92,52.92,0,0,1-30-10.59h0l0,0-.06-.1a42.1,42.1,0,0,1-6.65-6.09,44.42,44.42,0,0,1-6.22-9.26c-5.36-10.6-8.6-26.94-3.43-38.11a16.05,16.05,0,0,1,1.83-3C407.39,279.69,410.85,280.92,413.67,283.05Zm-33.05-15.84c6.8-5,14.09-5.79,22.66-2.95-.3.78-.61,1.56-.91,2.37-.19.59-.4.79-1.93,1.75l-.79.51c-3.94,2.59-6.43,7.34-7.59,14.54a9.06,9.06,0,0,1-.28,1.24,2.79,2.79,0,0,1-.63,1.24s-.08.09-.4.1a120.36,120.36,0,0,0-15.26,1.67c.21,7.6,2.52,15.66,5.25,22.62,1.79,4.57,3.87,9.11,5.66,12.94,2.3,4.91,4.82,9.8,7.52,14.53,3.94,6.94,8.36,13.81,12.63,20.45,4.12,6.38,8.35,13,12.2,19.69,8.17,14.16,15.06,27.16,20.92,39.44.7-.34,1.4-.66,2.09-1a48.13,48.13,0,0,1,11-4.82,46,46,0,0,1,12.2-1.38,30.37,30.37,0,0,1,8.82,1.05c2,.67,3.41-.7,4.46-2.28a32.36,32.36,0,0,0,3.24-6.37c1.55-4,2.64-8.14,4.34-12.07,1.15-2.65,2.26-5.26,3.49-7.87a130,130,0,0,1,9-16.33,64.61,64.61,0,0,1,9.84-11.56c1.05-1,2.13-2,3.2-3,2.23-2.13,4.4-4.34,6.44-6.68a92.72,92.72,0,0,0,7.92-10.11A54.9,54.9,0,0,0,532,322.79a41.48,41.48,0,0,0,2.69-12.7,17.59,17.59,0,0,0,0-1.87,4.87,4.87,0,0,1,2.13-.15c2.8.31,4.57,2.23,6.71,3.8a10.84,10.84,0,0,0,5.07,1.72,19.43,19.43,0,0,1,5.62,2.52,44.41,44.41,0,0,1,5,3.3c1.11.82,2.17,1.7,3.19,2.62-27.14,21.13-50.39,72.11-62.95,104H441.26a9.24,9.24,0,0,0-1.67.22c-6.63-14.71-14.69-30.33-24.7-47.71-3.87-6.72-8.11-13.32-12.21-19.7C398.4,352.2,394,345.33,390,338.4c-2.69-4.74-5.22-9.62-7.52-14.54-1.79-3.83-3.87-8.37-5.66-12.94C371.16,296.42,367.19,277.07,380.62,267.21Zm92.17,168.9a5.91,5.91,0,0,1-5.9,5.85,5.84,5.84,0,0,1-5.76-5.84,5.24,5.24,0,0,1,.15-1.37h11.34A5.17,5.17,0,0,1,472.79,436.11Zm-348.4-85.27a4.17,4.17,0,0,1,.28-.45h0c-.3.52,2.54,1.07,4.6,1.38s9.89-.55,9.89-.55a9.31,9.31,0,0,1,3.44,0c3.26.82-1.94,1.16-1.94,1.16-9.24,1.43-11.41,1.21-11.54,1.2A21.54,21.54,0,0,1,126,353a2.8,2.8,0,0,1-1.56-1.14A1.29,1.29,0,0,1,124.39,350.84Zm-5.67,8.77a5.69,5.69,0,0,1,.4-1h0c-.43,1.19,3.59,2.46,6.54,3.17s14-1.27,14-1.27c3.56-.68,4.87,0,4.87,0,4.65,1.89-2.74,2.65-2.74,2.65-13.14,3.26-16.21,2.77-16.4,2.75a18.94,18.94,0,0,1-4.52-1.34,4.23,4.23,0,0,1-2.22-4.94Zm6.07,20.15a12.05,12.05,0,0,1-4.63-.44,5.1,5.1,0,0,1-3-4.24,5.83,5.83,0,0,0,2.83,1.64,7.59,7.59,0,0,0,4.54-1,18.07,18.07,0,0,1,6.37-1.87c.72-.05,1.43-.11,2.16-.1a33.13,33.13,0,0,0,3.59.12,12.54,12.54,0,0,0,3.45-.95c1.35-.59,2.8-.79,4.16-1.27a11.55,11.55,0,0,0,3.51-2.24c3.51-2.53,4.8,0,4.8,0,1.62,2.13-5.49,5.73-5.49,5.73a32.18,32.18,0,0,1-5.34,2.05c-1.24.38-2.5.88-3.78,1.24a10.92,10.92,0,0,1-2.72.47,45.54,45.54,0,0,0-5.09.08C128.33,379.23,126.59,379.64,124.79,379.76Zm53.45,3.67c-2.21.37-4.29,1.07-6.53,1.24a31,31,0,0,0-11.39,2.92c-3,1.41-6,3-9,4.52-.69.35-1.36.73-2.06,1.08s-1.23.85-1.85,1.26-1.25.83-1.89,1.22a32.62,32.62,0,0,1-4,2.2c-2.44,1.09-5.32,1.78-7.94.91a6.47,6.47,0,0,1-4.13-4.83,6.74,6.74,0,0,1,.28-3.67,6.57,6.57,0,0,1,.68-1.35,3.06,3.06,0,0,0,.19-.29c-.23,2.68,2.57,4.53,4.8,5.26a8.3,8.3,0,0,0,7.54-1.17c1.82-1.32,3-3.08,4.57-4.6,3.63-3.47,9-4.08,12.94-7,2.91-2.16,6.89-4.5,10.58-4.88,4-.42,17.94-6.48,17.94-6.48,2.7-1.25,3.27-.91,1.89,1.39s-3.77,12.26-3.77,12.26C186.62,385.51,179.76,383.17,178.24,383.43Zm45.25-11.74a7.29,7.29,0,0,1-1.47,3.07c-.84,1.12-2,2-2.81,3.15-.5.69-1,1.33-1.57,2l-2.16,2.72c-.88,1.11-1.76,2.21-2.66,3.31l-3,3.67c-1.06,1.29-2.14,2.57-3.22,3.84s-2.17,2.54-3.29,3.8-2.13,2.39-3.22,3.56-2,2.11-3,3.13c-.85.84-1.72,1.68-2.64,2.46-.2.16-.38.33-.59.49,0,0-9.32,10.39-16.36,5.5,0,0-4.45-3.35-1.21-3.36,0,0,11.69,2.75,25.92-18.35l14-19a20.27,20.27,0,0,1,1.56-2.15c.87-.92,2.3-1.92,3.64-1.46a3.82,3.82,0,0,1,2.14,2.16A3,3,0,0,1,223.49,371.69Zm173.58,53.17a51.36,51.36,0,0,1-3.72-6.09,24.36,24.36,0,0,1-2.72-6.53c-.61-2.85-1-6.08-2.8-8.48-2-2.63-4.72-5.93-4.85-9.43-.18-3.87-3.76-5.73-6.43-7.91a47.84,47.84,0,0,1-7.73-7.72,13.83,13.83,0,0,1-2.67-5.16s-6,3.21-11.94.46c0,0,4-2.61,5.06-6.89,0,0-9.47,7-20.48,6,0,0,7.48-4.59,8.41-8.85.19-1-.57-1.22-1.4-1.37-3.11-.51-13.71,8.19-17.95,7.73.94-.16,3.79-2.94,2.74-3.53a5.5,5.5,0,0,0-2.85-.18,21,21,0,0,0-3.2.53c-1.09.28-2.36.57-3,1.57,0,0-3.34,5.51-12.63,4.36a14.59,14.59,0,0,0,3-1.8c1-.78,3.74-3,2.77-4.53s-2.77-.35-3.81.25-2,1.08-3.06,1.54a31.24,31.24,0,0,1-9.89,2.71,29.87,29.87,0,0,1-3.41.09c-.59-.05-1.17-.08-1.74-.15a6.32,6.32,0,0,0-1.74-.28,17.78,17.78,0,0,0,3.33-1.17,11.41,11.41,0,0,0,3.62-2.33c1-1.12,1.31-2.74-.5-3.16-1.32-.28-2.4.64-3.52,1.25s-2.35,1.19-3.56,1.75a28.24,28.24,0,0,1-9,2.56,9.91,9.91,0,0,1-4.7-.63,13.2,13.2,0,0,0,4.71-3.17,2.74,2.74,0,0,0,.87-2.38c-.27-.9-1.42-1-2.24-1-3,0-5.38,1.87-7.76,3.51a32.45,32.45,0,0,1-4.58,2.57,47.37,47.37,0,0,1-15,4.23,37.09,37.09,0,0,1-11.52-.51s-7.68-1.38-11-2.86a37.25,37.25,0,0,0,9.85-.74s-7.34-.51-9.51-4.64a24.28,24.28,0,0,0,1.7-10.37,27.53,27.53,0,0,0-1.8-7.28,20,20,0,0,0-4.42-6.71,16.57,16.57,0,0,0-7-4.06,23.6,23.6,0,0,0-8.21-.84c20.33-4.05,31.89,12,33.76,18.47,2.18.12,4,.06,4.73-.34A15.52,15.52,0,0,1,235,356.72s11.21,4.82,18.32,1.94c0,0-2.06,3.34-4.24,3.34a34.73,34.73,0,0,0,11.37.42c.76-.07,1.87-.09,2.41-.68s.22-1.19.21-1.82a3,3,0,0,1,.43-1.63c1.14-2,3.27-1,5-1.63s2-1.91,2.51-3.42c1.24-3.34,3.58-7.9,1.47-11.38.59.8,10.82,14.69,19.71,12.56a12.26,12.26,0,0,0,6.12-3.5c1.8-2,1.78-4.21,2.31-6.68a6.06,6.06,0,0,1,2-3.54,10.69,10.69,0,0,1,5.59-2.27,13.18,13.18,0,0,1,3.32-.1,7.55,7.55,0,0,0,6-2.2,11.75,11.75,0,0,0,3.11-6.79,22.72,22.72,0,0,0-.07-6.79,58.55,58.55,0,0,1,3.29,5.68c2.27,4.33,4.42,8.84,5.26,13.68.19,1,.24,2.27,1.15,2.9,3.22,2.14,6.69-4.64,8.83-6.09a8.32,8.32,0,0,1,2.11-1.05,8.53,8.53,0,0,1,2.37-.22s-1.83,9.49,2.75,11.93c0,0,2.6-15,8.87-16.52,0,0-.93,11.32,3.65,14.85,2.89,2.18,6-.17,7.8-2.48.62-.79,2.57-2.4,3.67-2.4,2.8.05,2.88,3.81,2.89,5.78a40.7,40.7,0,0,1-.72,7s5,3.21,4,8.4a9.28,9.28,0,0,1,3.52,7.5s2.19.74,2.34.81a9,9,0,0,1,3.91,3,27.6,27.6,0,0,0,1.77,3.08c2.37,2.75,5.84,4.11,8.38,6.63,1.46,1.44,2.92,2.86,4.3,4.37s2.58,3,3.77,4.56c-4.25-14.27-8-18-15.74-26,0,0,9.55,2.3,17.34,13.61,0,0,9.6,16.28,20.78,32.49,2.54,5.12,4.88,10.08,7.07,14.95-.21.19-.47.36-.65.56-2.31,2.54-4.12,5.38-4.51,8.82a4.84,4.84,0,0,1,4.67-3.69h1.7a11.29,11.29,0,0,0-5.09,2.43,11.25,11.25,0,0,0,8.6,19.76,11.27,11.27,0,0,0,1-22.19h19.34a7,7,0,0,0-.15,1.37,7.43,7.43,0,0,0,2.6,5.58A7.15,7.15,0,0,0,473,436.12a6.44,6.44,0,0,0-.14-1.37h3.54c-.3,6.77-.47,13.53-.61,20.29l-.09,3.35a3.93,3.93,0,0,1-.91,2.41,3.8,3.8,0,0,1-2.21,1.29,31.22,31.22,0,0,1-3.13,0L456.14,462c-8.91.09-17.81.09-26.71.27l-13.35.34c-2,.05-4.16.22-6.13.19a29.17,29.17,0,0,0,2.6-5.44c1.71-4.79,2.18-10.28-.28-14.91-.13-.24-.28-.47-.42-.71a5.37,5.37,0,0,0,1.06,0,5.68,5.68,0,0,0,0-11.26,5.59,5.59,0,0,0-6.27,5.27c-.72-.68-1.44-1.35-2.15-2-.89-.9-1.81-1.78-2.72-2.68C400.07,429.07,398.57,427,397.07,424.86Zm41.49,11.5a9.44,9.44,0,0,1,9.49,9.39,9.51,9.51,0,0,1-2.81,6.69,9.38,9.38,0,0,1-16-6.68,9.27,9.27,0,0,1,2.7-6.62A9.38,9.38,0,0,1,438.56,436.36Zm-30.35-.24a4.73,4.73,0,0,1,4.7-4.76,4.75,4.75,0,1,1,0,9.5,4.34,4.34,0,0,1-2-.43,24.76,24.76,0,0,0-2.55-2.95A4.19,4.19,0,0,1,408.21,436.12ZM653.1,628.4c-2.53,2.94-5.4,6.34-9.51,6.09-9-.6-19.44-11.38-20.18-12a3.61,3.61,0,0,1-.22-4.58s2-4.12,3.67-5.41c0,0-1.9.28-7.1,3.93,0,0-2.78,1.92-3.84,1.85.41-.91,1.83-4,2.15-5a16.21,16.21,0,0,0,.9-4.48c-.27,1.49-8.94,17-15.06,18.35.67-1.81,2.56-9.67,1.12-13.79a23.84,23.84,0,0,1-1.32,8.29,49.67,49.67,0,0,1-3.27,7.67c-1.72,2.37-4.74,5.94-7.15,6.19a13.46,13.46,0,0,0,.84-3.07,15.21,15.21,0,0,1-1.92,3.33,16.29,16.29,0,0,1-4.38,3.93,41,41,0,0,1-5.07,2.8,25.36,25.36,0,0,1-6.12,1.77A18.6,18.6,0,0,1,562.83,641a3.72,3.72,0,0,0-.81-.59s7.34,1.38,11.92-3c0,0,5.51-3.89,4.36-10.09a6.58,6.58,0,0,1,.63-3c.63-1.59,1.63-2.83,1.34-4.61-.56-3.27-4.87-2.39-7.21-2.39-4.1,0-8.54-.19-12.42-1.7-3.61-1.41-7.16-3.14-11.12-3.87a12,12,0,0,0-2.86-.26c.28,0,.9-.61,1.14-.78,1-.63,2.1-1.21,3.2-1.74a30.14,30.14,0,0,1,5.47-2c-5.85-6.43-1.12-13.08-.74-13.59-1.4,5.76,2.63,10.33,5.42,12.71.26,0,.52-.1.78-.11a13.89,13.89,0,0,1,3.81.16c.53.07,2.24.48,2.45-.33a1.34,1.34,0,0,0-.3-1.26c-.68-.88-1.87-1.18-2.51-2.09a23.14,23.14,0,0,1-1.75-4,86.82,86.82,0,0,1-3.76-10.61c-.85-3.11-1-6.34-2.68-9.18-.12-.2-.25-.39-.37-.58-1.6,4-2.87,8.42-2.15,11.4a17.52,17.52,0,0,0-1.12-3.19,9.84,9.84,0,0,0-4.36-4.69c-1.75-.8-3.69-.51-5.55-.59-11.62-.48-16.29-3-16.48-3,0,0,14.34,1.09,20-1.83a43,43,0,0,0,5.81-2.71,18.33,18.33,0,0,0-2.52-1.91,35.15,35.15,0,0,0-9.07-3.44A120.2,120.2,0,0,1,526,562.91a116,116,0,0,1-14.7-7.38A81.08,81.08,0,0,1,497,544.75a57,57,0,0,1-11.19-14.7,9.08,9.08,0,0,1-1-2s-2.74,4.34,1.38,15.13a86.65,86.65,0,0,1-13.85,7.43,43.32,43.32,0,0,1-6.38,1.66c-3.44.94-5.92,3.85-9.39,4.85-3.19.92-6.4,1.79-9.67,2.49-2.64.56-5.26.95-7.86,1.74s-5,1.56-7.46,2.54a44.28,44.28,0,0,0-4.18,1.85s-25.24,14.68-41.28-8.57c0,0,13,4.76,23.69.32,0,0,11.22-4.17,17.81-3.34a22.11,22.11,0,0,0,3.47.44,12.14,12.14,0,0,0,3.41-.28,11.72,11.72,0,0,1-3.3-.5,19.43,19.43,0,0,1-3.08-1.12c-2.48-1.17-5.06-1.9-7.23-3.55a19.08,19.08,0,0,1-5.15-6.22,36.79,36.79,0,0,0-6.94-9.16,38.49,38.49,0,0,0-8.17-5.89,41.61,41.61,0,0,0-11.74-4.15,56.37,56.37,0,0,0-15.83-.64c-.19,0-2.17.16-2.17.18s7.73-14,35.87-2c0,0,16.81,8.26,22.62,19.58,4-.62,8.59-.82,12.48.37,1.48.45,2.9,1.58,4.5,1.64,2.7.09,5.59-1.64,7.88-2.88,1.69-1,3.9-2.49,4-4.63.09-1.44-1.21-2.62-2.28-3.38-1.57-1.12-3.27-3.47-2.39-5.48a2.43,2.43,0,0,0-.85-3.16,24.1,24.1,0,0,0-3.21-2.57A46.66,46.66,0,0,0,436.17,515c-4.7-1.18-11.67-1.82-14.06-6.79a5.81,5.81,0,0,1-.14-4.32c0,.47,2.21,2.1,2.47,2.28a12.93,12.93,0,0,0,6.75,2.69c3.23.31,6.44.05,9.66.5a28.62,28.62,0,0,1,8.41,2.26,12,12,0,0,1,3.75,2.62,27.24,27.24,0,0,1-1.41-2.36,17,17,0,0,0-5.32-4.49,23.69,23.69,0,0,0-4.68-1.87c-2.23-.59-4.54-.47-6.68-1.42a9.76,9.76,0,0,1-4.77-4.46s6.46,1.27,15.49-3.2a5.77,5.77,0,0,0,1.46-.66,8.78,8.78,0,0,0,1.24-.85,8.92,8.92,0,0,0,1.91-2.23,10.17,10.17,0,0,1-2.35,1.55c-2.45,1.09-7.59.28-9.44-.2a47.41,47.41,0,0,1-15-6.24,39.92,39.92,0,0,1-6.74-6c-1.69-1.78-3.74-3.19-5.45-5-2-2.07-4-4.66-4.15-7.62a7,7,0,0,1,1.66-4.69c.25-.33.48-.69.71-1,2.26.24,4.37.22,6.56.33l13.35.35c8.9.19,17.8.19,26.71.27l13.34-.11a24.83,24.83,0,0,0,3.54-.14,5.83,5.83,0,0,0,4.72-5.78l-.08-3.35c-.15-6.76-.32-13.52-.61-20.29h27.57a4.84,4.84,0,0,1,4.82,4.82v34.84a4.81,4.81,0,0,1-3.51,4.61,7.47,7.47,0,0,0,5.78-4l1.22-2.27a22.71,22.71,0,0,0,2.27-9.08V430.86c0-2.64-1.36-4.9-4.83-4.82H510c13-32,35.22-78.68,59.51-96.21.44.6.9,1.19,1.32,1.8,1.11,1.64,2.13,3.33,3.08,5.07.28.49,3,5.63,2.82,5.8-7.58,5.41-15.62,10.93-22.59,17.39a73.2,73.2,0,0,0-9.31,10.31c-5.68,7.82-9.23,18.61-7.34,28.24a33.75,33.75,0,0,0,3.95,10.13c1.86,3.28,3.82,7.21,6.43,9.95,2.93,3.09,3.92,5.49,3.62,9.7a49.44,49.44,0,0,1-3.35,13.36,121.6,121.6,0,0,1-5,11.47s17.11-24.77,20.17-43.42c0,0-.6,28.13-6.09,43.42,0,0-10.41,24.47-9.82,28.14,0,0,8-17.13,12.55-20.49-.19,4.64,1.18,9,1.51,13.61a73.26,73.26,0,0,0,3.11,15.79c-.27,0-.53.11-.81.12h-.23a16.14,16.14,0,0,1-4.87-1l-.45-.12a10.42,10.42,0,0,0-3.37-.5,22.48,22.48,0,0,0-3.34.3,15.32,15.32,0,0,0-1.64.32,8.11,8.11,0,0,1-3,.32c-1.51-.19-3-.44-4.51-.69-1.81-.3-3.63-.6-5.5-.83a23.25,23.25,0,0,1-8.28-2.57,12.82,12.82,0,0,0-5.46-1.59,7.89,7.89,0,0,0-6.29,3.41,7.7,7.7,0,0,0-1,4.32l.06.42a3.26,3.26,0,0,0,0,.33,7.75,7.75,0,0,0,4.24,5.1,15.74,15.74,0,0,0,1.43.7l.36.16a11.58,11.58,0,0,1,3.95,2.48l.22.23a12.6,12.6,0,0,0,5.5,3.43,17.77,17.77,0,0,0,4.38,1,4.51,4.51,0,0,1,1.24.45,9,9,0,0,1-1.1.91c-.34.26-.67.51-1,.79a4.48,4.48,0,0,1-2.3,1.41c-.37.07-.75.13-1.1.16-.52,0-1,.05-1.57.05l-1.23,0c-.58,0-1.15,0-1.69.05-1.4.11-2.79.34-4.15.55a34.75,34.75,0,0,1-5,.58h-.23a14.25,14.25,0,0,1-5.67-1.49,31.26,31.26,0,0,0-7.37-1.86l-.73-.12a16.84,16.84,0,0,0-2.37-.25,4.62,4.62,0,0,0-3.22,1.13,4.45,4.45,0,0,0-.69.73,9,9,0,0,0-1.13,7.34c.82,2.6,2.91,4.57,6.19,5.86-.07.1-.12.2-.18.3a9.38,9.38,0,0,0-.46,1.21,6.85,6.85,0,0,0-.34,1.78c-.41,5.35,3.7,8,5.08,8.78l-.16.12a3.06,3.06,0,0,0-1,1.63,6.59,6.59,0,0,0-.12,3.15,8.19,8.19,0,0,0,3.63,5.2,7.56,7.56,0,0,0,2.56,1.12c.17,0,.36,0,.55.09.37,0,.84.1,1,.26s0,.09.11.3.08.25.13.38a3.85,3.85,0,0,0,.26.68,11.63,11.63,0,0,0,4.34,4.61,7,7,0,0,0,1.06.54c1.73.68,3.14,1.17,4.42,1.56a58,58,0,0,0,16.55,2.67H541a64.81,64.81,0,0,0,29.29-7.43,79,79,0,0,0,10-6c1.33-.95,2.63-2,3.87-3.08l.14-.11a40.52,40.52,0,0,1,2.08,4.3A17.14,17.14,0,0,1,587.7,550a5.25,5.25,0,0,0,1.54,3.3c2.14,2.55,1.44,7,1.44,7-.26,1.64-.62,3.26-1,4.87a23.82,23.82,0,0,1-1.55,4.66,8.32,8.32,0,0,0,3.15-6.37,8,8,0,0,0,.79,1.46c1.81,2.68,2.57,2.06,2.19,5.26-.13,1.34-1,7.42,1.64,7.06.87-.14,1.43-1.15,1.9-1.77a6.51,6.51,0,0,1,2-1.92c.71-.38,1.56-.49,2.23-.84.94-.5,2-2.22,5.87-3,5.73-1,11.15,4,11.62,4.24-1.75-5.65-5.62-6.67-5.17-7,1.38-1,1.91-1.77,3.52-2.38,1.45-.56,3-.2,4.44-.74s2.23-1.66,3.32-2.62c.75-.63,6.64-6.58,9.12-1.64L655.83,606S663,617,653.1,628.4Z" transform="translate(-113.24 -218.8)"/></g></svg>