<?xml version="1.0" standalone="no"?>
<!DOCTYPE svg PUBLIC "-//W3C//DTD SVG 20010904//EN"
 "http://www.w3.org/TR/2001/REC-SVG-20010904/DTD/svg10.dtd">
<svg version="1.0" xmlns="http://www.w3.org/2000/svg"
 width="233.000000pt" height="236.000000pt" viewBox="0 0 233.000000 236.000000"
 preserveAspectRatio="xMidYMid meet">
<metadata>
Created by potrace 1.16, written by Peter Selinger 2001-2019
</metadata>
<g transform="translate(0.000000,236.000000) scale(0.100000,-0.100000)"
fill="#000000" stroke="none">
<path d="M249 2205 c-1 -3 -2 -11 -3 -17 -1 -7 -7 -12 -14 -10 -21 4 -13 -22
15 -48 15 -14 23 -19 19 -12 -11 18 -3 16 93 -33 49 -24 91 -41 95 -38 3 4 6
1 6 -6 0 -7 5 -9 10 -6 6 3 10 2 10 -4 0 -5 -5 -13 -10 -16 -18 -11 -2 -22 76
-49 84 -30 104 -29 104 8 0 22 -11 31 -77 61 -142 66 -306 127 -326 121 -18
-4 -18 -3 -6 10 13 12 28 10 119 -21 57 -19 111 -35 119 -34 9 1 -29 16 -84
34 -55 19 -91 34 -80 35 15 0 11 5 -14 15 -35 16 -50 18 -52 10z"/>
<path d="M180 2073 c0 -14 50 -63 64 -63 6 0 1 7 -10 15 -10 8 -14 15 -8 15 6
0 23 -9 37 -20 14 -11 30 -20 35 -20 6 0 29 -11 53 -24 24 -14 46 -23 51 -20
4 3 8 0 8 -6 0 -6 5 -8 10 -5 6 3 10 1 10 -5 0 -6 5 -8 10 -5 6 3 10 -1 10
-11 0 -13 -3 -14 -13 -5 -8 6 -17 8 -20 4 -4 -3 -12 -1 -19 5 -7 6 -17 12 -23
14 -5 1 -9 7 -7 12 2 5 -4 6 -12 3 -9 -4 -37 0 -63 7 -74 21 -93 25 -89 17 3
-4 91 -36 196 -72 185 -62 192 -63 205 -45 8 10 12 23 8 29 -11 18 -372 170
-402 170 -9 0 -19 5 -23 11 -5 8 -8 7 -8 -1z"/>
<path d="M650 2026 c65 -34 83 -58 84 -111 1 -25 2 -45 4 -45 2 0 8 14 14 31
11 31 11 31 22 10 7 -12 16 -18 20 -14 8 7 7 -6 -10 -102 -5 -28 -4 -29 10
-11 8 10 18 38 22 62 3 24 10 44 15 44 17 0 9 -71 -15 -130 -25 -62 -22 -75 9
-40 10 12 25 18 32 16 8 -3 16 1 19 9 8 20 34 19 34 0 0 -11 7 -14 24 -9 13 3
27 1 30 -5 4 -6 25 -11 47 -11 41 0 51 -16 29 -50 -8 -13 -15 -13 -57 0 -92
26 -132 24 -203 -9 -36 -17 -75 -31 -86 -31 -32 0 -83 21 -274 112 -96 46
-199 94 -228 106 -108 47 -38 32 159 -33 184 -60 204 -65 218 -50 11 11 13 20
6 31 -6 9 -98 52 -205 95 -107 44 -198 85 -203 92 -6 8 -7 3 -3 -13 5 -24 5
-25 -11 -5 -14 18 -15 18 -9 2 3 -10 6 -21 6 -23 0 -2 6 -4 13 -4 15 0 97 -38
97 -45 0 -2 -6 -2 -14 1 -8 3 -17 1 -21 -5 -3 -6 2 -12 12 -13 27 -2 75 -7 96
-9 9 -1 17 -6 17 -11 0 -5 5 -6 10 -3 6 3 10 1 10 -4 0 -6 3 -10 8 -10 4 1 9
0 12 -1 3 -1 12 -3 20 -5 23 -5 126 -54 115 -54 -18 -1 -107 29 -121 40 -7 5
-25 12 -41 14 -15 2 -30 5 -33 6 -3 1 -9 3 -15 4 -5 1 -17 5 -25 8 -22 9 -132
37 -147 37 -7 0 -13 -8 -14 -17 0 -15 -2 -15 -9 2 -8 20 -9 19 -9 -1 -1 -12 7
-28 16 -35 15 -12 16 -12 8 1 -7 12 -6 13 6 3 19 -15 131 -71 143 -71 5 0 12
-5 15 -10 3 -5 52 -33 109 -61 56 -28 102 -54 102 -56 0 -3 -10 -1 -22 5 -21
10 -22 10 -5 -4 11 -8 25 -12 32 -10 7 3 36 -6 64 -20 68 -35 143 -35 211 -1
50 25 102 30 150 15 20 -7 14 -14 -10 -12 -3 0 -5 -16 -3 -36 2 -35 2 -35 -6
-7 l-7 30 -5 -35 c-2 -19 -1 -51 2 -70 6 -35 6 -35 9 -5 l2 30 8 -35 c11 -48
19 -270 9 -245 -7 18 -8 18 -8 1 -1 -28 154 -220 171 -210 4 3 7 2 6 -3 -2 -4
0 -8 4 -8 10 0 78 -67 78 -77 0 -5 -12 4 -27 20 -16 15 -19 17 -8 4 17 -20 20
-38 20 -130 0 -59 -3 -156 -7 -217 l-6 -110 13 110 c7 61 13 92 14 70 0 -22
-5 -96 -13 -165 -8 -69 -15 -165 -16 -215 0 -49 -4 -92 -7 -95 -3 -3 -3 63 -1
145 3 99 2 133 -3 100 -12 -67 -15 -227 -5 -243 4 -6 14 -12 22 -12 10 0 14
14 14 58 0 54 5 104 50 482 l19 155 -6 -134 c-5 -140 -6 -150 -24 -240 -6 -29
-14 -111 -18 -181 -4 -79 -12 -134 -20 -143 -10 -13 -6 -19 32 -41 24 -14 50
-26 57 -26 8 0 -10 12 -39 26 -28 15 -50 28 -47 31 3 3 15 -2 28 -11 13 -9 41
-21 62 -27 24 -7 35 -14 27 -18 -8 -5 -3 -11 14 -19 20 -9 25 -9 19 0 -5 8 -2
9 12 3 10 -5 60 -9 109 -11 50 -1 71 0 47 3 -23 2 -40 8 -37 14 4 5 -6 9 -22
10 l-28 0 25 12 c24 10 23 11 -20 17 -25 4 -37 8 -27 8 10 1 15 7 12 12 -3 6
1 10 9 10 22 0 20 17 -1 23 -17 4 -17 5 0 6 28 2 19 21 -10 22 -17 1 -21 3
-10 6 27 7 20 20 -15 28 -30 7 -31 8 -9 12 19 4 21 7 10 14 -12 8 -12 10 1 19
13 8 13 10 1 10 -11 0 -9 4 5 15 19 14 19 14 -1 15 -17 0 -17 2 -5 10 9 6 11
13 5 18 -5 4 -10 14 -10 22 0 8 -9 16 -20 19 -17 3 -18 2 -5 -15 14 -16 13
-17 -2 -11 -20 7 -25 -8 -7 -19 8 -5 8 -9 -1 -14 -8 -5 -9 -21 -2 -59 8 -43 7
-51 -6 -51 -12 0 -12 -3 -2 -15 10 -12 10 -15 0 -15 -10 0 -10 -3 0 -15 9 -11
9 -15 1 -15 -7 0 -9 -4 -6 -10 3 -5 0 -10 -7 -10 -8 -1 -5 -8 8 -18 17 -14 18
-20 8 -30 -16 -14 -25 -16 -22 -3 2 5 -12 23 -31 40 -19 17 -29 31 -22 31 11
0 11 3 1 15 -11 13 -10 14 6 9 18 -7 18 -7 -1 15 l-19 22 27 -10 c31 -12 35
-5 10 16 -16 13 -16 14 7 8 24 -6 24 -5 6 9 -20 16 -20 16 0 16 17 1 17 2 -5
20 -13 11 -18 20 -11 20 10 0 10 3 1 14 -8 9 -8 15 -2 18 7 2 5 13 -4 31 -8
15 -10 25 -5 22 14 -9 12 9 -2 24 -11 11 -10 12 1 6 11 -6 13 -4 8 8 -4 12 -1
17 10 17 12 0 13 3 3 15 -10 12 -7 15 15 21 25 6 25 7 8 27 -17 20 -17 20 1
13 16 -5 17 -4 6 9 -10 12 -9 15 6 15 17 0 17 1 -2 16 -18 15 -18 15 4 9 24
-7 31 9 7 19 -8 3 -14 10 -13 15 2 5 -6 17 -17 26 -17 14 -17 16 -2 11 9 -3
17 -1 17 3 0 5 -5 11 -12 13 -18 6 -18 38 0 38 15 1 14 3 -2 15 -12 9 -15 15
-7 15 9 0 10 4 4 13 -6 6 -10 19 -10 27 -1 8 -3 34 -6 57 -5 39 -4 42 13 31
16 -10 25 -40 36 -116 1 -12 9 -36 18 -52 13 -27 13 -30 -1 -30 -13 0 -13 -3
-3 -15 7 -8 9 -15 5 -15 -4 0 -2 -7 5 -15 7 -8 26 -15 42 -15 26 0 29 2 18 15
-10 12 -10 15 1 15 8 1 3 7 -11 15 l-25 14 25 1 c24 1 24 1 6 15 -19 14 -19
15 -2 15 15 0 16 3 6 15 -11 13 -10 15 6 9 15 -4 13 -1 -6 16 -21 19 -22 21
-5 16 19 -6 19 -5 3 8 -22 16 -23 27 -3 20 9 -4 15 0 15 10 0 9 -4 16 -8 16
-5 0 -17 7 -28 15 -11 9 -13 13 -4 10 8 -3 49 1 90 9 41 8 66 15 55 16 -18 1
-17 2 5 11 13 6 35 7 48 4 20 -5 21 -7 8 -21 -9 -8 -35 -19 -58 -23 -24 -5
-34 -9 -23 -10 15 -1 12 -5 -12 -16 -18 -8 -33 -16 -33 -19 0 -3 15 -3 33 0
l32 5 -30 -14 -30 -15 45 4 45 4 -35 -11 c-50 -15 -64 -33 -20 -25 l35 7 -32
-15 c-40 -18 -42 -25 -5 -19 l27 4 -30 -17 c-18 -10 -25 -19 -17 -22 9 -3 10
-8 2 -17 -8 -9 -4 -11 17 -8 l28 4 -25 -15 c-22 -14 -23 -15 -5 -16 20 -1 20
-1 0 -16 -17 -13 -18 -16 -5 -24 11 -7 11 -10 2 -10 -7 0 -11 -4 -8 -9 4 -5 0
-12 -6 -14 -7 -3 -2 -6 11 -6 24 -1 24 -1 5 -16 -19 -14 -19 -14 1 -16 17 -1
16 -2 -5 -9 -19 -6 -21 -8 -6 -9 11 -1 16 -4 12 -8 -3 -4 4 -13 16 -20 22 -12
22 -12 3 -14 -11 -1 -4 -5 15 -9 32 -7 30 -8 -20 -9 -50 -2 -53 -3 -32 -14 12
-7 19 -16 16 -20 -4 -4 6 -7 22 -8 25 0 26 -2 9 -9 -11 -5 -14 -9 -7 -9 6 -1
12 -5 12 -11 0 -5 -16 -10 -36 -10 -22 0 -33 -4 -29 -11 4 -6 29 -8 63 -5 39
4 49 3 32 -3 -14 -5 -37 -9 -52 -10 -38 -1 -36 -21 2 -21 31 0 41 -14 17 -23
-7 -3 -25 -3 -40 0 -16 3 -27 1 -27 -5 0 -6 25 -12 58 -14 l57 -3 -32 -15
c-32 -15 -44 -30 -22 -30 6 0 17 -7 25 -15 9 -9 11 -15 4 -15 -6 0 -9 -4 -6
-9 4 -5 -8 -13 -26 -17 l-33 -8 35 -6 c35 -7 35 -7 10 -18 -23 -10 -22 -11 20
-12 25 0 52 -5 60 -11 11 -8 6 -9 -20 -5 -26 5 -30 4 -15 -3 18 -9 17 -10 -10
-11 -20 -2 -24 -4 -11 -7 10 -3 39 3 63 12 37 14 43 19 29 27 -9 5 -14 13 -11
19 4 5 2 9 -2 9 -14 0 -22 168 -9 189 4 6 4 16 1 21 -3 6 -2 10 2 10 8 0 12
16 14 58 1 21 -10 113 -16 129 -2 6 3 19 11 30 9 10 13 13 10 6 -4 -6 -1 -17
6 -25 13 -13 14 -21 19 -106 1 -23 6 -42 10 -42 4 0 2 -19 -5 -43 -8 -29 -10
-51 -4 -68 5 -13 7 -34 5 -46 -2 -13 -1 -23 4 -23 8 0 3 -46 -7 -62 -12 -19
15 -6 40 19 26 25 27 30 21 97 -6 63 -14 115 -32 221 -3 17 -2 27 2 23 11 -10
44 -217 45 -279 0 -39 4 -59 14 -62 8 -3 16 -3 19 -1 9 9 -4 138 -25 249 -24
132 -33 267 -23 332 5 28 10 40 13 29 3 -14 10 -3 24 35 11 30 21 62 21 71 1
9 5 16 10 15 5 -1 12 4 15 12 3 8 0 11 -7 7 -7 -5 -9 -1 -5 8 3 9 11 13 17 9
6 -4 8 0 4 11 -4 10 -3 15 3 11 12 -7 33 33 26 50 -3 8 0 17 6 21 7 5 8 2 3
-6 -6 -9 -4 -11 4 -6 7 5 10 14 7 22 -3 8 0 13 7 11 8 -1 11 10 9 33 -1 23 1
30 7 22 6 -10 10 -7 15 12 6 23 11 26 52 26 47 0 88 15 80 29 -3 5 4 17 17 27
21 19 21 19 7 -1 -15 -20 -14 -20 8 -1 22 19 31 43 12 31 -6 -4 -5 6 2 22 6
15 15 51 19 78 l8 50 -3 -58 c-2 -33 1 -52 5 -45 14 22 10 93 -7 114 -8 10
-12 12 -8 4 7 -13 5 -13 -9 -1 -9 7 -15 17 -12 21 3 4 -7 16 -21 25 -15 9 -23
12 -20 6 10 -15 5 -14 -55 13 -29 14 -57 22 -62 19 -5 -3 -7 0 -5 8 3 8 1 22
-4 32 -5 10 -6 26 -2 35 6 13 9 11 14 -13 l8 -30 1 28 c1 27 -34 90 -54 98 -5
2 -9 9 -7 14 2 6 -2 5 -8 -1 -8 -8 -7 -20 6 -47 22 -46 10 -104 -22 -99 -16 2
-25 -11 -47 -68 -15 -38 -27 -76 -27 -84 0 -7 -14 -16 -31 -20 -17 -3 -28 -10
-25 -15 9 -14 -31 -24 -51 -12 -16 9 -15 10 6 11 24 0 24 0 5 15 -18 14 -18
14 5 15 24 0 24 0 5 15 -19 14 -19 14 1 15 11 1 14 4 8 7 -20 7 -15 23 5 16
15 -6 15 -5 3 10 -12 15 -11 17 9 17 22 0 23 1 5 20 -18 19 -17 20 3 20 27 0
28 8 5 26 -13 10 -14 13 -4 14 11 0 11 3 0 16 -12 15 -11 16 11 9 25 -8 25 -8
6 14 -12 13 -14 21 -7 21 7 0 9 5 5 12 -5 8 -2 9 12 4 38 -16 54 -18 54 -7 0
6 -7 11 -15 11 -8 0 -15 7 -15 15 0 8 -7 15 -15 15 -21 0 -19 16 6 34 20 14
18 43 -2 31 -5 -4 -9 -1 -9 4 0 6 4 11 10 11 5 0 7 7 3 16 -4 11 -8 12 -13 4
-6 -10 -18 11 -24 43 0 4 -4 7 -8 7 -4 1 -24 8 -43 16 -20 8 -59 14 -88 14
-61 -1 -67 0 -131 30 -40 18 -61 22 -111 18 -34 -3 -70 -1 -79 4 -9 5 -45 13
-79 18 l-62 9 60 -4 c33 -2 69 -6 80 -9 11 -4 7 0 -10 8 -53 26 -168 15 -149
-15 3 -6 -2 -9 -12 -7 -10 2 -19 -3 -19 -9 0 -7 -4 -13 -9 -12 -9 1 -26 -21
-26 -34 0 -5 6 -5 13 -1 9 6 9 5 -1 -8 -7 -9 -23 -14 -40 -11 l-27 4 30 -15
c17 -9 21 -14 10 -12 -48 10 -65 18 -59 28 5 7 2 8 -5 3 -16 -9 -61 32 -55 50
7 18 -24 77 -36 70 -6 -3 -7 0 -4 8 6 17 -13 33 -51 43 l-30 7 22 -24 c12 -13
31 -45 43 -71 31 -72 64 -105 123 -124 29 -9 57 -21 62 -27 7 -7 5 -8 -5 -5
-8 3 -38 13 -67 22 -61 20 -107 67 -123 126 -16 61 -46 86 -143 119 -105 37
-129 39 -67 7z m573 -131 c35 -6 49 -19 26 -27 -6 -2 0 -15 14 -29 20 -23 23
-32 17 -70 l-7 -44 -2 39 c-1 30 -4 37 -17 32 -9 -3 -29 -6 -45 -6 l-30 0 26
-26 c15 -15 23 -29 18 -33 -14 -11 -13 -31 2 -31 26 0 16 -18 -16 -29 -40 -14
-79 -14 -79 -1 0 6 -8 10 -17 10 -17 1 -17 1 0 11 9 6 15 14 12 20 -4 5 -2 9
4 9 13 0 7 33 -8 38 -8 3 -6 8 6 18 17 13 17 13 -1 14 -15 0 -16 3 -7 14 6 8
10 20 9 27 -2 8 8 15 22 17 44 6 47 22 5 22 -36 1 -38 2 -22 14 14 11 15 15 5
19 -13 6 14 3 85 -8z m260 -43 c15 -9 27 -25 27 -36 0 -16 -3 -15 -21 8 -11
14 -27 26 -35 26 -10 0 -9 -5 6 -20 11 -11 23 -32 26 -47 4 -16 12 -31 18 -35
8 -5 4 -52 -11 -160 -21 -142 -24 -155 -50 -177 -26 -21 -26 -23 -5 -18 31 7
28 -11 -5 -24 -31 -12 -85 -3 -64 10 9 6 4 11 -16 16 l-28 7 30 12 c17 6 30
16 30 21 0 17 49 84 70 95 14 7 15 9 3 6 -24 -7 -22 2 5 25 l22 19 -30 -5 -30
-6 28 16 c32 18 30 33 -1 16 -16 -8 -21 -7 -26 4 -3 10 1 15 12 15 10 0 27 7
38 15 17 14 16 14 -23 9 -32 -5 -46 -2 -58 10 -9 9 -23 16 -32 16 -9 0 -13 6
-10 14 3 8 1 17 -6 20 -9 3 -8 8 3 15 10 7 11 11 3 11 -7 0 -13 7 -13 15 0 8
-5 15 -11 15 -7 0 -5 10 5 25 22 33 20 42 -4 20 -20 -18 -21 -18 -14 1 25 70
93 88 167 46z m151 -37 c3 -8 11 -15 18 -15 7 0 22 -8 33 -17 19 -15 19 -15
-10 -9 -28 6 -29 5 -11 -9 11 -8 23 -15 28 -15 4 0 8 -5 8 -11 0 -7 -18 -10
-50 -7 -55 3 -68 -9 -20 -19 17 -3 33 -10 36 -15 4 -6 -6 -8 -27 -3 -25 4 -30
3 -19 -4 8 -6 25 -11 38 -11 13 0 21 -4 18 -9 -3 -5 -25 -7 -49 -5 l-42 5 48
-26 c40 -22 46 -29 37 -41 -10 -11 -10 -14 1 -14 9 -1 6 -8 -9 -20 -12 -10
-18 -21 -13 -24 12 -8 -15 -62 -35 -70 -8 -3 -12 -11 -9 -16 4 -6 1 -17 -5
-25 -6 -8 -9 -18 -6 -24 3 -5 0 -12 -6 -14 -9 -4 -10 -6 -1 -6 6 -1 15 4 18 9
3 6 11 10 17 10 7 0 6 -6 -2 -15 -7 -8 -21 -15 -30 -15 -10 0 -20 -5 -22 -11
-3 -8 -15 -9 -36 -4 -39 8 -42 22 -4 20 15 -1 19 0 9 2 -9 2 -15 9 -11 14 3 6
0 16 -6 24 -10 12 -9 16 4 21 14 5 14 7 -1 22 -14 15 -14 17 6 26 23 10 27 21
10 32 -8 5 -8 9 1 14 9 6 9 12 -2 29 -11 18 -11 23 1 30 9 6 10 11 2 15 -16
11 -13 36 5 36 8 0 12 5 9 10 -4 6 -8 25 -10 43 -4 30 -3 31 10 13 15 -19 15
-19 15 2 0 28 0 26 10 61 6 23 5 29 -5 24 -8 -2 -18 -17 -24 -31 -5 -15 -10
-21 -10 -14 -3 47 78 96 93 57z m-251 -175 c15 -12 27 -26 27 -33 0 -6 -7 -2
-15 9 -8 10 -15 15 -15 10 0 -5 -9 -1 -19 8 -12 11 -30 16 -48 13 l-28 -4 31
-2 c45 -2 61 -28 54 -86 -2 -12 -5 -7 -10 15 l-7 35 -2 -32 c0 -18 -11 -44
-24 -59 -19 -22 -28 -25 -53 -20 -27 6 -30 10 -27 39 2 18 0 25 -4 17 -9 -23
-26 -30 -40 -18 -24 20 -14 -12 12 -37 20 -21 34 -25 79 -25 59 0 68 7 87 69
4 15 8 19 8 9 1 -9 -4 -29 -11 -45 -6 -15 -12 -32 -12 -38 -1 -5 -28 -10 -61
-10 -33 0 -63 -4 -66 -9 -4 -4 -16 -3 -28 3 -15 8 -21 9 -21 1 0 -7 -8 -9 -22
-4 -21 6 -22 6 -8 -12 15 -18 14 -18 -12 -1 -31 19 -42 22 -33 7 8 -13 -1 -13
-28 2 -20 10 -21 9 -9 -5 11 -13 10 -15 -10 -9 -21 5 -22 4 -8 -13 8 -10 28
-24 45 -31 l30 -13 -28 -1 c-16 0 -38 5 -49 11 -16 9 -19 8 -16 -3 3 -7 25
-21 49 -30 24 -9 37 -17 29 -18 -12 0 -13 -2 -1 -9 11 -7 10 -11 -5 -20 -15
-8 -15 -10 -4 -11 9 0 26 7 39 16 22 16 23 16 12 -4 -6 -11 -16 -22 -23 -25
-7 -2 -10 -8 -6 -12 4 -4 14 -2 23 5 26 22 30 2 5 -25 -29 -31 -8 -33 23 -2
12 12 26 21 30 19 5 -1 12 8 15 20 6 20 7 19 13 -12 l6 -35 12 29 c6 16 9 43
6 60 -5 23 -3 27 4 16 5 -8 13 -11 17 -8 3 4 16 -3 28 -15 22 -23 56 -32 56
-14 0 6 11 0 25 -13 15 -14 25 -35 25 -51 0 -15 5 -31 10 -34 6 -4 10 7 10 25
0 17 4 29 9 26 5 -4 7 4 3 16 -3 13 -1 19 5 15 6 -4 14 -24 19 -44 l7 -38 7
30 c6 29 7 28 23 -24 18 -59 22 -91 9 -91 -4 0 -18 -20 -31 -46 -13 -25 -34
-50 -45 -56 -20 -10 -20 -10 1 13 24 26 43 71 43 97 -1 10 -9 2 -19 -18 -11
-19 -31 -46 -46 -60 l-27 -25 26 39 c14 21 26 48 26 60 0 18 -3 16 -19 -10
-24 -40 -49 -58 -31 -23 l13 24 -24 -21 c-34 -30 -59 -41 -31 -15 25 24 42 62
42 89 -1 10 -6 4 -14 -13 -7 -16 -24 -39 -37 -50 l-23 -20 15 25 c21 33 29 69
18 76 -5 3 -9 -1 -9 -8 0 -8 -6 -23 -14 -34 -13 -17 -14 -15 -6 21 12 52 12
65 0 65 -5 0 -10 -12 -10 -27 0 -16 -12 -41 -26 -58 -24 -29 -24 -29 -8 -2 17
29 5 38 -16 12 -10 -12 -15 -13 -20 -4 -6 8 -13 8 -28 0 -26 -14 -45 -14 -37
-1 3 6 2 10 -4 10 -6 0 -7 8 -4 18 6 15 5 15 -11 3 -13 -11 -14 -16 -4 -22 9
-5 4 -11 -15 -18 -15 -6 -27 -13 -27 -16 0 -17 27 -54 67 -94 24 -24 42 -46
39 -49 -9 -8 -166 150 -160 160 4 5 17 7 30 4 14 -4 24 -2 24 4 0 5 -3 10 -7
11 -70 5 -90 11 -112 35 l-26 27 29 -21 c16 -12 38 -22 50 -21 l21 0 -21 9
c-38 15 -38 30 0 30 20 0 36 5 36 10 0 6 -17 10 -37 10 -28 0 -34 3 -23 10 18
11 5 26 -32 35 -20 5 -27 3 -31 -12 -3 -12 -5 -9 -6 10 -1 20 4 27 18 27 11 0
23 -4 26 -10 3 -5 14 -10 23 -10 16 1 16 2 0 14 -26 19 -22 23 15 19 29 -3 30
-2 13 9 -37 26 -72 60 -53 54 9 -3 17 -3 17 0 0 7 -37 74 -57 104 -9 14 -1 8
19 -12 20 -21 40 -38 46 -38 6 0 5 15 -3 38 -8 22 -20 36 -29 36 -8 -1 -18 7
-22 18 -6 19 -6 19 -19 1 -11 -15 -12 -10 -2 31 8 37 18 53 41 67 36 22 53 25
38 7 -8 -10 3 -14 48 -15 36 -2 62 2 66 9 5 8 2 9 -9 5 -10 -3 -17 -2 -17 3 0
9 30 12 171 18 54 2 70 -1 92 -18z m587 -155 c88 -28 120 -54 120 -98 0 -49
-47 -117 -81 -117 -28 0 -229 82 -223 91 3 5 18 6 34 2 25 -5 30 -2 30 14 0
11 11 30 24 42 23 21 25 22 54 7 39 -20 40 -20 44 2 3 15 6 14 16 -6 9 -16 10
-32 3 -57 -11 -39 -10 -40 20 -22 17 10 23 9 26 -1 9 -24 23 -1 23 38 0 48
-28 73 -111 96 -33 9 -62 21 -65 25 -7 13 -4 12 86 -16z m-150 -210 c21 -11
27 -20 23 -32 -5 -13 -2 -15 20 -9 16 4 27 2 27 -4 0 -5 -11 -10 -25 -10 -25
0 -36 -19 -12 -21 10 0 10 -2 0 -6 -22 -8 -14 -25 8 -18 15 5 20 3 17 -6 -2
-6 -15 -14 -28 -16 -31 -5 -38 -12 -20 -23 11 -7 8 -10 -12 -10 -31 0 -38 -16
-10 -23 12 -3 10 -5 -8 -7 -24 -2 -24 -3 5 -10 l30 -8 -27 -1 c-29 -1 -40 -21
-13 -21 8 0 15 -4 15 -9 0 -5 -11 -8 -25 -8 -23 0 -54 -26 -55 -45 0 -12 28
-10 35 2 8 13 25 13 25 1 0 -13 -50 -71 -61 -71 -6 0 3 11 18 25 l28 24 -36 1
c-21 0 -47 9 -62 20 -32 25 -41 25 -27 1 7 -14 6 -21 -3 -24 -7 -3 -2 -9 13
-16 22 -10 18 -11 -27 -8 -29 2 -54 1 -55 -3 -2 -4 -19 -11 -38 -14 -27 -6
-32 -5 -20 4 12 9 7 11 -22 8 -59 -6 -30 10 43 24 59 11 69 16 84 44 11 20 16
45 13 65 l-5 32 19 -27 c11 -14 30 -31 41 -37 19 -10 18 -7 -5 18 -36 38 -35
47 3 28 17 -9 33 -14 37 -11 3 3 1 6 -4 6 -5 0 -20 9 -34 20 l-25 20 29 -10
c16 -6 31 -8 34 -5 3 3 1 5 -4 5 -5 0 -20 10 -34 21 -14 11 -19 18 -12 14 17
-9 72 -24 72 -20 0 2 -24 17 -54 34 -72 40 -81 57 -14 26 70 -33 110 -32 43 1
-27 14 -41 22 -30 19 11 -4 36 -9 55 -11 l35 -5 -42 18 c-42 18 -74 42 -40 30
10 -4 37 -9 60 -12 34 -4 38 -4 20 5 -72 32 -70 31 -31 26 41 -5 53 1 37 21
-15 17 -5 17 31 -2z"/>
</g>
</svg>
