<svg id="Layer_1" data-name="Layer 1" xmlns="http://www.w3.org/2000/svg" viewBox="0 0 417.48 417.48"><defs><style>.cls-1{fill:#d1c8ce;}</style></defs><path class="cls-1" d="M67.64,345.06c.75,1.63,1.54,3.25,2.34,4.86L349.92,70c-1.61-.8-3.23-1.59-4.86-2.34Zm7.46,14.5c.86,1.52,1.75,3,2.65,4.55L364.11,77.75c-1.51-.9-3-1.79-4.55-2.65Zm17.64,26.28q1.58,2,3.21,4L389.83,96q-2-1.64-4-3.21ZM61.18,329.56c.64,1.73,1.31,3.47,2,5.19L334.75,63.18c-1.72-.69-3.46-1.36-5.19-2Zm41.64,68.16q1.71,1.88,3.48,3.72L401.44,106.3q-1.85-1.77-3.72-3.48ZM83.48,373.13q1.44,2.14,2.94,4.27l291-291q-2.13-1.5-4.27-2.94ZM55.81,313q.78,2.79,1.64,5.57L318.53,57.45q-2.77-.86-5.57-1.64ZM67.16,169.84Q64.34,176,62,182.26L182.26,62c-4.18,1.59-8.33,3.33-12.42,5.21ZM88,134.2,134.2,88A210.53,210.53,0,0,0,88,134.2ZM55,204q-1.23,4.7-2.24,9.43L213.41,52.75q-4.74,1-9.43,2.24Zm-6.78,50.7c0,2.39,0,4.78,0,7.17L261.85,48.24c-2.39-.06-4.78-.06-7.17,0Zm1.57-23.53c-.34,2.67-.61,5.35-.83,8L239.18,49c-2.68.22-5.36.49-8,.83ZM49,275.81c.2,2.17.42,4.35.68,6.51l232.6-232.6c-2.16-.26-4.34-.48-6.51-.68Zm2.66,19.31c.37,2,.76,4,1.19,6L301.12,52.89c-2-.43-4-.82-6-1.19Zm86.24,133.37q2.13,1.47,4.29,2.9L431.39,142.23q-1.42-2.16-2.9-4.29Zm139.51,36.18c2.73-.27,5.46-.6,8.17-1L463.7,285.62c.37-2.71.7-5.44,1-8.17Zm-43.64-.28q3.28.36,6.57.62L465,240.38q-.25-3.28-.62-6.57Zm20.7,1.26c2.41,0,4.82,0,7.23,0L465.62,261.74c.06-2.41.06-4.82,0-7.23Zm49.19-5.27q4.85-1.1,9.65-2.45L457.93,313.35q1.35-4.8,2.45-9.65Zm-190-51.59q1.86,1.75,3.75,3.46L412.25,117.46q-1.71-1.89-3.46-3.75Zm222.06,41.48q6.62-2.68,13.06-5.85l95.59-95.59q3.15-6.45,5.85-13.06Zm80.76-58.79-25,25c4.48-3.79,8.84-7.77,13.06-12S412.74,396,416.53,391.48ZM151.34,437.05c1.52.9,3,1.77,4.58,2.62L439.67,155.92c-.85-1.54-1.72-3.06-2.62-4.58Zm14.3,7.66q2.45,1.19,4.9,2.3L447,170.54q-1.11-2.46-2.3-4.9Zm-40.23-25.66c1.33,1.08,2.67,2.15,4,3.19L422.24,129.43c-1-1.35-2.11-2.69-3.19-4Zm89.43,42.35c2,.41,4,.8,6,1.15L462.55,220.89c-.35-2-.74-4-1.15-6ZM197.26,457q2.81.83,5.62,1.58L458.59,202.88q-.75-2.82-1.58-5.62Zm-16.34-5.62q2.61,1,5.24,2L453.35,186.16q-.94-2.62-2-5.24Z" transform="translate(-48.19 -48.19)"/></svg>