<svg id="Layer_1" data-name="Layer 1" xmlns="http://www.w3.org/2000/svg" viewBox="0 0 512 512"><defs><style>.cls-1{fill:#fff;}.cls-2{fill:#220bfc;}</style></defs><path class="cls-1" d="M767,147.66"/><circle class="cls-2" cx="256" cy="256" r="256"/><g id="_1" data-name=" 1"><path class="cls-1" d="M465.73,390.08c-.44-6.23-3.13-11.88-5.78-17.34-.65-1.36-1.29-2.73-1.89-4.06-2.26-5.07-4.55-10.15-6.84-15.19L450,350.71c-.16-.36-.34-.75-.53-1.12l-.12-.24a14.63,14.63,0,0,1-1-2.22,7.56,7.56,0,0,0-7-5.14,10.37,10.37,0,0,0-4.57,1.18,22.11,22.11,0,0,1-2.67,1.11l-.18.08a33.06,33.06,0,0,0-3.24,1.41,19,19,0,0,0-3.5,2.48,13.51,13.51,0,0,1-3.11,2.13c-1.27.52-2.61,1-4,1.52l-.62.22c-.47.16-.94.34-1.41.51l-.45.17v-.33c0-.76-.26-7.84-3.3-13.44a7.62,7.62,0,0,1-.93-3.39s0-1.43-.25-3.87c1.61-.77,3.41-1.45,5.64-2.29.63-.23,1.27-.43,2-.67a30.64,30.64,0,0,0,7.17-3.05l.45-.3a14.66,14.66,0,0,0,2.85-2.1,17,17,0,0,1,5-3.44,28,28,0,0,0,6.39-4.13,15.09,15.09,0,0,0,2.82-3.73,49.17,49.17,0,0,0,3.3-7.1,15.88,15.88,0,0,1,3.53-5.78,26.53,26.53,0,0,0,4.63-7.06,28.47,28.47,0,0,0,3-8.85c.51-4.22-.46-9.18-2.83-14.33-.57-1.22-1.12-2.28-1.65-3.3-.27-.49-.59-1-.9-1.41a6.13,6.13,0,0,1-.76-1.31l-.1-.33a23.66,23.66,0,0,0-1.89-4.64,51.88,51.88,0,0,0-2.87-4.45,69.21,69.21,0,0,0-5.63-6.81l-.82-.91a22.25,22.25,0,0,1-3.73-4.69c-.59-1.13-1.13-2.4-1.7-3.72-.63-1.56-1.34-3.08-2.11-4.57a59.9,59.9,0,0,0-8.26-11.49l-.64-.76a35.49,35.49,0,0,0-3-3.21l-.71-.6a8.07,8.07,0,0,1-1.66-1.59,9.28,9.28,0,0,1-1-2.71,19.4,19.4,0,0,0-2.38-5.44,15.48,15.48,0,0,1-1.46-3.52c-.29-.86-.59-1.79-1-2.66-.76-1.65-1.31-3-1.85-4.13l-.05-.12a5.7,5.7,0,0,0-.34-.76c8.2-10.24,11.09-18.28,8.85-24.3a10.06,10.06,0,0,0-2.29-3.59c-3.3-5.88-11.24-6.41-11.67-6.42h-.67A27.21,27.21,0,0,0,392.54,166a33.41,33.41,0,0,0-2.86-2.59,25,25,0,0,0-6.18-3.64,35.26,35.26,0,0,1-7.25-3.62c-.24-.19-5.67-4.57-11.9-5.38a23.06,23.06,0,0,1-.24,12.11c-2.14,8.16-7.19,13.9-11.29,12.81s-5.69-8.55-3.56-16.7,7.2-13.89,11.31-12.81a4.38,4.38,0,0,1,2.21,1.52,72.77,72.77,0,0,0-2.89-24.55c-4.15-13.09-14.32-29.3-39.61-32.44a38.26,38.26,0,0,0-6.32-.47c-9.58,0-31.89,3-44.54,29.27l-.37.82c-8.05-2.54-15.15-2.28-22.09,2.84-6.33,4.65-9.26,12-8.75,21.33l-.54.13a16.51,16.51,0,0,1-3.36.49,15.27,15.27,0,0,0-6.78,1.65c-.42.24-.82.5-1.26.77-1.52.91-2.78,1.59-3.81,1.51a6.46,6.46,0,0,1-1.23-.21c-.62-.12-1.23-.23-1.86-.29a25.84,25.84,0,0,0-14.2,2.16c-2.1.91-4,1.71-5.65,1.14l-.51-.19a20.36,20.36,0,0,0-4.74-1.14,21.21,21.21,0,0,0-6,.64,27.37,27.37,0,0,1-2.71.46c-3.8.37-9.54,2-13.09,5.6-.9.9-3,.93-5,1a25,25,0,0,0-3.35.19A15.84,15.84,0,0,0,159.6,160a14.54,14.54,0,0,1-2.93,1.16,13.48,13.48,0,0,1-4,0,21.16,21.16,0,0,0-4.43-.11,48.89,48.89,0,0,0-9,2.21l-.46.14-2.06.62c-5.18,1.52-11.06,3.31-15.31,7-.85.47-8.93,5.12-14.47,6a23.64,23.64,0,0,0-3.87,1.08,21.15,21.15,0,0,1-3.15.83c-2,.31-4.17.46-6.25.6s-4.56.33-7,.71a46.79,46.79,0,0,0-6,1.53,28,28,0,0,1-7.58,1.52,11.1,11.1,0,0,1-1.28-.07c-2.06-.17-4.19-.37-6.38-.37a25.37,25.37,0,0,0-6.32.7,11.69,11.69,0,0,0-5.49,2.65,6.37,6.37,0,0,0-1.22,1.51,5.87,5.87,0,0,0-.6,4.21,8.75,8.75,0,0,0-3.54,3.39l-.11.24a7.32,7.32,0,0,0-.53,1.34,6.32,6.32,0,0,0,0,3.23,6,6,0,0,0,1.2,2.21,2.78,2.78,0,0,0-.43.41,8,8,0,0,0-2.07,7.11,9.43,9.43,0,0,0,7.89,7.65,23,23,0,0,0,3.09.33l-.21.28-.18.27a8.58,8.58,0,0,0,.46,9.53,9.72,9.72,0,0,0,8,3.69,18.2,18.2,0,0,0,7-1.66c1-.43,2.07-.82,3.11-1.23l.35-.14A51.26,51.26,0,0,0,83,225.43a16.19,16.19,0,0,1,7.14-2.29,17.26,17.26,0,0,0,3.82-.83c.69-.21,1.41-.42,2-.55-.4.49-.87,1-1.35,1.44s-1,1-1.39,1.46a14.73,14.73,0,0,0-2.47,4.07,16.27,16.27,0,0,0-1.61,7.86,7.87,7.87,0,0,0,2.14,4.78,10.72,10.72,0,0,0,7.62,3.3,12.45,12.45,0,0,0,8.48-3.72c.67-.5,1.32-1,2-1.53,1.53-1.24,3-2.55,4.7-4,2.2-1.95,4.38-4,6.45-6.08,2.77-2.72,5.2-5.32,7.43-8,1.65-1.91,3.16-3.92,4.62-5.88.9-1.18,1.77-2.35,2.7-3.52.07-.11.22-.2.58-.2a5.91,5.91,0,0,1,1.65.38,5.15,5.15,0,0,0,.76.24c1.22.32,2.47.61,3.7.89,1.52.33,2.95.57,4.37.76a27.56,27.56,0,0,0,6.09.29,22.14,22.14,0,0,0,3.61-.7c.63-.16,1.28-.34,1.92-.52a35.05,35.05,0,0,1,4-1,11.69,11.69,0,0,1,2.89-.15,15.51,15.51,0,0,1,1.66.27c.45.08.9.17,1.36.22.92.13,1.86.25,2.79.36,3.53.43,6.61.76,9.5.94,2.28.11,4.57.11,6.85,0a62.22,62.22,0,0,1,7.48,0c1,.1,2.09.2,3.14.25s2.28.06,3.35.14a12.91,12.91,0,0,0,2.24.07,35.68,35.68,0,0,1,9.32,1c1,.21,2,.41,3,.59a42.93,42.93,0,0,0,8.47.62h1.52a13.66,13.66,0,0,1,4.4.57,10.91,10.91,0,0,1,3.41,2.28,23.63,23.63,0,0,0,1.91,1.56,29.22,29.22,0,0,0,3,1.71c1.87.94,3.82,1.91,4.91,3.42a22.61,22.61,0,0,1,3.05,7.11l.19.59a19.74,19.74,0,0,1,.95,4.74,18.73,18.73,0,0,0,.5,3.16,30.08,30.08,0,0,0,3.05,7.91,85.53,85.53,0,0,0,4.66,7.43c1.11,1.65,2.25,3.3,3.31,5,2.65,4.36,5,9,2.54,13.34a28.14,28.14,0,0,1-2.78,3.81,27.11,27.11,0,0,0-2.93,4,41.13,41.13,0,0,0-3,7.23,34.33,34.33,0,0,1-3.43,7.74c-.59.9-1.27,1.76-2,2.67a27.35,27.35,0,0,0-3,4.42c-.53,1.07-1.06,2.24-1.7,3.81-5,12.25-5.62,24.52-1.65,34.55,4.29,10.94,14.86,19.15,27,20.93a32.26,32.26,0,0,0,17.67-1.91c1.27-.53,2.53-1.17,3.72-1.8a27.84,27.84,0,0,1,6.36-2.64,86.43,86.43,0,0,0,9.22-2.61c1.65-.56,3.24-1.24,4.81-1.93a76.34,76.34,0,0,1,8-2.76c1.73-.53,3.53-1.08,5.28-1.7a23.74,23.74,0,0,0,5-2.29,11,11,0,0,0,.93-.71,3.78,3.78,0,0,1,1.91-1.06,1.75,1.75,0,0,1,1.61.88c2.77,4.13,5.22,7.52,7.75,10.61a30.64,30.64,0,0,1,6.4,12.56c2.16,8.81,6.47,16.23,12.45,21.47.52.46,1.06.92,1.65,1.37a39.5,39.5,0,0,1,5.46,5.28A52,52,0,0,1,369.4,402c.9,1.47,1.85,3,2.92,4.41,4,5.34,7.7,8.93,11.79,11.47a31.59,31.59,0,0,0,3.12,1.72,23.16,23.16,0,0,0,9.79,2.15h.1a23.7,23.7,0,0,0,2.66-.14A34.59,34.59,0,0,0,414,416.73a32.1,32.1,0,0,0,7.12-5.53c.6-.63,1.2-1.33,1.79-2,2.29-2.72,4.69-5.54,8.26-5.54a2.19,2.19,0,0,1,1.53.49c.07.07,8.48,7,17.15,7a12.59,12.59,0,0,0,8.74-3.38A21.47,21.47,0,0,0,465.73,390.08Zm-22.29-130.9a15.44,15.44,0,0,1,3.65.3,1.53,1.53,0,0,1,1,.46,1.31,1.31,0,0,1,.16.82,2.93,2.93,0,0,0,.15.6c.38,1.52,1.71,2.81,1.78,4.46a1.53,1.53,0,0,1-.61,1.28c-.66.45-1.65-.12-2.24-.41a9.8,9.8,0,0,1-3.3-2.48,13.71,13.71,0,0,1-.76-1.65,10.55,10.55,0,0,0-3.57-3.14C441,259.28,442.21,259.22,443.44,259.18Zm-6.86-14a3,3,0,0,1,.6.77,6.45,6.45,0,0,0,.91.9c.87.79,1.69,1.61,2.48,2.48,1.13,1,1.22,1.84,0,1.92a1.73,1.73,0,0,1-2.06-1.34h0a.89.89,0,0,1,0-.23,1.89,1.89,0,0,0-.38-1.15c-.31-.34-.77-.48-1.1-.83a2.33,2.33,0,0,1-.52-.83,3.91,3.91,0,0,1-.35-1.21c0-.26.12-.65.42-.45Zm.83,36.34a23.23,23.23,0,0,1,7.31-2.6c.21,0,3.73-.4,3.73-.34.48-6.1-5.52-10-6.22-10.45a4.69,4.69,0,0,0,1.12.07l1.19.11c.76.09,1.44.19,2.16.32a18.21,18.21,0,0,1,3.38,1c2.28,1,4.43,2.7,4.91,5.26a5.76,5.76,0,0,1,0,2.34,12.43,12.43,0,0,0-.41,4.58,8.68,8.68,0,0,1-.82,5.16c-.67,1.38-2,2.14-2.72,3.45a18.12,18.12,0,0,1-1.53,3.05,15.87,15.87,0,0,1-6.31,4c7.55,2.32-5.25,10.59-5.25,10.59a3.4,3.4,0,0,0,.46.09c.68.15,1.65.48,1.48,1.38s-1.18,1.66-1.83,2.14a28.6,28.6,0,0,1-3.25,2.21,21.59,21.59,0,0,1-5,2.48,3.67,3.67,0,0,0-2,1.22c-.33.45-.69.89-1,1.33a9.47,9.47,0,0,1-1.08,1.29c-.51.45-1,.41-1.65.58a5.91,5.91,0,0,0-2.39,1.38,14,14,0,0,1-1.93,1.4,29.38,29.38,0,0,1-3.93,2c-1.48.63-3,1.08-4.51,1.58a20.55,20.55,0,0,0-3.23,1.39c-1.07.63-2,1.53-2.95,2.22s-1.77,1.3-2.67,1.91a92,92,0,0,1-9.85,5.59c-1.75.92-3.51,1.75-5.31,2.57-6.76,2.78-16.58,6.81-30.46,3.12a10.38,10.38,0,0,1-2.53-1.28c-.55-.41-.68-1-.11-1.44a4.45,4.45,0,0,1,2.08-.58,21.62,21.62,0,0,1,2.28-.35,7.09,7.09,0,0,0,1.83-.21c1.88-.69.76-.94.76-.94-1.41-.41-6.61,0-6.61,0-.7,0-1.4,0-2.1-.06a1,1,0,0,1-1-.46c-.31-.42-1.06-.44-1.65-.54a5.15,5.15,0,0,1-1.71-.76,5.43,5.43,0,0,1-2.48-3.48,6.16,6.16,0,0,0,2.42.82,10.61,10.61,0,0,0,3.81,0,16.87,16.87,0,0,1,3.88-.39,29.48,29.48,0,0,0,3.12.1c4-.48,4.72-1.39,4.72-1.39a27.38,27.38,0,0,1-3.74-.37c-.36-.07-.7-.14-1.05-.24a16.39,16.39,0,0,0-1.81-.68c-1-.19-2.07,0-3.12-.24-2.29-.5-4.58-.7-6.82-1.39l-.19-.06c0-.09-.11-.14-.21-.2s-4.22-1.75-3.88-6.21a5.5,5.5,0,0,1,.23-1.21,4.32,4.32,0,0,1,1.27,1.72,4.55,4.55,0,0,0,1.8,2,4,4,0,0,0,2.54.35,8.74,8.74,0,0,1,2.69.27c2.36.48,4.76,1.22,7.2.52a12.27,12.27,0,0,1,4-.07c.46,0,.9.16,1.37.17.91.06,2.62,0,2.88-1.13a1.3,1.3,0,0,0-.83-1.32,7.1,7.1,0,0,0-3-.18,5.18,5.18,0,0,1-1.52-.16c-.9-.23-1.74-.64-2.64-.82s-1.85-.25-2.74-.39c-.44-.06-.89-.12-1.32-.2-2.11-.32-4.19-.76-6.25-1.26-1.67-.38-3.33-.85-5-1.39-2-.76-4-2-4.64-4.13a6.09,6.09,0,0,1,.76-4.95,2.14,2.14,0,0,1,.42-.43s-1.1,3.73.95,5.67a5.87,5.87,0,0,0,1,.83,13.37,13.37,0,0,0,4.77,1.43c3.5.54,8.11,1.52,11.52.22,3.19-1.2,6.71-.77,10-.83a67.79,67.79,0,0,0,14.8-2.69c1.78-.55,3.56-1.21,5.33-1.8a41.9,41.9,0,0,1,4.89-1.52,42.32,42.32,0,0,1,4.36-.25,21.28,21.28,0,0,0,6-1.32c1.37-.54,2.15-2.17,3.26-3.05a7.85,7.85,0,0,1,3.37-1.69c1.09-.18,2.11.36,3.19.36,2.11,0,3.69-1.8,5.78-2a4.59,4.59,0,0,1,1.77.17,3.81,3.81,0,0,0,.57.29c-1.65.51-2.9,4.46-2.9,4.46h2.61a6.26,6.26,0,0,0,1.65-.37c1.19-.49,1.18-1.56.83-2.67a8,8,0,0,1-.59-2,4.43,4.43,0,0,1,.52-2.42,4.67,4.67,0,0,1,3.62-2.18c1.6-.19,3.3-.06,4.57-1.28,1-1,.76-2.14.83-3.4a5,5,0,0,1,1.19-3.35c1.37-1.37,3.74-1.78,5.57-1.8.25,0,3.24,0,3.31.33-.48-3.11-4.08-4.25-6.65-4.85-.6-.15-1.53-.39-1.53-1.17.08-1.24,1.9-2,2.77-2.42Zm-69.12,26.32a13.76,13.76,0,0,1-3.3-.76,8.92,8.92,0,0,1-3.9-2.41l-.2-.2a10.19,10.19,0,0,0-3.5-2.17c-.34-.15-.69-.31-1-.49a5.39,5.39,0,0,1-2.88-3.43c0-.13,0-.27-.05-.4,1.39-1.65,9.2,3.31,10.58,3.62.83.19,1.65.36,2.52.58a29.45,29.45,0,0,1,5.39,1.81,7.63,7.63,0,0,1,2,1.44,2.55,2.55,0,0,1,.95,2.37,2.19,2.19,0,0,1-.63,1.09,9.17,9.17,0,0,1-3,2,17.41,17.41,0,0,1-6.31,1.15,6.86,6.86,0,0,0,.91-.12,4.24,4.24,0,0,0,2.1-1.25c.53-.48,1.15-.83,1.65-1.36a.78.78,0,0,0,.21-.33v-.06C369.82,308.62,369.59,308.26,368.29,307.87Zm25.6-43.46s0-12,6.19-14.91c0,0-9.13,19.53,3.15,33.12l-.61-.43h0c-1,1-5.33,5.26-5.87,6-4.08-7.32-3.56-9.72-3.51-9.76a32.93,32.93,0,0,0,3.67-2.55A20.25,20.25,0,0,1,393.89,264.41Zm13.38,37.77,8.86-7s-3.43,5.1-8.91,7Zm16.52-74.54c1.22-6.27,6,7.54,6,7.54.55,2.57,3.12,4.13,4.4,6.26,1,1.65,0,1.77-1.39,1.34a17.29,17.29,0,0,1-6.14-3.76c-1.58-1.43-2.89-3.16-4.89-4s-4.31-1.21-6.32-2.22c-.71-.36-1.87-.76-.83-1.52,2.52-1.67,8.46.38,9.22-3.6Zm-11.06-16.39a6.31,6.31,0,0,0,2.7,4.65c.51.41,1.13.72,1.65,1.16.76.72,1,1.82,1.65,2.65,1.15,1.53,3.6,2,4.37,3.77s-3.7,0-4.33-.3a23.54,23.54,0,0,0-5.28-2.24c-3-.61-.61-.53-1.48-2.62s-5.41-4.57-5.41-4.57c-1.44-.42-1.22-1.1-.13-1.78a23,23,0,0,0,3.61-2.76c.51-.46,1.08-.77,1.7-.4s.9,1.73,1,2.48Zm7.26-40.9a10.53,10.53,0,0,1,.68,1.44c2.15,5.72-.7,13.35-8.56,23.23l-.37-.83c-.15-.41-.34-.82-.57-1.33C418.66,183.47,421.55,176,420,170.35Zm-11.82,18.37c-.29-.28-.56-.56-.91-.88a8.84,8.84,0,0,1-1.06-1.06,22,22,0,0,1-1.74-2.92c-.28-.56-.58-1.11-.93-1.76l-.1-.16-.47-.83a3.38,3.38,0,0,1-.24-.41c-.33-.54-.61-1.1-.94-1.73s-.57-1.08-.87-1.66a46.23,46.23,0,0,0-2.57-4.2c-.2-.3-.41-.58-.62-.88a21.59,21.59,0,0,1,10.21-2.7h.52c.05,0,4.88.05,7,2.86.36,2.78-.82,7.68-7.24,16.35Zm-1.52-22.3h.55c.07,0,6.24,0,7.9,4.54-2.53-2.29-6.56-2.59-6.6-2.59h-.57a22.22,22.22,0,0,0-10.8,3.12c-.46-.62-.93-1.24-1.41-1.83a22.2,22.2,0,0,1,10.93-3.2Zm-15,5.9c.49.58,1,1.16,1.44,1.75-18.68,13.72-35.55,49.55-45.46,74h-1.81c9.64-24.23,26.84-61.49,45.85-75.77Zm-34.51-27.91s-9.52,1.24-12,16.74c0,0-2.48,15.64,5.41,16.59a37.46,37.46,0,0,1-4.82,5.47c-2.9,3.39-11.42,8.44-14.67,10a43.3,43.3,0,0,1-10.28,3.43c-1,.2-1.93.35-2.9.48a30.27,30.27,0,0,1,0,3.3c-.05,1.23-.18,2.48-.34,3.67a37.78,37.78,0,0,1-1.71,7.11,37,37,0,0,0,1-7.18c.05-1.2,0-2.4,0-3.6a30.09,30.09,0,0,0-.32-3.14c-1,.11-2.05.19-3.1.24a22,22,0,0,1-1.32,8.53c.28-2.08.9-6.46,0-8.49a55.6,55.6,0,0,1-12.6-1.24,51.67,51.67,0,0,0,20.93-1.14,42.94,42.94,0,0,0,9.59-4c1.08-.62,2.16-1.22,3.18-1.91.22-.15,2.83-2,2.78-2-.94-.55-1.86-1.31-2.9-.52a32.57,32.57,0,0,1-8.67,5,40.6,40.6,0,0,1-9.75,2.6,48.44,48.44,0,0,1-19.71-1.5,47.53,47.53,0,0,0,19.48.14c1.11-.24,2.2-.52,3.3-.82a24.17,24.17,0,0,0,7.59-3.72c3-2.28,5.2-5.78,7-9.08a50.56,50.56,0,0,0,3.49-7.77,45.9,45.9,0,0,0,2.22-10.74c1.26-14.86-9.85-16.94-8.67-17.16,0,0,13.39-3,15.19,11.38a113.32,113.32,0,0,0-.74-26.09c-4.23-28.9-26.13-33.71-26.13-33.71s38-2,39.4,49.05Zm-50.38,1.65,4,.3c1.32.08,2.63.18,3.93.15a34.36,34.36,0,0,0,3.93,0c1.31-.07,2.61-.23,3.95-.4v.08a24.35,24.35,0,0,1-7.91,1.07,36,36,0,0,1-7.93-1.07ZM275,139.2h0a15.16,15.16,0,0,1,1.66,1.44,36.68,36.68,0,0,0,9.91,7.19,52.46,52.46,0,0,0,17.34,4.59,86.69,86.69,0,0,0,20.49.15s13.11-1.66,10.47,10a54.61,54.61,0,0,1-3.65,11.07c-5.23,11.05-16.73,17.45-29.06,16.65a40.27,40.27,0,0,1-22.84-8.07h0l0-.07a32.33,32.33,0,0,1-5.07-4.64,33.45,33.45,0,0,1-4.73-7.05c-4.09-8.07-6.56-20.52-2.62-29a12.14,12.14,0,0,1,1.4-2.28c2-2.53,4.65-1.58,6.8,0Zm-25.14-12.07c5.18-3.81,10.73-4.41,17.26-2.24l-.7,1.8c-.14.45-.29.61-1.47,1.33l-.59.39c-3,2-4.9,5.59-5.78,11.08a6.11,6.11,0,0,1-.22.94,2.29,2.29,0,0,1-.47.95.55.55,0,0,1-.31.07,94.63,94.63,0,0,0-11.63,1.27c.17,5.78,1.93,11.94,4,17.23,1.36,3.48,2.94,6.94,4.31,9.86q2.63,5.61,5.72,11.06c3,5.29,6.37,10.52,9.62,15.58,3.14,4.86,6.36,9.91,9.29,15,6.23,10.79,11.47,20.65,15.94,30.05.53-.27,1.07-.51,1.59-.77a36.4,36.4,0,0,1,8.38-3.67,35.43,35.43,0,0,1,9.29-1.05,23.46,23.46,0,0,1,6.72.83c1.52.51,2.59-.53,3.39-1.73a25.21,25.21,0,0,0,2.48-4.85c1.18-3.05,2-6.2,3.3-9.2.88-2,1.72-4,2.66-6a97,97,0,0,1,6.86-12.43,48.88,48.88,0,0,1,7.51-8.85l2.48-2.28c1.65-1.65,3.3-3.3,4.9-5.08a71.07,71.07,0,0,0,6-7.71,41.43,41.43,0,0,0,4.79-9.25,31.41,31.41,0,0,0,2.05-9.67c0-.47,0-.95,0-1.42a3.68,3.68,0,0,1,1.65-.11c2.13.23,3.48,1.65,5.11,2.89a8.31,8.31,0,0,0,3.86,1.31,15,15,0,0,1,4.29,1.91,35.4,35.4,0,0,1,3.8,2.48,31,31,0,0,1,2.43,2c-20.64,16.1-38.38,54.93-47.95,79.21H296a7.52,7.52,0,0,0-1.24.23Q286.31,229.65,276,212c-2.95-5.12-6.18-10.14-9.3-15-3.3-5.05-6.6-10.29-9.65-15.56-2.06-3.61-4-7.33-5.73-11.08-1.37-2.91-2.95-6.37-4.31-9.85-4.35-11.09-7.37-25.82,2.85-33.34ZM320,255.77a4.44,4.44,0,1,1-8.88,0,4.7,4.7,0,0,1,.12-1.05h8.64a4.05,4.05,0,0,1,.12,1Zm-265.32-65a4,4,0,0,1,.22-.34h0c-.23.4,1.93.83,3.5,1.05a60.9,60.9,0,0,0,7.54-.41,6.79,6.79,0,0,1,2.62,0c2.47.61-1.48.88-1.48.88-7,1.08-8.69.92-8.79.91a17.49,17.49,0,0,1-2.38-.44,2.14,2.14,0,0,1-1.19-.83A1.06,1.06,0,0,1,54.7,190.81Zm-4.34,6.68a5,5,0,0,1,.3-.76h0c-.32.91,2.74,1.87,5,2.41s10.66-1,10.66-1c2.71-.51,3.71,0,3.71,0,3.54,1.45-2.09,2-2.09,2-10,2.47-12.35,2.1-12.49,2.09a14.48,14.48,0,0,1-3.4-1,3.2,3.2,0,0,1-1.65-3.76ZM55,212.84a9.26,9.26,0,0,1-3.51-.37,3.86,3.86,0,0,1-2.28-3.23,4.43,4.43,0,0,0,2.15,1.25,5.78,5.78,0,0,0,3.45-.76,13.77,13.77,0,0,1,4.86-1.39c.54,0,1.09-.08,1.65-.08.91.08,1.82.11,2.73.1a9.61,9.61,0,0,0,2.63-.73c1-.45,2.14-.6,3.17-1A8.8,8.8,0,0,0,72.51,205c2.66-1.92,3.65,0,3.65,0,1.23,1.66-4.18,4.37-4.18,4.37a24.76,24.76,0,0,1-4.07,1.56c-.94.29-1.9.67-2.88.94a8.1,8.1,0,0,1-2.07.36,33.33,33.33,0,0,0-3.87.07c-1.39.19-2.72.5-4.13.59Zm40.71,2.79c-1.65.28-3.3.83-5,1a23.79,23.79,0,0,0-8.68,2.22c-2.28,1.08-4.57,2.29-6.85,3.45-.53.26-1,.55-1.57.82a13.33,13.33,0,0,0-1.4,1c-.48.31-1,.63-1.44.92a24.36,24.36,0,0,1-3,1.66,8.59,8.59,0,0,1-6,.69,5,5,0,0,1-3.14-3.67,5.13,5.13,0,0,1,.21-2.8,5.24,5.24,0,0,1,.52-1l.14-.22c-.17,2,2,3.45,3.66,4a6.29,6.29,0,0,0,5.78-.89,33.91,33.91,0,0,0,3.49-3.5c2.76-2.64,6.85-3.11,9.85-5.33,2.22-1.66,5.25-3.43,8.06-3.72,3-.32,13.67-4.95,13.67-4.95,2-.95,2.47-.7,1.43,1.06s-2.87,9.33-2.87,9.33c-.36,1.6-5.58-.19-6.74,0Zm34.47-8.94a5.51,5.51,0,0,1-1.11,2.34c-.65.83-1.53,1.52-2.14,2.4-.38.53-.77,1-1.2,1.53L124.06,215c-.68.83-1.35,1.65-2,2.53l-2.3,2.79-2.48,2.92-2.48,2.9c-.83,1-1.65,1.82-2.48,2.71s-1.52,1.61-2.28,2.39c-.65.63-1.31,1.28-2,1.87l-.45.37s-7.1,7.91-12.46,4.19c0,0-3.39-2.55-.92-2.56,0,0,8.9,2.1,19.74-14l10.69-14.47a15,15,0,0,1,1.19-1.65c.66-.71,1.75-1.46,2.77-1.11a2.88,2.88,0,0,1,1.65,1.65A2.2,2.2,0,0,1,130.16,206.69Zm132.21,40.46a37.69,37.69,0,0,1-2.83-4.63,18.48,18.48,0,0,1-2.07-5c-.47-2.16-.77-4.62-2.14-6.45-1.52-2-3.59-4.52-3.69-7.18-.13-3-2.87-4.37-4.9-6a36.4,36.4,0,0,1-5.89-5.88,10.46,10.46,0,0,1-2-3.93s-4.57,2.48-9.08.36a10,10,0,0,0,3.85-5.25s-7.21,5.33-15.6,4.56c0,0,5.69-3.49,6.4-6.74.15-.76-.43-.92-1.06-1-2.37-.39-10.44,6.24-13.68,5.89.72-.12,2.89-2.24,2.09-2.69a4.21,4.21,0,0,0-2.17-.13,16.19,16.19,0,0,0-2.48.39,3.58,3.58,0,0,0-2.28,1.2s-2.55,4.2-9.62,3.3a10.54,10.54,0,0,0,2.28-1.37c.77-.59,2.85-2.28,2.12-3.44s-2.12-.27-2.91.19a26.48,26.48,0,0,1-9.86,3.24,24.88,24.88,0,0,1-2.59.06,11.54,11.54,0,0,1-1.33-.11,4.56,4.56,0,0,0-1.32-.22,13.19,13.19,0,0,0,2.57-.87,8.27,8.27,0,0,0,2.75-1.77c.76-.83,1-2.08-.38-2.4-1-.22-1.83.48-2.68.95s-1.79.9-2.72,1.33a21.26,21.26,0,0,1-6.85,1.95,7.55,7.55,0,0,1-3.58-.48,10,10,0,0,0,3.59-2.42,2.11,2.11,0,0,0,.67-1.8c-.21-.69-1.09-.76-1.71-.76-2.29,0-4.13,1.42-5.92,2.66a23.34,23.34,0,0,1-3.48,2,36.21,36.21,0,0,1-11.43,3.23,28.49,28.49,0,0,1-8.74-.36,51.65,51.65,0,0,1-8.38-2.17,28.69,28.69,0,0,0,7.51-.57s-5.59-.39-7.24-3.53a18.54,18.54,0,0,0,1.29-7.9,21.21,21.21,0,0,0-1.37-5.54,15.32,15.32,0,0,0-3.37-5.11,12.76,12.76,0,0,0-5.33-3.1,18.07,18.07,0,0,0-6.25-.63c15.48-3.09,24.28,9.14,25.71,14a8.73,8.73,0,0,0,3.6-.26A11.82,11.82,0,0,1,139,195.31s8.53,3.67,13.95,1.48c0,0-1.57,2.54-3.23,2.54a26.24,26.24,0,0,0,8.66.31c.58,0,1.43-.06,1.83-.51s.17-.91.17-1.39a2.14,2.14,0,0,1,.32-1.23c.87-1.53,2.48-.77,3.81-1.25s1.52-1.45,1.91-2.6c1-2.55,2.73-6,1.12-8.67.45.61,8.26,11.19,15,9.57a9.42,9.42,0,0,0,4.65-2.67c1.37-1.53,1.36-3.2,1.76-5.09a4.59,4.59,0,0,1,1.53-2.7,8.09,8.09,0,0,1,4.25-1.72,10.21,10.21,0,0,1,2.53-.08,5.78,5.78,0,0,0,4.58-1.65,9,9,0,0,0,2.37-5.17,17.3,17.3,0,0,0-.06-5.18,47.49,47.49,0,0,1,2.48,4.33,36.41,36.41,0,0,1,4,10.42c.14.76.18,1.73.87,2.21,2.48,1.65,5.1-3.54,6.73-4.63a4.85,4.85,0,0,1,3.41-1s-1.4,7.23,2.09,9.08c0,0,2-11.43,6.76-12.58,0,0-.71,8.62,2.78,11.31,2.2,1.65,4.57-.13,5.94-1.89.47-.6,2-1.82,2.79-1.82,2.14,0,2.2,2.89,2.21,4.4a30.67,30.67,0,0,1-.55,5.32s3.81,2.48,3.05,6.4a7.06,7.06,0,0,1,2.67,5.72s1.65.56,1.79.62a6.71,6.71,0,0,1,3,2.28,19.37,19.37,0,0,0,1.34,2.34c1.8,2.1,4.45,3.13,6.39,5.06,1.1,1.09,2.22,2.18,3.3,3.3a39.73,39.73,0,0,1,2.87,3.47c-3.23-10.87-6.09-13.71-12-19.82,0,0,7.28,1.76,13.22,10.37,0,0,7.3,12.39,15.82,24.77,1.93,3.9,3.71,7.68,5.38,11.39-.15.15-.35.27-.49.43a12,12,0,0,0-3.44,6.71,3.67,3.67,0,0,1,3.56-2.8h1.3a8.56,8.56,0,1,0,8.17,2.84,8.66,8.66,0,0,0-4.75-2.84h14.74a4.7,4.7,0,0,0-.12,1.05,5.67,5.67,0,0,0,2,4.25,5.45,5.45,0,0,0,8.82-4.21,5.19,5.19,0,0,0-.11-1.05h2.69c-.22,5.16-.35,10.3-.46,15.46l-.07,2.55a3.06,3.06,0,0,1-.69,1.83,2.91,2.91,0,0,1-1.65,1,19.06,19.06,0,0,1-2.39,0l-10.13-.06c-6.79.06-13.57.06-20.35.2l-10.17.26c-1.52,0-3.17.17-4.66.15a21.73,21.73,0,0,0,2-4.13c1.31-3.65,1.65-7.83-.2-11.35-.1-.19-.22-.37-.33-.55a3.84,3.84,0,0,0,.83,0,4.33,4.33,0,0,0,0-8.57,4.25,4.25,0,0,0-4.75,3.69h0v.31c-.54-.52-1.1-1-1.65-1.52-.68-.69-1.38-1.36-2.07-2a53.72,53.72,0,0,1-3.63-4.75ZM294,256a7.18,7.18,0,0,1,7.23,7.15h0a7.16,7.16,0,0,1-14.32,0,7,7,0,0,1,2.06-5A7.11,7.11,0,0,1,294,256Zm-23.12-.18a3.61,3.61,0,0,1,3.58-3.63h0a3.62,3.62,0,0,1,0,7.23h0a3.25,3.25,0,0,1-1.53-.33A20.63,20.63,0,0,0,271,256.8,3.29,3.29,0,0,1,270.85,255.77ZM457.38,402.21c-1.92,2.24-4.13,4.83-7.24,4.64-6.85-.46-14.81-8.67-15.37-9.14a2.75,2.75,0,0,1-.16-3.49s1.52-3.14,2.79-4.13c0,0-1.45.21-5.41,3,0,0-2.11,1.46-2.92,1.4.31-.69,1.39-3,1.65-3.81a11.94,11.94,0,0,0,.68-3.41c-.19,1.14-6.8,13-11.47,14,.52-1.38,2-7.36.83-10.5a18.06,18.06,0,0,1-1,6.31,35.31,35.31,0,0,1-2.48,5.84c-1.3,1.81-3.6,4.53-5.44,4.72a10,10,0,0,0,.64-2.35,11.71,11.71,0,0,1-1.46,2.55,12.27,12.27,0,0,1-3.31,3,31.22,31.22,0,0,1-3.89,2.14,20,20,0,0,1-4.67,1.35,14.19,14.19,0,0,1-10.51-2.48,3.92,3.92,0,0,0-.62-.45s5.59,1.06,9.08-2.28c0,0,4.21-3,3.31-7.69a5.11,5.11,0,0,1,.48-2.28c.48-1.21,1.24-2.15,1-3.52-.42-2.47-3.71-1.81-5.49-1.81a26.4,26.4,0,0,1-9.46-1.3,48.18,48.18,0,0,0-8.47-2.95,10,10,0,0,0-2.18-.19c.21,0,.68-.47.87-.6a25.42,25.42,0,0,1,2.47-1.32,22.78,22.78,0,0,1,4.13-1.53c-4.45-4.9-.82-10-.56-10.35-1.06,4.39,2,7.87,4.13,9.68.2,0,.4-.07.59-.08a10.82,10.82,0,0,1,2.9.12c.41.05,1.71.37,1.87-.25a1,1,0,0,0-.23-1c-.51-.67-1.42-.9-1.91-1.59a19.21,19.21,0,0,1-1.34-3.05,66.3,66.3,0,0,1-2.84-8.09c-.65-2.37-.77-4.83-2-7l-.29-.44c-1.21,3.05-2.18,6.41-1.65,8.68a13.79,13.79,0,0,0-.82-2.42,7.52,7.52,0,0,0-3.31-3.58c-1.34-.6-2.81-.39-4.23-.45-8.85-.36-12.38-2.28-12.55-2.28,0,0,10.92.82,15.23-1.4a31.26,31.26,0,0,0,4.43-2.06,14.29,14.29,0,0,0-1.92-1.46,27.1,27.1,0,0,0-6.91-2.61,91.62,91.62,0,0,1-11.74-4,86.69,86.69,0,0,1-11.19-5.62,62.26,62.26,0,0,1-10.9-8.21A43.54,43.54,0,0,1,330,327.3a7,7,0,0,1-.76-1.52s-2.09,3.31,1.05,11.52a64.66,64.66,0,0,1-10.54,5.64,32.89,32.89,0,0,1-4.87,1.27c-2.62.72-4.51,2.93-7.15,3.7-2.43.7-4.87,1.36-7.37,1.89-2,.43-4,.72-6,1.33s-3.82,1.19-5.69,1.93a30.12,30.12,0,0,0-3.18,1.41s-19.23,11.18-31.44-6.53c0,0,9.91,3.63,18,.25,0,0,8.54-3.18,13.56-2.55a14.78,14.78,0,0,0,2.64.33,8.81,8.81,0,0,0,2.61-.21,8.67,8.67,0,0,1-2.48-.38,14.9,14.9,0,0,1-2.35-.83c-1.88-.89-3.85-1.44-5.5-2.7a14.38,14.38,0,0,1-3.94-4.69,28.34,28.34,0,0,0-5.29-7,29.38,29.38,0,0,0-6.23-4.49,31.87,31.87,0,0,0-8.94-3.16,43.14,43.14,0,0,0-12.06-.49c-.14,0-1.65.13-1.65.14s5.89-10.66,27.32-1.53c0,0,12.81,6.3,17.23,14.92a22.25,22.25,0,0,1,9.51.28c1.12.35,2.2,1.2,3.43,1.25,2.05.07,4.25-1.25,6-2.19,1.29-.76,3-1.9,3.05-3.53.07-1.1-.92-2-1.74-2.58-1.19-.82-2.47-2.64-1.81-4.17a1.86,1.86,0,0,0-.65-2.41,20.26,20.26,0,0,0-2.48-2,35.37,35.37,0,0,0-10.16-4.38c-3.58-.9-8.88-1.39-10.73-5.17a4.43,4.43,0,0,1-.11-3.3c0,.36,1.65,1.6,1.88,1.74a9.91,9.91,0,0,0,5.15,2.05c2.47.23,4.89,0,7.35.38a21.82,21.82,0,0,1,6.4,1.71,9.35,9.35,0,0,1,2.86,2,18.15,18.15,0,0,1-1.07-1.8,13.24,13.24,0,0,0-4.06-3.42,18,18,0,0,0-3.56-1.42c-1.7-.45-3.46-.36-5.08-1.08a7.43,7.43,0,0,1-3.64-3.4s4.92,1,11.8-2.44a4.25,4.25,0,0,0,1.11-.5,8.64,8.64,0,0,0,.94-.64,6.59,6.59,0,0,0,1.45-1.71,7.39,7.39,0,0,1-1.78,1.19c-1.87.82-5.78.21-7.19-.15a36.18,36.18,0,0,1-11.42-4.76,29.77,29.77,0,0,1-5.14-4.57c-1.29-1.35-2.85-2.42-4.13-3.8-1.52-1.58-3-3.55-3.15-5.78a5.27,5.27,0,0,1,1.26-3.58c.19-.25.36-.52.54-.76,1.72.18,3.3.17,4.95.26l10.17.26c6.78.14,13.56.14,20.35.21l10.15-.09a18.7,18.7,0,0,0,2.7-.1,4.47,4.47,0,0,0,3.6-4.4l-.06-2.56c-.12-5.15-.25-10.29-.47-15.45h21a3.68,3.68,0,0,1,3.67,3.67V285a3.65,3.65,0,0,1-2.67,3.51,5.69,5.69,0,0,0,4.4-3.05l.93-1.72a17.32,17.32,0,0,0,1.73-6.91V251.76c0-2-1-3.73-3.68-3.67h-.26c9.91-24.37,26.83-59.92,45.33-73.28.33.46.68.9,1,1.37q1.27,1.88,2.35,3.86a42.87,42.87,0,0,1,2.15,4.42c-5.79,4.13-11.9,8.32-17.21,13.21a55.51,55.51,0,0,0-7.09,7.85c-4.33,6-7,14.17-5.59,21.47a25.53,25.53,0,0,0,3,7.72c1.41,2.47,2.9,5.49,4.89,7.58,2.23,2.35,3,4.18,2.76,7.38a37.58,37.58,0,0,1-2.55,10.17,83.4,83.4,0,0,1-3.81,8.74c-2.15,4.28,13-18.86,15.36-33,0,0-.45,21.42-4.64,33,0,0-7.93,18.64-7.47,21.47,0,0,6.08-13.05,9.55-15.61-.14,3.54.9,6.86,1.15,10.37a56,56,0,0,0,2.37,12c-.21,0-.4.09-.62.09h-.17a11.8,11.8,0,0,1-3.71-.76l-.34-.09a8.29,8.29,0,0,0-2.57-.38,18,18,0,0,0-2.54.23c-.42.06-.83.14-1.26.24a6,6,0,0,1-2.28.25c-1.15-.15-2.28-.34-3.43-.53-1.38-.23-2.77-.45-4.19-.63a17.83,17.83,0,0,1-6.31-1.95,9.66,9.66,0,0,0-4.13-1.22,6,6,0,0,0-4.79,2.6,5.93,5.93,0,0,0-.75,3.3l0,.32v.25a5.92,5.92,0,0,0,3.23,3.88,10,10,0,0,0,1.09.54l.28.12a8.85,8.85,0,0,1,3,1.88l.17.19a9.54,9.54,0,0,0,4.18,2.61,13.48,13.48,0,0,0,3.31.76,3.27,3.27,0,0,1,.95.34,9.3,9.3,0,0,1-.83.7c-.25.19-.5.38-.76.6a3.47,3.47,0,0,1-1.75,1.07c-.27.05-.54.09-.83.12s-.76,0-1.19,0h-2.23c-1.07.08-2.12.25-3.16.41a27,27,0,0,1-3.8.45h-.19a11,11,0,0,1-4.31-1.14,23.67,23.67,0,0,0-5.61-1.41l-.56-.09a11,11,0,0,0-1.8-.19,3.55,3.55,0,0,0-3,1.37,6.89,6.89,0,0,0-.82,5.59c.62,2,2.21,3.49,4.71,4.47-.06.08-.09.15-.14.23-.13.3-.25.61-.35.92a5.66,5.66,0,0,0-.26,1.35,7.06,7.06,0,0,0,3.87,6.69l-.12.09a2.34,2.34,0,0,0-.76,1.24,5,5,0,0,0,0,2.48,6.25,6.25,0,0,0,2.76,4,5.87,5.87,0,0,0,1.95.82,1,1,0,0,1,.42.07,1.2,1.2,0,0,1,.76.2c.12.12,0,.06.09.23a1.4,1.4,0,0,1,.09.29,3.59,3.59,0,0,0,.2.51,9,9,0,0,0,3.31,3.52,4.79,4.79,0,0,0,.82.4c1.31.52,2.4.89,3.37,1.19a43.93,43.93,0,0,0,12.57,2h.55a49.5,49.5,0,0,0,22.3-5.66,59.22,59.22,0,0,0,7.61-4.57c1-.73,2-1.53,2.95-2.34l.11-.09a30.43,30.43,0,0,1,1.58,3.31,12.81,12.81,0,0,1,1,4.73,4.05,4.05,0,0,0,1.18,2.48c1.65,1.94,1.09,5.33,1.09,5.33-.19,1.25-.47,2.48-.76,3.71a17.82,17.82,0,0,1-1.18,3.55,6.36,6.36,0,0,0,2.41-4.86,5.21,5.21,0,0,0,.59,1.12c1.38,2,2,1.57,1.65,4-.1,1-.76,5.66,1.26,5.38.66-.11,1.09-.88,1.44-1.35a5,5,0,0,1,1.52-1.46c.55-.29,1.19-.37,1.7-.63.72-.39,1.53-1.7,4.47-2.29,4.37-.76,8.5,3.05,8.85,3.23-1.33-4.3-4.27-5.08-3.94-5.34a10.68,10.68,0,0,1,2.69-1.81c1.22-.46,2.29-.15,3.38-.56a8.21,8.21,0,0,0,2.53-2c.57-.47,5.05-5,6.95-1.24l16.05,35.35S464.91,393.52,457.38,402.21Z"/></g></svg>