<svg id="Layer_1" data-name="Layer 1" xmlns="http://www.w3.org/2000/svg" xmlns:xlink="http://www.w3.org/1999/xlink" viewBox="0 0 508.01 401.37"><defs><style>.cls-1{fill:url(#linear-gradient);}.cls-2{fill:#fff;}</style><linearGradient id="linear-gradient" x1="769" y1="155" x2="769" y2="155" gradientUnits="userSpaceOnUse"><stop offset="0" stop-color="#2e3192"/><stop offset="1" stop-color="#93278f"/></linearGradient></defs><path class="cls-1" d="M769,155" transform="translate(-3.99 -62.63)"/><g id="_1" data-name=" 1"><path class="cls-2" d="M511.94,425.71c-.54-7.54-3.79-14.39-7-21-.79-1.65-1.57-3.3-2.29-4.92-2.74-6.14-5.51-12.29-8.28-18.39l-1.5-3.36c-.2-.44-.42-.92-.65-1.36l-.14-.29a18.43,18.43,0,0,1-1.18-2.69,9.12,9.12,0,0,0-8.49-6.22,12.54,12.54,0,0,0-5.53,1.42,34.62,34.62,0,0,1-3.23,1.35l-.22.09a39,39,0,0,0-3.92,1.71,23.28,23.28,0,0,0-4.24,3,16,16,0,0,1-3.77,2.58c-1.54.64-3.16,1.22-4.81,1.84l-.75.27c-.57.19-1.13.41-1.7.62l-.55.21v-.4c0-.92-.32-9.5-4-16.28a9.26,9.26,0,0,1-1.12-4.11s0-1.73-.3-4.68c1.94-.93,4.12-1.76,6.82-2.77.77-.28,1.54-.53,2.39-.82a36.52,36.52,0,0,0,8.68-3.69l.55-.36a18,18,0,0,0,3.45-2.55,20.65,20.65,0,0,1,6.06-4.16,34,34,0,0,0,7.75-5,18.79,18.79,0,0,0,3.41-4.52,59.34,59.34,0,0,0,4-8.6,19.18,19.18,0,0,1,4.27-7,32.13,32.13,0,0,0,5.61-8.54,34.73,34.73,0,0,0,3.61-10.72c.61-5.11-.56-11.12-3.43-17.35-.69-1.48-1.36-2.77-2-4-.33-.6-.72-1.17-1.09-1.71a7.4,7.4,0,0,1-.92-1.59l-.12-.4a28.24,28.24,0,0,0-2.29-5.61,60.3,60.3,0,0,0-3.48-5.39,81.26,81.26,0,0,0-6.81-8.25l-1-1.1a26.92,26.92,0,0,1-4.51-5.68c-.72-1.37-1.37-2.91-2.06-4.51-.76-1.89-1.62-3.73-2.56-5.53a72.28,72.28,0,0,0-10-13.91l-.78-.92a41,41,0,0,0-3.68-3.89l-.86-.73a9.64,9.64,0,0,1-2-1.92,11.26,11.26,0,0,1-1.21-3.28,22.78,22.78,0,0,0-2.88-6.59,18.86,18.86,0,0,1-1.76-4.26c-.35-1.05-.72-2.17-1.17-3.23-.92-2.05-1.58-3.59-2.24-5l-.06-.14a7,7,0,0,0-.41-.92c9.93-12.4,13.43-22.14,10.72-29.43a12.52,12.52,0,0,0-2.77-4.35c-4-7.12-13.62-7.76-14.14-7.77h-.81c-5.85,0-11.62,2-17.24,5.46a41.3,41.3,0,0,0-3.47-3.14,30,30,0,0,0-7.48-4.41c-2.62-1-7.1-3-8.78-4.38-.29-.23-6.87-5.53-14.41-6.51,1.16,3.81,1.18,9.08-.29,14.66-2.59,9.88-8.71,16.83-13.67,15.52s-6.89-10.36-4.31-20.23,8.72-16.82,13.69-15.51a5.33,5.33,0,0,1,2.68,1.84,88.15,88.15,0,0,0-3.5-29.73C378.8,86.67,366.48,67,335.85,63.2a46.66,46.66,0,0,0-7.65-.57c-11.6,0-38.62,3.69-53.94,35.44l-.44,1c-9.75-3.08-18.35-2.76-26.75,3.43-7.67,5.64-11.22,14.52-10.6,25.83l-.65.16a19.31,19.31,0,0,1-4.07.59,18.66,18.66,0,0,0-8.21,2c-.51.3-1,.61-1.53.93-1.84,1.11-3.36,1.93-4.61,1.84-.46,0-.92-.14-1.49-.26-.75-.14-1.49-.28-2.25-.35a35.79,35.79,0,0,0-12.91,1,35.27,35.27,0,0,0-4.29,1.62c-2.54,1.1-4.83,2.07-6.84,1.37L189,137a24.24,24.24,0,0,0-5.74-1.42,25.68,25.68,0,0,0-7.25.77,33,33,0,0,1-3.28.56c-4.61.44-11.56,2.47-15.86,6.78-1.08,1.09-3.58,1.13-6,1.15a30.61,30.61,0,0,0-4.06.23,19.13,19.13,0,0,0-5.53,2,18.08,18.08,0,0,1-3.55,1.4,16.49,16.49,0,0,1-4.86,0,25.29,25.29,0,0,0-5.36-.13,59.21,59.21,0,0,0-10.9,2.67l-.56.17-2.49.76c-6.27,1.84-13.39,4-18.54,8.43-1.08.63-10.81,6.22-17.53,7.32A29.41,29.41,0,0,0,72.81,169,25,25,0,0,1,69,170c-2.48.38-5.06.56-7.57.73s-5.53.4-8.45.86a58.2,58.2,0,0,0-7.24,1.85c-3.18.92-6.17,1.84-9.17,1.84a11.58,11.58,0,0,1-1.55-.08c-2.5-.21-5.08-.45-7.73-.45a30.74,30.74,0,0,0-7.65.85A14.13,14.13,0,0,0,13,178.81a7.76,7.76,0,0,0-1.49,1.84,7.14,7.14,0,0,0-.73,5.1,10.58,10.58,0,0,0-4.28,4.11l-.14.29a8.67,8.67,0,0,0-.64,1.62,7.66,7.66,0,0,0,0,3.92,7.17,7.17,0,0,0,1.45,2.67,4.1,4.1,0,0,0-.52.5,9.7,9.7,0,0,0-2.5,8.61A11.25,11.25,0,0,0,6,211.9a11.53,11.53,0,0,0,7.71,4.81,27.73,27.73,0,0,0,3.75.4l-.26.34-.22.32a10.39,10.39,0,0,0,.56,11.55,11.75,11.75,0,0,0,9.67,4.46,22,22,0,0,0,8.52-2c1.24-.53,2.5-1,3.76-1.5l.43-.16a63,63,0,0,0,8.62-3.8,19.67,19.67,0,0,1,8.65-2.77,21,21,0,0,0,4.62-1c.84-.26,1.71-.51,2.49-.67-.49.59-1.06,1.15-1.64,1.74s-1.16,1.16-1.68,1.77a18.18,18.18,0,0,0-3,4.93c-1.19,2.89-2.27,6-1.94,9.52a9.46,9.46,0,0,0,2.58,5.74,13,13,0,0,0,9.22,4q5.37,0,10.27-4.51c.82-.6,1.6-1.24,2.39-1.85,1.85-1.5,3.69-3.09,5.69-4.86C88.86,236,91.5,233.48,94,231c3.36-3.3,6.3-6.45,9-9.63,2-2.31,3.82-4.75,5.59-7.12,1.09-1.43,2.15-2.85,3.27-4.26.09-.13.27-.25.7-.25a7.41,7.41,0,0,1,2,.47,7.54,7.54,0,0,0,.92.29c1.48.39,3,.74,4.48,1.07,1.85.4,3.58.7,5.29.92a33.75,33.75,0,0,0,7.38.36A27.64,27.64,0,0,0,137,212c.77-.19,1.55-.41,2.33-.63a43.08,43.08,0,0,1,4.87-1.16,14.17,14.17,0,0,1,3.5-.18,16.82,16.82,0,0,1,2,.32c.55.1,1.09.21,1.65.27,1.12.15,2.25.3,3.38.43,4.27.52,8,.92,11.5,1.14a81.93,81.93,0,0,0,8.3,0,78.24,78.24,0,0,1,9.06,0c1.26.12,2.53.24,3.8.31s2.76.07,4.06.17a16.37,16.37,0,0,0,2.71.08A43.27,43.27,0,0,1,205.44,214c1.2.25,2.43.49,3.69.71a51.77,51.77,0,0,0,10.25.75h1.85a16.53,16.53,0,0,1,5.32.69,13.24,13.24,0,0,1,4.13,2.76A25.76,25.76,0,0,0,233,220.8a32.4,32.4,0,0,0,3.68,2.07c2.26,1.14,4.62,2.32,5.94,4.14,1.85,2.48,2.77,5.59,3.69,8.61l.23.72a23.88,23.88,0,0,1,1.16,5.74,22.34,22.34,0,0,0,.6,3.82,36.54,36.54,0,0,0,3.69,9.63,101.62,101.62,0,0,0,5.65,9c1.34,2,2.72,4,4,6.08,3.22,5.28,6.11,10.9,3.08,16.16a33.81,33.81,0,0,1-3.37,4.61,33.18,33.18,0,0,0-3.54,4.8,48.92,48.92,0,0,0-3.64,8.76,41.11,41.11,0,0,1-4.15,9.37c-.71,1.09-1.54,2.14-2.4,3.24a32.63,32.63,0,0,0-3.69,5.35c-.64,1.29-1.29,2.71-2.06,4.61-6.07,14.84-6.8,29.7-2,41.84,5.2,13.25,18,23.19,32.72,25.35a39.05,39.05,0,0,0,21.35-2.32c1.54-.64,3.06-1.41,4.51-2.18a33.47,33.47,0,0,1,7.7-3.19,105.73,105.73,0,0,0,11.16-3.16c2-.68,3.93-1.5,5.83-2.34a92.35,92.35,0,0,1,9.69-3.34c2.09-.64,4.27-1.31,6.39-2.06a28.65,28.65,0,0,0,6-2.77c.37-.25.75-.55,1.13-.86a4.52,4.52,0,0,1,2.31-1.29,2.11,2.11,0,0,1,1.95,1.07c3.36,5,6.33,9.1,9.39,12.85a37.08,37.08,0,0,1,7.75,15.2c2.61,10.67,7.83,19.66,15.07,26,.64.56,1.29,1.12,2,1.66a47.06,47.06,0,0,1,6.61,6.4,62.48,62.48,0,0,1,3.86,5.78c1.09,1.77,2.24,3.63,3.53,5.34,4.8,6.46,9.33,10.81,14.28,13.88a36.62,36.62,0,0,0,3.78,2.09,28,28,0,0,0,11.85,2.6h.12a28.82,28.82,0,0,0,3.22-.17,41.88,41.88,0,0,0,17.24-5.91,39.4,39.4,0,0,0,8.62-6.69c.73-.77,1.45-1.62,2.17-2.48,2.77-3.29,5.67-6.71,10-6.71a2.7,2.7,0,0,1,1.85.6c.09.08,10.27,8.5,20.77,8.5a15.26,15.26,0,0,0,10.58-4.09A26,26,0,0,0,511.94,425.71ZM485,267.19a18.82,18.82,0,0,1,4.43.37,1.81,1.81,0,0,1,1.18.55,1.6,1.6,0,0,1,.2,1,3.12,3.12,0,0,0,.18.73c.46,1.84,2.07,3.4,2.15,5.39a1.84,1.84,0,0,1-.74,1.55c-.79.55-2-.14-2.71-.49a12,12,0,0,1-4-3c-.46-.58-.52-1.36-.92-2a12.65,12.65,0,0,0-4.32-3.81C482,267.32,483.5,267.24,485,267.19Zm-8.3-16.91a3.42,3.42,0,0,1,.72.93,7.15,7.15,0,0,0,1.11,1.09,40.19,40.19,0,0,1,3,3c1.37,1.17,1.48,2.23,0,2.33a2.11,2.11,0,0,1-2.54-1.9,2.26,2.26,0,0,0-.46-1.4c-.37-.41-.93-.58-1.33-1a2.91,2.91,0,0,1-.63-1,5,5,0,0,1-.42-1.47c0-.31.15-.79.51-.55Zm1,44a28.27,28.27,0,0,1,8.86-3.15c.25,0,4.51-.48,4.51-.41.58-7.38-6.68-12.12-7.53-12.65a6.18,6.18,0,0,0,1.36.09l1.44.13c.92.11,1.74.23,2.61.39a21.59,21.59,0,0,1,4.09,1.21c2.77,1.16,5.37,3.26,5.95,6.36a6.8,6.8,0,0,1,0,2.84,14.81,14.81,0,0,0-.49,5.54,10.58,10.58,0,0,1-1,6.26c-.81,1.66-2.42,2.59-3.29,4.17-.69,1.22-.92,2.57-1.85,3.69a19.12,19.12,0,0,1-7.65,4.8c9.15,2.81-6.35,12.83-6.35,12.83a3.33,3.33,0,0,0,.55.1c.83.19,2,.58,1.8,1.68s-1.43,2-2.22,2.59a36.33,36.33,0,0,1-3.94,2.67,26.19,26.19,0,0,1-6.05,3,4.48,4.48,0,0,0-2.41,1.48c-.4.55-.84,1.08-1.26,1.61a12.16,12.16,0,0,1-1.31,1.56c-.62.55-1.25.5-2,.71a7.13,7.13,0,0,0-2.89,1.67,17,17,0,0,1-2.34,1.69,35.23,35.23,0,0,1-4.76,2.38c-1.79.76-3.64,1.3-5.46,1.91a25.49,25.49,0,0,0-3.91,1.69c-1.29.76-2.38,1.85-3.57,2.68s-2.15,1.58-3.24,2.32a111.1,111.1,0,0,1-11.92,6.77C421.31,364,419.18,365,417,366c-8.19,3.36-20.08,8.24-36.89,3.77a12.38,12.38,0,0,1-3.06-1.54c-.67-.5-.82-1.24-.14-1.75a5.3,5.3,0,0,1,2.52-.7c.91-.19,1.83-.33,2.76-.43a7.93,7.93,0,0,0,2.22-.25c2.28-.84.92-1.14.92-1.14-1.71-.49-8,0-8,0-.85,0-1.7,0-2.55-.07a1.19,1.19,0,0,1-1.24-.56c-.38-.51-1.29-.53-2-.65a6.31,6.31,0,0,1-2.07-.92,6.57,6.57,0,0,1-2.95-4.22,7.22,7.22,0,0,0,2.93,1,12.76,12.76,0,0,0,4.61,0,19.54,19.54,0,0,1,4.7-.47c1.25.1,2.52.14,3.78.12,4.86-.58,5.71-1.69,5.71-1.69a31.31,31.31,0,0,1-4.53-.45c-.43-.08-.84-.16-1.27-.28a18.61,18.61,0,0,0-2.19-.83c-1.25-.23-2.51,0-3.78-.29-2.77-.61-5.54-.85-8.26-1.68l-.23-.08c0-.1-.13-.16-.25-.24s-5.11-2.12-4.7-7.52a6.72,6.72,0,0,1,.28-1.46,5.09,5.09,0,0,1,1.53,2.08,5.66,5.66,0,0,0,2.18,2.44,4.9,4.9,0,0,0,3.08.42,10.82,10.82,0,0,1,3.26.32c2.86.59,5.76,1.48,8.72.64a14.62,14.62,0,0,1,4.85-.09c.56,0,1.09.19,1.66.21,1.1.07,3.17,0,3.49-1.37a1.56,1.56,0,0,0-1-1.6,8.52,8.52,0,0,0-3.69-.22,6.33,6.33,0,0,1-1.84-.19c-1.09-.28-2.11-.78-3.2-1s-2.23-.3-3.31-.47c-.53-.07-1.08-.14-1.6-.24-2.55-.39-5.07-.92-7.57-1.53a61.45,61.45,0,0,1-6-1.68c-2.45-.92-4.81-2.39-5.63-5a7.38,7.38,0,0,1,.93-6,2.42,2.42,0,0,1,.5-.51s-1.33,4.51,1.15,6.86a6.63,6.63,0,0,0,1.24,1,16.07,16.07,0,0,0,5.78,1.74c4.24.65,9.82,1.84,13.95.26,3.86-1.45,8.12-.93,12.14-1,8.3-.29,17.93-3.26,17.93-3.26,2.15-.67,4.3-1.47,6.45-2.18a51.3,51.3,0,0,1,5.92-1.84,51.91,51.91,0,0,1,5.28-.3,25.86,25.86,0,0,0,7.27-1.6c1.66-.66,2.6-2.63,3.94-3.69a9.59,9.59,0,0,1,4.09-2.05c1.31-.22,2.55.44,3.86.44,2.55,0,4.47-2.18,7-2.4a5.54,5.54,0,0,1,2.14.2,3.19,3.19,0,0,0,.69.35c-2,.62-3.51,5.41-3.51,5.41h3.16a7.42,7.42,0,0,0,2-.45c1.44-.59,1.43-1.89,1-3.24a9.46,9.46,0,0,1-.71-2.38,5.23,5.23,0,0,1,.63-2.93,5.66,5.66,0,0,1,4.38-2.64c1.94-.23,4.05-.07,5.54-1.55,1.21-1.19.92-2.59,1-4.12a6.11,6.11,0,0,1,1.44-4.06c1.66-1.66,4.53-2.15,6.75-2.17.3,0,3.92.05,4,.39-.58-3.76-4.93-5.14-8.05-5.87-.72-.18-1.85-.47-1.85-1.42.1-1.5,2.3-2.41,3.35-2.93ZM394,326.16a17.19,17.19,0,0,1-4-.92,10.91,10.91,0,0,1-4.72-2.92l-.24-.25a12.41,12.41,0,0,0-4.24-2.62q-.61-.27-1.26-.6a6.5,6.5,0,0,1-3.48-4.15,4.28,4.28,0,0,0-.07-.48c1.69-2,11.15,4,12.82,4.38,1,.23,2,.44,3.05.7a35.7,35.7,0,0,1,6.52,2.19,9.36,9.36,0,0,1,2.48,1.75,3.08,3.08,0,0,1,1.14,2.87,2.68,2.68,0,0,1-.76,1.32,11.3,11.3,0,0,1-3.69,2.4,21.22,21.22,0,0,1-7.64,1.39,6.62,6.62,0,0,0,1.1-.15,5.1,5.1,0,0,0,2.54-1.51c.64-.58,1.39-1,2-1.65a1,1,0,0,0,.26-.4v-.07C395.85,327.07,395.56,326.59,394,326.16Zm31-52.63s0-14.52,7.5-18.06c0,0-11.06,23.65,3.81,40.11,0,0-.29-.19-.74-.52h0c-1.22,1.19-6.45,6.37-7.1,7.26-4.94-8.86-4.31-11.76-4.26-11.81a41.51,41.51,0,0,0,4.45-3.09A24.57,24.57,0,0,1,424.94,273.53Zm16.21,45.74,10.72-8.45S447.78,317,441.15,319.27ZM461.21,229c1.48-7.59,7.22,9.13,7.22,9.13.66,3.12,3.77,5,5.32,7.58,1.17,2,0,2.15-1.68,1.62a20.67,20.67,0,0,1-7.43-4.55c-1.92-1.73-3.5-3.82-5.92-4.89s-5.23-1.47-7.66-2.69c-.86-.43-2.26-.92-1-1.84C453.1,231.34,460.29,233.82,461.21,229Zm-13.39-19.85c0,2.29,1.55,4.26,3.26,5.63.62.5,1.38.88,1.95,1.41.92.87,1.23,2.2,2,3.21,1.39,1.85,4.36,2.41,5.3,4.56s-4.49,0-5.25-.36c-2.1-1-4.11-2.24-6.39-2.71-3.59-.74-.74-.64-1.8-3.17s-6.55-5.54-6.55-5.54c-1.74-.51-1.47-1.33-.15-2.15a28.45,28.45,0,0,0,4.37-3.35c.61-.55,1.3-.93,2.05-.48S447.71,208.3,447.82,209.18Zm8.78-49.53a12.54,12.54,0,0,1,.82,1.74c2.6,6.93-.85,16.17-10.36,28.13l-.45-1c-.19-.5-.42-1.05-.69-1.62C455,175.51,458.49,166.5,456.6,159.65Zm-14.32,22.24c-.35-.34-.67-.68-1.1-1.06a10.4,10.4,0,0,1-1.28-1.29,26.77,26.77,0,0,1-2.11-3.53c-.34-.68-.7-1.35-1.12-2.13l-.12-.2c-.18-.32-.37-.65-.57-1a5.09,5.09,0,0,1-.3-.5c-.4-.65-.74-1.33-1.13-2.1s-.69-1.3-1.06-2c-1-1.84-2-3.5-3.11-5.09-.24-.37-.5-.71-.75-1.07A26.23,26.23,0,0,1,442,158.59h.63c.07,0,5.91.06,8.47,3.47.43,3.36-1,9.3-8.77,19.8Zm-1.84-27h.67c.08,0,7.56,0,9.57,5.49-3.07-2.77-7.95-3.13-8-3.13H442A27,27,0,0,0,428.93,161q-.84-1.14-1.71-2.22a26.9,26.9,0,0,1,13.23-3.88ZM422.3,162c.6.7,1.19,1.41,1.75,2.12C401.43,180.73,381,224.16,369,253.72h-2.2c11.68-29.34,32.51-74.46,55.53-91.76ZM380.51,128.2s-11.57,1.51-14.52,20.29c0,0-3,18.93,6.55,20.09a46.44,46.44,0,0,1-5.83,6.62c-3.51,4.1-13.83,10.22-17.77,12.16a53.05,53.05,0,0,1-12.44,4.15c-1.18.24-2.34.42-3.52.58a33.36,33.36,0,0,1,0,4c-.06,1.49-.21,3-.41,4.44a45.58,45.58,0,0,1-2.07,8.61,44.7,44.7,0,0,0,1.22-8.69c.06-1.45,0-2.91,0-4.36a37.23,37.23,0,0,0-.38-3.81c-1.25.14-2.49.24-3.76.3A26.47,26.47,0,0,1,326,202.9c.33-2.51,1.09-7.82,0-10.28a66.86,66.86,0,0,1-15.26-1.5,62.42,62.42,0,0,0,25.34-1.38,51.42,51.42,0,0,0,11.61-4.8c1.31-.75,2.62-1.48,3.86-2.32.26-.18,3.42-2.42,3.36-2.46-1.14-.66-2.25-1.58-3.51-.62a39.43,39.43,0,0,1-10.51,6.13,49.68,49.68,0,0,1-11.8,3.14A58.52,58.52,0,0,1,305.22,187a57.64,57.64,0,0,0,23.58.17c1.35-.29,2.67-.63,4-1a29.19,29.19,0,0,0,9.15-4.56c3.69-2.76,6.3-7,8.54-11a62.06,62.06,0,0,0,4.23-9.41,55.81,55.81,0,0,0,2.69-13c1.52-18-11.93-20.52-10.5-20.78,0,0,16.21-3.61,18.39,13.78a136.54,136.54,0,0,0-.86-31.62c-5.12-35-31.64-40.82-31.64-40.82S378.82,66.43,380.51,128.2Zm-61,2c1.64.12,3.24.26,4.84.36s3.18.22,4.76.19a42,42,0,0,0,4.76-.06c1.58-.09,3.16-.28,4.78-.49v.1a29.89,29.89,0,0,1-9.58,1.3,43.77,43.77,0,0,1-9.6-1.3Zm-38.48-8.3h0v.05a18.94,18.94,0,0,1,2.05,1.75,44.69,44.69,0,0,0,12,8.7A63.3,63.3,0,0,0,316,137.91a105.14,105.14,0,0,0,24.82.18s15.87-2,12.67,12.14a64.73,64.73,0,0,1-4.43,13.37c-6.33,13.39-20.25,21.13-35.18,20.17A48.77,48.77,0,0,1,286.22,174h0l-.05-.09a39,39,0,0,1-6.14-5.62,40.64,40.64,0,0,1-5.73-8.54c-4.95-9.77-7.94-24.85-3.17-35.15a14.69,14.69,0,0,1,1.69-2.76c2.44-3.06,5.64-1.92,8.24,0Zm-30.49-14.61c6.28-4.61,13-5.34,20.9-2.72-.27.72-.56,1.44-.84,2.19-.17.54-.36.73-1.78,1.61l-.72.47c-3.64,2.39-5.93,6.77-7,13.41a9.1,9.1,0,0,1-.26,1.15,2.75,2.75,0,0,1-.58,1.14s-.08.08-.37.09a112.88,112.88,0,0,0-14.08,1.54c.2,7,2.33,14.45,4.85,20.86,1.65,4.22,3.56,8.41,5.22,11.94,2.12,4.53,4.44,9,6.93,13.4,3.64,6.4,7.71,12.74,11.65,18.86,3.8,5.89,7.7,12,11.25,18.16,7.54,13.06,13.89,25,19.3,36.38.64-.32,1.29-.61,1.92-.93a44.5,44.5,0,0,1,10.15-4.44,42.24,42.24,0,0,1,11.25-1.27,27.93,27.93,0,0,1,8.14,1c1.84.62,3.14-.64,4.11-2.1a30,30,0,0,0,3-5.87c1.43-3.69,2.43-7.51,4-11.14,1.06-2.44,2.08-4.85,3.22-7.25a119.13,119.13,0,0,1,8.3-15.06A59.7,59.7,0,0,1,368.2,188c1-.92,2-1.84,2.95-2.76,2.05-2,4.05-4,5.94-6.16a87.68,87.68,0,0,0,7.3-9.33,50.64,50.64,0,0,0,5.8-11.2,37.93,37.93,0,0,0,2.48-11.71,16.45,16.45,0,0,0,0-1.72,4.53,4.53,0,0,1,2-.14c2.58.28,4.21,2,6.19,3.5a10,10,0,0,0,4.67,1.59,18.07,18.07,0,0,1,5.19,2.32,41.3,41.3,0,0,1,4.61,3,37.64,37.64,0,0,1,2.94,2.41c-25,19.49-46.48,66.51-58.06,95.92H306.5A8,8,0,0,0,305,254c-6.11-13.57-13.55-28-22.78-44-3.57-6.2-7.48-12.28-11.26-18.17-3.95-6.12-8-12.46-11.69-18.85-2.49-4.37-4.82-8.87-6.94-13.41-1.65-3.53-3.57-7.72-5.22-11.93C241.85,134.21,238.19,116.37,250.57,107.27Zm85,155.78a5.44,5.44,0,0,1-5.44,5.39,5.39,5.39,0,0,1-5.31-5.38,5,5,0,0,1,.14-1.27h10.46a4.88,4.88,0,0,1,.15,1.26ZM14.25,184.4c.08-.14.17-.28.26-.41h0c-.27.48,2.34,1,4.24,1.27s9.13-.5,9.13-.5a8.45,8.45,0,0,1,3.17,0c3,.75-1.79,1.07-1.79,1.07-8.52,1.31-10.52,1.11-10.64,1.1a20,20,0,0,1-2.88-.53,2.59,2.59,0,0,1-1.44-1.05,1.25,1.25,0,0,1-.05-.95ZM9,192.49a6.1,6.1,0,0,1,.37-.92h0c-.39,1.1,3.31,2.27,6,2.92s12.91-1.17,12.91-1.17c3.28-.62,4.49,0,4.49,0,4.29,1.75-2.53,2.45-2.53,2.45-12.12,3-14.95,2.55-15.12,2.53A17.24,17.24,0,0,1,11,197.07a3.89,3.89,0,0,1-2-4.56Zm5.6,18.59a11.23,11.23,0,0,1-4.27-.41,4.71,4.71,0,0,1-2.76-3.91,5.31,5.31,0,0,0,2.61,1.51,7,7,0,0,0,4.18-.92,16.61,16.61,0,0,1,5.88-1.72c.66,0,1.32-.1,2-.1a30.52,30.52,0,0,0,3.31.12,11.65,11.65,0,0,0,3.18-.88c1.25-.55,2.59-.73,3.84-1.17a10.72,10.72,0,0,0,3.24-2.07c3.23-2.33,4.42,0,4.42,0,1.5,2-5.06,5.29-5.06,5.29a30.84,30.84,0,0,1-4.92,1.89c-1.15.35-2.31.81-3.49,1.14a9.78,9.78,0,0,1-2.51.43,43.18,43.18,0,0,0-4.69.08c-1.68.23-3.29.61-5,.72Zm49.3,3.38c-2,.34-4,1-6,1.15a28.64,28.64,0,0,0-10.51,2.69c-2.76,1.3-5.53,2.77-8.3,4.17-.64.32-1.25.67-1.9,1a17.57,17.57,0,0,0-1.7,1.17c-.58.37-1.16.76-1.75,1.12a30,30,0,0,1-3.69,2c-2.25,1-4.9,1.64-7.32.84a6,6,0,0,1-3.81-4.45,6.21,6.21,0,0,1,.26-3.39,5.56,5.56,0,0,1,.63-1.24c.06-.09.12-.18.17-.27-.21,2.47,2.37,4.18,4.43,4.85a7.64,7.64,0,0,0,7-1.08c1.68-1.22,2.77-2.84,4.22-4.24,3.35-3.2,8.3-3.77,11.93-6.46,2.69-2,6.36-4.15,9.76-4.5,3.69-.39,16.55-6,16.55-6,2.49-1.15,3-.84,1.74,1.29s-3.48,11.3-3.48,11.3c-.43,1.93-6.76-.23-8.16,0Zm41.73-10.83a6.73,6.73,0,0,1-1.35,2.84c-.78,1-1.85,1.84-2.59,2.9-.46.64-.93,1.23-1.45,1.85l-2,2.5c-.82,1-1.63,2-2.46,3.06l-2.76,3.38c-1,1.19-2,2.37-3,3.54s-2,2.35-3,3.51-2,2.2-3,3.28-1.84,1.95-2.77,2.89c-.78.77-1.58,1.55-2.43,2.27l-.54.45s-8.6,9.58-15.09,5.07c0,0-4.11-3.09-1.12-3.1,0,0,10.78,2.54,23.91-16.92l12.91-17.52a19,19,0,0,1,1.44-2c.8-.85,2.12-1.77,3.36-1.34a3.51,3.51,0,0,1,2,2,2.76,2.76,0,0,1-.06,1.34Zm160.1,49a46,46,0,0,1-3.43-5.61,22.45,22.45,0,0,1-2.51-6c-.57-2.62-.93-5.6-2.59-7.82-1.84-2.42-4.35-5.47-4.47-8.69-.16-3.57-3.47-5.29-5.93-7.3a44.05,44.05,0,0,1-7.13-7.12,12.66,12.66,0,0,1-2.46-4.76s-5.53,3-11,.43a12,12,0,0,0,4.66-6.36s-8.73,6.46-18.89,5.53c0,0,6.9-4.23,7.76-8.16.18-.92-.52-1.12-1.29-1.26-2.87-.47-12.64,7.55-16.56,7.13.87-.15,3.5-2.71,2.53-3.26a5.1,5.1,0,0,0-2.63-.16,19.71,19.71,0,0,0-3,.48,4.33,4.33,0,0,0-2.76,1.45s-3.09,5.08-11.65,4a13.14,13.14,0,0,0,2.76-1.66c.93-.72,3.45-2.76,2.56-4.17s-2.56-.33-3.52.23a31.8,31.8,0,0,1-11.94,3.92,30,30,0,0,1-3.14.08c-.55-.05-1.08-.07-1.61-.14a5.82,5.82,0,0,0-1.6-.26A16.23,16.23,0,0,0,171,202.1a10.29,10.29,0,0,0,3.34-2.15c.92-1,1.2-2.52-.47-2.91-1.21-.26-2.21.59-3.24,1.15s-2.17,1.1-3.29,1.62a26.07,26.07,0,0,1-8.3,2.36,9.15,9.15,0,0,1-4.33-.58,12.21,12.21,0,0,0,4.34-2.93,2.54,2.54,0,0,0,.81-2.19c-.25-.83-1.31-.92-2.07-.92-2.77,0-5,1.72-7.16,3.23a28.66,28.66,0,0,1-4.22,2.37,43.68,43.68,0,0,1-13.84,3.91,34.42,34.42,0,0,1-10.62-.48s-7.08-1.27-10.15-2.63a34.68,34.68,0,0,0,9.09-.69s-6.77-.47-8.77-4.28a22.47,22.47,0,0,0,1.57-9.56,25.87,25.87,0,0,0-1.66-6.71,18.49,18.49,0,0,0-4.08-6.19,15.38,15.38,0,0,0-6.46-3.75,21.74,21.74,0,0,0-7.57-.77c18.75-3.74,29.41,11.07,31.14,17,2,.11,3.69.06,4.36-.31a14.32,14.32,0,0,1-13.17,3.11s10.34,4.44,16.9,1.79c0,0-1.9,3.08-3.91,3.08a32.07,32.07,0,0,0,10.48.38c.7-.06,1.73-.08,2.22-.62s.21-1.1.2-1.68a2.72,2.72,0,0,1,.39-1.5c1.06-1.85,3-.93,4.62-1.51s1.84-1.76,2.31-3.15c1.15-3.08,3.3-7.29,1.36-10.5.54.74,10,13.55,18.18,11.59a11.35,11.35,0,0,0,5.64-3.23c1.66-1.85,1.64-3.88,2.13-6.16a5.58,5.58,0,0,1,1.85-3.27,9.84,9.84,0,0,1,5.15-2.09,12.06,12.06,0,0,1,3.06-.09,7,7,0,0,0,5.54-2,10.86,10.86,0,0,0,2.87-6.26,20.92,20.92,0,0,0-.07-6.27,53.56,53.56,0,0,1,3,5.24c2.1,4,4.08,8.15,4.86,12.62.17.92.22,2.09,1.06,2.67,3,2,6.17-4.28,8.14-5.61a5.93,5.93,0,0,1,4.13-1.17s-1.69,8.75,2.54,11c0,0,2.4-13.84,8.18-15.24,0,0-.86,10.44,3.37,13.7,2.66,2,5.53-.16,7.19-2.29.57-.73,2.37-2.21,3.38-2.21,2.59,0,2.66,3.51,2.67,5.33a37.62,37.62,0,0,1-.66,6.45s4.61,3,3.69,7.75a8.57,8.57,0,0,1,3.24,6.92s2,.68,2.16.75a8.2,8.2,0,0,1,3.61,2.76,24.24,24.24,0,0,0,1.63,2.84c2.18,2.54,5.39,3.79,7.73,6.12,1.34,1.33,2.69,2.64,4,4s2.38,2.77,3.48,4.2c-3.92-13.16-7.38-16.6-14.52-24,0,0,8.81,2.13,16,12.56,0,0,8.85,15,19.16,30,2.34,4.72,4.5,9.3,6.52,13.79-.19.18-.43.33-.6.52a14.6,14.6,0,0,0-4.16,8.13,4.46,4.46,0,0,1,4.31-3.4h1.57a10.34,10.34,0,0,0-5.92,16.86A10.37,10.37,0,1,0,305,261.75h17.84a5.93,5.93,0,0,0-.14,1.26,6.85,6.85,0,0,0,2.39,5.15,6.6,6.6,0,0,0,10.67-5.1,6,6,0,0,0-.13-1.27h3.26c-.27,6.25-.43,12.48-.56,18.72l-.08,3.09a3.67,3.67,0,0,1-.84,2.22,3.5,3.5,0,0,1-2,1.19,27.86,27.86,0,0,1-2.89,0l-12.27-.08c-8.22.08-16.43.08-24.64.25l-12.31.31c-1.85.05-3.84.2-5.65.18a26.85,26.85,0,0,0,2.39-5c1.58-4.42,2-9.48-.25-13.75-.12-.22-.26-.44-.39-.66a5.35,5.35,0,0,0,1,0,5.24,5.24,0,0,0,0-10.38,5.15,5.15,0,0,0-5.75,4.48c0,.13,0,.25,0,.38-.66-.63-1.33-1.25-2-1.85-.82-.83-1.67-1.64-2.51-2.47C268.51,256.56,267.13,254.65,265.75,252.67ZM304,263.28a8.71,8.71,0,0,1,8.76,8.66h0a8.77,8.77,0,0,1-2.6,6.17A8.65,8.65,0,0,1,295.42,272a8.52,8.52,0,0,1,2.49-6.11A8.63,8.63,0,0,1,304,263.28Zm-28-.22a4.37,4.37,0,0,1,4.34-4.39h0a4.38,4.38,0,0,1,0,8.76h0a4,4,0,0,1-1.85-.4,24.25,24.25,0,0,0-2.35-2.72A3.76,3.76,0,0,1,276,263.06ZM501.88,440.4c-2.33,2.71-5,5.85-8.77,5.62-8.3-.56-17.93-10.5-18.61-11.07a3.33,3.33,0,0,1-.2-4.23s1.84-3.8,3.38-5c0,0-1.75.26-6.55,3.63,0,0-2.56,1.77-3.54,1.7.38-.83,1.69-3.68,2-4.61a14.58,14.58,0,0,0,.83-4.13c-.24,1.38-8.24,15.68-13.89,16.93.62-1.67,2.37-8.92,1-12.72a21.81,21.81,0,0,1-1.22,7.64,44.58,44.58,0,0,1-3,7.08c-1.58,2.18-4.37,5.48-6.59,5.71a12.06,12.06,0,0,0,.77-2.84,13.68,13.68,0,0,1-1.77,3.08,14.87,14.87,0,0,1-4,3.62A37.19,37.19,0,0,1,437,453.4a23.62,23.62,0,0,1-5.65,1.64,17.18,17.18,0,0,1-12.73-3,3.61,3.61,0,0,0-.75-.55s6.77,1.28,11-2.76c0,0,5.09-3.59,4-9.31a6.13,6.13,0,0,1,.59-2.76c.58-1.47,1.5-2.61,1.23-4.26-.51-3-4.49-2.2-6.65-2.2-3.78,0-7.87-.18-11.45-1.57-3.33-1.3-6.61-2.89-10.26-3.57a11.69,11.69,0,0,0-2.64-.24c.26,0,.83-.56,1.05-.72a31,31,0,0,1,3-1.6,27.16,27.16,0,0,1,5-1.85c-5.39-5.93-1-12.06-.68-12.53-1.29,5.31,2.42,9.53,5,11.72.24,0,.48-.09.72-.1a12.91,12.91,0,0,1,3.51.15c.49.06,2.07.44,2.26-.31a1.23,1.23,0,0,0-.28-1.16c-.62-.81-1.72-1.09-2.31-1.93a22.08,22.08,0,0,1-1.62-3.69A80.52,80.52,0,0,1,415.9,403c-.79-2.87-.93-5.85-2.47-8.47l-.35-.53c-1.47,3.69-2.64,7.76-2,10.51a16,16,0,0,0-1-2.94,9.13,9.13,0,0,0-4-4.33c-1.62-.73-3.41-.47-5.12-.54-10.72-.44-15-2.77-15.2-2.77,0,0,13.22,1,18.44-1.69a38.91,38.91,0,0,0,5.36-2.49,16.54,16.54,0,0,0-2.32-1.77,32.47,32.47,0,0,0-8.37-3.17A110.56,110.56,0,0,1,384.66,380a106.73,106.73,0,0,1-13.56-6.81,75.13,75.13,0,0,1-13.19-9.94,52.72,52.72,0,0,1-10.32-13.56,8.33,8.33,0,0,1-.92-1.84s-2.53,4,1.27,13.95a79.6,79.6,0,0,1-12.77,6.85,39.82,39.82,0,0,1-5.89,1.53c-3.17.87-5.46,3.55-8.66,4.48-2.94.85-5.9,1.65-8.92,2.29-2.43.52-4.85.88-7.24,1.61s-4.62,1.44-6.89,2.34a38.87,38.87,0,0,0-3.85,1.71s-23.28,13.54-38.07-7.91c0,0,12,4.39,21.85.3,0,0,10.34-3.85,16.42-3.08a20.43,20.43,0,0,0,3.2.4,10.75,10.75,0,0,0,3.15-.26,10.54,10.54,0,0,1-3-.46,18.2,18.2,0,0,1-2.84-1c-2.28-1.08-4.66-1.75-6.66-3.27a17.45,17.45,0,0,1-4.75-5.74,34.26,34.26,0,0,0-6.4-8.45,35.67,35.67,0,0,0-7.54-5.43,38.63,38.63,0,0,0-10.83-3.83,52.16,52.16,0,0,0-14.6-.59c-.17,0-2,.15-2,.17s7.13-12.91,33.08-1.85c0,0,15.51,7.62,20.87,18.06,3.69-.57,7.92-.75,11.51.34,1.36.42,2.67,1.46,4.15,1.52,2.49.08,5.15-1.52,7.26-2.66,1.56-.92,3.6-2.3,3.69-4.27.09-1.33-1.11-2.42-2.1-3.12-1.45-1-3-3.2-2.2-5.05a2.25,2.25,0,0,0-.79-2.92,23.29,23.29,0,0,0-3-2.37,42.9,42.9,0,0,0-12.3-5.3c-4.34-1.09-10.76-1.68-13-6.26a5.4,5.4,0,0,1-.13-4c0,.44,2,1.94,2.28,2.11a12,12,0,0,0,6.23,2.48c3,.28,5.93,0,8.9.46a26.39,26.39,0,0,1,7.76,2.08,11.14,11.14,0,0,1,3.46,2.42,25.07,25.07,0,0,1-1.3-2.18,15.68,15.68,0,0,0-4.91-4.14,21.66,21.66,0,0,0-4.31-1.72c-2.06-.55-4.19-.44-6.16-1.31a9,9,0,0,1-4.4-4.12s5.95,1.17,14.28-2.95a5.14,5.14,0,0,0,1.35-.61,8.83,8.83,0,0,0,1.14-.78,8.09,8.09,0,0,0,1.76-2.06,9.11,9.11,0,0,1-2.16,1.43c-2.26,1-7,.26-8.71-.18a43.69,43.69,0,0,1-13.83-5.76,36.75,36.75,0,0,1-6.22-5.53c-1.56-1.64-3.45-2.94-5-4.61-1.84-1.91-3.69-4.3-3.82-7a6.42,6.42,0,0,1,1.53-4.33c.23-.3.44-.63.65-.92,2.09.22,4,.2,6.05.31l12.31.32c8.21.17,16.42.17,24.64.25l12.3-.1a23.85,23.85,0,0,0,3.27-.13,5.38,5.38,0,0,0,4.35-5.33l-.07-3.09c-.14-6.24-.3-12.47-.57-18.72h25.43a4.47,4.47,0,0,1,4.45,4.45V298.4a4.43,4.43,0,0,1-3.24,4.25,6.88,6.88,0,0,0,5.33-3.69l1.13-2.09a21,21,0,0,0,2.09-8.37V258.21c0-2.44-1.25-4.52-4.45-4.45h-.32c12-29.51,32.49-72.56,54.89-88.73.4.55.83,1.09,1.22,1.66,1,1.51,2,3.07,2.84,4.67.25.46,2.76,5.2,2.6,5.35-7,5-14.41,10.08-20.84,16a67.28,67.28,0,0,0-8.58,9.51c-5.24,7.21-8.52,17.16-6.77,26.05a31.14,31.14,0,0,0,3.64,9.34c1.71,3,3.52,6.65,5.93,9.18,2.7,2.85,3.61,5.06,3.34,8.94a45.57,45.57,0,0,1-3.09,12.32,114.27,114.27,0,0,1-4.61,10.58s15.78-22.84,18.6-40c0,0-.55,25.94-5.62,40,0,0-9.6,22.57-9.05,26,0,0,7.37-15.8,11.57-18.9-.17,4.28,1.09,8.3,1.39,12.55a67.41,67.41,0,0,0,2.87,14.56c-.25,0-.49.11-.75.11h-.21a14.72,14.72,0,0,1-4.49-.92l-.41-.11a9.69,9.69,0,0,0-3.11-.46,21.24,21.24,0,0,0-3.08.28c-.51.07-1,.17-1.52.29a7.57,7.57,0,0,1-2.76.3c-1.4-.18-2.77-.41-4.16-.64-1.67-.28-3.35-.55-5.07-.76a21.53,21.53,0,0,1-7.64-2.37,11.76,11.76,0,0,0-5-1.47,7.29,7.29,0,0,0-5.8,3.14,7.13,7.13,0,0,0-.92,4l.05.39v.3a7.16,7.16,0,0,0,3.92,4.7,12.28,12.28,0,0,0,1.31.65l.34.15a10.66,10.66,0,0,1,3.64,2.28l.2.22a11.62,11.62,0,0,0,5.07,3.16,16.11,16.11,0,0,0,4,.92,4,4,0,0,1,1.15.42,10.35,10.35,0,0,1-1,.84c-.31.24-.61.47-.92.73a4.2,4.2,0,0,1-2.12,1.3,9.4,9.4,0,0,1-1,.14c-.48,0-.93.05-1.45.05h-1.14c-.53,0-1.06,0-1.56,0-1.29.1-2.57.31-3.82.5a32.73,32.73,0,0,1-4.61.54h-.22a13.07,13.07,0,0,1-5.23-1.38,28.9,28.9,0,0,0-6.79-1.71l-.68-.11a14.52,14.52,0,0,0-2.18-.23,4.24,4.24,0,0,0-3,1,4.06,4.06,0,0,0-.64.67,8.33,8.33,0,0,0-1,6.77c.76,2.4,2.68,4.22,5.71,5.41-.07.09-.11.18-.17.27a9.49,9.49,0,0,0-.42,1.12,6.53,6.53,0,0,0-.32,1.64c-.37,4.94,3.42,7.38,4.69,8.1l-.15.11a2.84,2.84,0,0,0-.92,1.5,6.1,6.1,0,0,0-.11,2.91,7.54,7.54,0,0,0,3.35,4.79,7,7,0,0,0,2.36,1,1.2,1.2,0,0,1,.51.08,1.58,1.58,0,0,1,.92.24c.14.15,0,.08.1.28a1.81,1.81,0,0,1,.12.35,3.61,3.61,0,0,0,.24.62,10.72,10.72,0,0,0,4,4.26,6,6,0,0,0,1,.49c1.59.63,2.9,1.08,4.08,1.44a53.41,53.41,0,0,0,15.26,2.47h.67a59.9,59.9,0,0,0,27-6.86,72.34,72.34,0,0,0,9.22-5.53c1.23-.88,2.43-1.85,3.57-2.84l.13-.1a36.13,36.13,0,0,1,1.92,4,15.68,15.68,0,0,1,1.21,5.73,4.86,4.86,0,0,0,1.42,3c2,2.36,1.33,6.46,1.33,6.46-.24,1.51-.57,3-.92,4.49a22.37,22.37,0,0,1-1.43,4.3,7.71,7.71,0,0,0,2.91-5.88,7.27,7.27,0,0,0,.72,1.35c1.67,2.47,2.38,1.9,2,4.85-.12,1.24-.92,6.85,1.52,6.51.8-.13,1.32-1.06,1.75-1.63a6,6,0,0,1,1.84-1.77c.66-.35,1.44-.45,2.06-.77.87-.47,1.85-2.05,5.41-2.77,5.29-.92,10.29,3.69,10.72,3.91-1.61-5.21-5.18-6.15-4.77-6.46,1.28-.92,1.77-1.63,3.25-2.19s2.77-.19,4.1-.68,2.05-1.54,3.06-2.42c.69-.58,6.12-6.07,8.41-1.51l19.44,42.82S511,429.88,501.88,440.4Z" transform="translate(-3.99 -62.63)"/></g></svg>