<svg id="Layer_1" data-name="Layer 1" xmlns="http://www.w3.org/2000/svg" viewBox="0 0 484.49 484.49"><defs><style>.cls-1{fill:#d1c8ce;}</style></defs><path class="cls-1" d="M14,335.62v9.43L345.05,14h-9.43Zm3.9,24.86,4.71,4.72L365.2,22.61l-4.72-4.71Zm14.38,14.38L37,379.58,379.58,37l-4.72-4.71Zm14.37,14.38L51.37,394,394,51.37l-4.71-4.72ZM61,403.62l4.72,4.71L408.33,65.75,403.62,61Zm-47-183V230L230,14H220.6Zm0-28.76v9.43L201.27,14h-9.43ZM75.41,418l4.72,4.71L422.71,80.13,418,75.41ZM14,249.35v9.43L258.78,14h-9.43Zm0,28.76v9.43L287.54,14h-9.43Zm0,28.76v9.42L316.29,14h-9.42Zm0-143.79v9.43L172.51,14h-9.43ZM253.72,498.5h9.43L498.5,263.15v-9.43Zm-28.76,0h9.43L498.5,234.39V225Zm57.51,0h9.43L498.5,291.9v-9.43Zm-86.26,0h9.42L498.5,205.63v-9.42ZM89.79,432.38l4.71,4.71L437.09,94.5l-4.71-4.71ZM498.5,340,340,498.5h9.43L498.5,349.42ZM311.23,498.5h9.43L498.5,320.66v-9.43ZM104.17,446.75l4.71,4.72L451.47,108.88l-4.72-4.71Zm14.38,14.38,4.71,4.72L465.85,123.26l-4.72-4.71Zm28.75,28.76L152,494.6,494.6,152l-4.71-4.72Zm20.15,8.61h9.43L498.5,176.88v-9.43Zm-34.53-23,4.72,4.71L480.22,137.64l-4.71-4.72Z" transform="translate(-14 -14)"/></svg>