<svg id="Layer_1" data-name="Layer 1" xmlns="http://www.w3.org/2000/svg" viewBox="0 0 363.73 417.34"><defs><style>.cls-1{fill:#d1c8ce;}</style></defs><path class="cls-1" d="M307,75.83,75.07,307.73V343.9L329.9,89.06Zm47.75,27.56L88.46,369.66l22.92,13.24L377.65,116.63ZM87.3,144.86,75.07,157.1v36.16l97.79-97.79Zm171.93-96.6L75.07,232.42v36.16L282.15,61.49ZM402.47,131,136.21,397.23l22.92,13.23L425.4,144.2Zm24.08,238,12.24-12.24V320.59L341,418.39ZM184,424.79,206.88,438,438.79,206.12V170Zm70.67,40.81L438.79,281.44V245.28L231.7,452.36Z" transform="translate(-75.07 -48.26)"/></svg>